<svg width="219" height="146" viewBox="0 0 219 146" fill="none" xmlns="http://www.w3.org/2000/svg">
<path d="M183 72.782C183 92.394 175.155 109.827 162.952 122.901C162.081 124.209 160.773 125.081 159.466 125.952C146.391 138.155 128.958 145.564 109.782 145.564C94.5284 145.564 80.1463 140.77 68.3791 132.489C64.8926 130.31 61.8418 127.26 58.791 124.645C45.2806 111.57 37 93.2656 37 72.782C37 32.6865 69.6866 0 109.782 0C150.313 0 183 32.6865 183 72.782Z" fill="#44464F"/>
<rect x="62.9485" y="7" width="95.5206" height="38.2082" rx="6" fill="url(#paint0_linear_630_41657)"/>
<path opacity="0.4" d="M128.86 20.8779H69.4528C68.8543 20.8779 68.4054 20.4286 68.4054 19.8295V16.2349C68.4054 15.6358 68.8543 15.1865 69.4528 15.1865H128.86C129.458 15.1865 129.907 15.6358 129.907 16.2349V19.8295C129.907 20.4286 129.458 20.8779 128.86 20.8779Z" fill="#DEDEDE"/>
<path opacity="0.4" d="M106.115 35.5566H69.4528C68.8543 35.5566 68.4054 35.1073 68.4054 34.5082V30.9137C68.4054 30.3146 68.8543 29.8652 69.4528 29.8652H106.115C106.713 29.8652 107.162 30.3146 107.162 30.9137V34.5082C107.162 34.9575 106.563 35.5566 106.115 35.5566Z" fill="#DEDEDE"/>
<rect x="62.9487" y="53.3965" width="95.5206" height="38.2082" rx="6" fill="url(#paint1_linear_630_41657)"/>
<path opacity="0.4" d="M128.86 67.2744H69.4528C68.8543 67.2744 68.4054 66.8251 68.4054 66.226V62.6314C68.4054 62.0323 68.8543 61.583 69.4528 61.583H128.86C129.458 61.583 129.907 62.0323 129.907 62.6314V66.226C129.907 66.8251 129.458 67.2744 128.86 67.2744Z" fill="#DEDEDE"/>
<path opacity="0.4" d="M106.115 81.9521H69.4528C68.8543 81.9521 68.4054 81.5028 68.4054 80.9037V77.3092C68.4054 76.7101 68.8543 76.2607 69.4528 76.2607H106.115C106.713 76.2607 107.162 76.7101 107.162 77.3092V80.9037C107.162 81.353 106.563 81.9521 106.115 81.9521Z" fill="#DEDEDE"/>
<rect x="62.9487" y="99.791" width="95.5206" height="38.2082" rx="6" fill="url(#paint2_linear_630_41657)"/>
<path opacity="0.4" d="M128.86 113.671H69.4528C68.8543 113.671 68.4054 113.222 68.4054 112.622V109.028C68.4054 108.429 68.8543 107.979 69.4528 107.979H128.86C129.458 107.979 129.907 108.429 129.907 109.028V112.622C129.907 113.222 129.458 113.671 128.86 113.671Z" fill="#DEDEDE"/>
<path opacity="0.4" d="M106.115 128.348H69.4528C68.8543 128.348 68.4054 127.898 68.4054 127.299V123.705C68.4054 123.106 68.8543 122.656 69.4528 122.656H106.115C106.713 122.656 107.162 123.106 107.162 123.705V127.299C107.162 127.749 106.563 128.348 106.115 128.348Z" fill="#DEDEDE"/>
<path d="M167.473 128.857C166.108 128.857 164.744 128.312 163.652 127.083L140.864 104.295L140.045 104.84C132.677 110.299 124.08 113.164 115.347 113.164C104.839 113.164 94.332 108.934 86.5539 101.565C78.3664 93.7872 73.8633 83.28 73.8633 71.8175C73.8633 49.029 92.4216 30.4707 115.21 30.4707C130.766 30.4707 144.412 38.6582 151.781 52.5769C159.013 66.3592 158.057 82.4612 149.188 95.4247L148.642 96.2435L171.567 119.168C173.887 121.488 173.341 123.808 172.931 125.037C171.84 127.22 169.656 128.857 167.473 128.857ZM115.21 41.7967C98.5622 41.7967 85.1893 55.3061 85.1893 71.8175C85.1893 90.6487 100.609 101.975 115.619 101.975C124.762 101.975 133.086 97.881 138.954 90.5122C146.186 81.506 147.414 69.3612 142.365 58.854C137.18 48.3467 126.809 41.7967 115.21 41.7967Z" fill="#747781"/>
<defs>
<linearGradient id="paint0_linear_630_41657" x1="102.521" y1="27.4687" x2="140.047" y2="78.6405" gradientUnits="userSpaceOnUse">
<stop stop-color="#FDFEFF"/>
<stop offset="0.9964" stop-color="#F3F3F3"/>
</linearGradient>
<linearGradient id="paint1_linear_630_41657" x1="95.6986" y1="54.7611" x2="110.709" y2="114.803" gradientUnits="userSpaceOnUse">
<stop stop-color="#FDFEFF"/>
<stop offset="0.9964" stop-color="#F3F3F3"/>
</linearGradient>
<linearGradient id="paint2_linear_630_41657" x1="95.6986" y1="101.156" x2="110.709" y2="161.197" gradientUnits="userSpaceOnUse">
<stop stop-color="#FDFEFF"/>
<stop offset="0.9964" stop-color="#F3F3F3"/>
</linearGradient>
</defs>
</svg>
