<svg width="219" height="146" viewBox="0 0 219 146" fill="none" xmlns="http://www.w3.org/2000/svg">
<path d="M183 72.782C183 92.394 175.155 109.827 162.952 122.901C162.081 124.209 160.773 125.081 159.466 125.952C146.391 138.155 128.958 145.564 109.782 145.564C94.5284 145.564 80.1463 140.77 68.3791 132.489C64.8926 130.31 61.8418 127.26 58.791 124.645C45.2806 111.57 37 93.2656 37 72.782C37 32.6865 69.6866 0 109.782 0C150.313 0 183 32.6865 183 72.782Z" fill="#44464F"/>
<path d="M162.962 122.902C162.09 124.21 160.783 125.081 159.475 125.953C146.401 138.156 128.968 145.565 109.792 145.565C94.5382 145.565 80.1561 140.771 68.389 132.49C64.9024 130.311 61.8516 127.261 58.8009 124.646C60.5442 122.466 63.1591 121.159 68.8248 118.98L71.0039 118.108C75.3621 116.365 81.4636 114.186 89.3084 110.699C90.6158 110.264 91.4875 109.392 92.3591 108.52C92.7949 108.084 93.2308 107.649 93.2308 106.777C93.6666 105.905 94.1024 104.598 94.1024 103.726V88.9083C93.6666 88.4725 93.6666 88.4725 93.2308 88.0366C91.9233 86.2934 91.0516 84.1143 91.0516 81.4993L90.18 81.0635C86.2576 81.9352 86.6935 78.0128 85.8218 70.168C85.386 67.1173 85.8218 66.2456 87.5651 65.8098L88.8725 64.0665C86.2576 57.965 84.9501 52.2994 84.9501 47.9412C84.9501 40.5322 88.0009 35.7382 92.3591 33.5591C89.7442 28.3292 89.7442 26.5859 89.7442 26.5859C89.7442 26.5859 104.998 29.2009 110.228 28.3292C116.765 27.0218 127.225 28.765 131.147 37.4815C137.684 40.0964 139.864 44.0188 140.735 48.377C141.607 55.3501 137.684 62.759 136.813 65.8098V66.2456C137.684 66.6814 138.12 67.5531 137.684 70.6038C136.813 78.0128 136.813 82.371 133.326 81.4993L129.84 87.6008C129.84 88.4725 129.84 88.4725 129.404 88.9083C129.404 90.2158 129.404 92.3949 129.404 104.162C129.404 105.469 129.84 107.213 130.711 108.084C131.147 108.52 131.147 108.956 131.583 108.956C132.455 109.828 133.326 110.699 134.198 110.699C142.914 114.186 149.016 116.801 153.81 118.544C158.168 120.287 161.219 121.595 162.962 122.902Z" fill="white"/>
<path d="M94.1041 103.727V88.9093C93.6683 88.4735 93.6682 88.4735 93.2324 88.0376V87.166C94.1041 88.4735 94.9757 89.7809 96.2832 90.6526L108.05 98.9332C110.665 101.112 114.588 101.112 117.203 98.9332L128.098 89.3451C128.534 88.9093 128.97 88.9093 129.406 88.4735C129.406 89.7809 129.406 91.96 129.406 103.727C129.406 104.599 128.97 105.035 129.406 105.906H94.1041C93.6683 105.035 94.1041 104.599 94.1041 103.727Z" fill="url(#paint0_linear_630_41681)"/>
<path d="M162.962 122.905C162.09 124.212 160.783 125.084 159.475 125.955C146.401 138.158 128.968 145.567 109.792 145.567C94.5382 145.567 80.1561 140.773 68.389 132.493C64.9024 130.314 61.8516 127.263 58.8009 124.648C60.5442 122.469 63.1591 121.161 68.8248 118.982L71.0039 118.111C75.3621 116.367 81.4636 114.188 89.3084 110.702C90.6158 110.266 91.4875 109.394 92.3591 108.522C96.7173 114.624 103.69 118.546 111.971 118.546C119.816 118.546 126.789 114.624 131.147 108.958C132.019 109.83 132.89 110.702 133.762 110.702C142.479 114.188 148.58 116.803 153.374 118.546C158.168 120.29 161.219 121.597 162.962 122.905Z" fill="#F3F3F3"/>
<path d="M136.234 67.2964C138.827 56.9244 127.623 50.741 118.932 50.1203C102.807 49.2486 101.499 52.2994 96.7054 47.9412C98.4487 50.1203 98.4487 54.0426 95.8337 58.4008C94.0905 61.4516 91.0397 63.1949 87.989 64.0665C80.58 47.5053 84.5024 37.0456 91.4755 33.5591C88.8606 28.3292 88.8606 26.5859 88.8606 26.5859C88.8606 26.5859 104.114 29.2009 109.344 28.3292C117.984 26.5859 127.749 28.9238 131.672 37.6402C138.209 40.2551 139.925 43.5476 140.797 47.9058C142.104 54.4431 137.106 64.2457 136.234 67.2964Z" fill="#AEAEAE"/>
<path d="M82.6248 80.7568C79.6592 76.2969 78.0623 70.7877 78.0623 65.0161C78.0623 58.2384 80.3275 52.0394 84.0302 47.3711L84.7988 54.8881C84.0568 56.4151 83.476 58.0533 83.0811 59.7693C82.8529 61.3433 81.9404 62.1304 80.3436 62.1304V62.3927H89.4686C90.8373 62.3927 91.7498 63.4421 91.7498 65.0161V78.1333C91.7498 79.7074 90.8373 80.7568 89.4686 80.7568H82.6248Z" fill="#747781"/>
<path d="M141.937 62.1297C140.34 62.1297 139.428 61.3426 139.2 59.7686C139.18 59.6817 139.159 59.595 139.138 59.5086L140.975 51.5732C143.033 55.5106 144.219 60.1115 144.219 65.0154C144.219 78.4271 135.349 89.5722 124.023 91.077C122.587 91.2678 121.406 90.0753 121.406 88.6264C121.406 87.1775 122.589 86.0238 124.017 85.7758C127.6 85.1535 130.92 83.2964 133.497 80.7561H132.812C131.444 80.7561 130.531 79.7067 130.531 78.1326V65.0154C130.531 63.4414 131.444 62.392 132.812 62.392H141.937V62.1297Z" fill="#747781"/>
<defs>
<linearGradient id="paint0_linear_630_41681" x1="111.466" y1="105.323" x2="111.466" y2="95.5065" gradientUnits="userSpaceOnUse">
<stop stop-color="white"/>
<stop offset="0.9913" stop-color="#DEDEDE"/>
</linearGradient>
</defs>
</svg>
