<svg width="219" height="146" viewBox="0 0 219 146" fill="none" xmlns="http://www.w3.org/2000/svg">
<path d="M183 72.782C183 92.394 175.155 109.827 162.952 122.901C162.081 124.209 160.773 125.081 159.466 125.952C146.391 138.155 128.958 145.564 109.782 145.564C94.5284 145.564 80.1463 140.77 68.3791 132.489C64.8926 130.31 61.8418 127.26 58.791 124.645C45.2806 111.57 37 93.2656 37 72.782C37 32.6865 69.6866 0 109.782 0C150.313 0 183 32.6865 183 72.782Z" fill="#44464F"/>
<path d="M30 117.333H184C187.314 117.333 190 114.647 190 111.333V28L164.661 45.4674L151.267 58.4432L127.376 57.9441L106.38 72.9162L88.2805 76.4097L81.7647 86.3911L62.9412 102.86L44.4796 107.352L30 117.333Z" fill="#747781"/>
<path d="M30 117.333H184C187.314 117.333 190 114.647 190 111.333V48L164.661 61.2549L151.267 71.451L127.376 70.9412L106.38 82.6667L88.2805 85.7255L81.7647 92.8628L62.9412 106.118L44.4796 109.686L30 117.333Z" fill="#FAFAFB"/>
<path d="M120.227 35.6966L120.6 34.7689L120.087 34.5622L119.639 34.8876L120.227 35.6966ZM131.057 40.0552L130.683 40.9829L131.17 41.1788L131.608 40.8895L131.057 40.0552ZM172.98 13.2001C173.09 12.659 172.741 12.1307 172.2 12.0202L163.382 10.2192C162.841 10.1087 162.313 10.4578 162.202 10.9989C162.092 11.54 162.441 12.0683 162.982 12.1788L170.82 13.7797L169.219 21.6179C169.109 22.159 169.458 22.6872 169.999 22.7977C170.54 22.9083 171.068 22.5592 171.179 22.0181L172.98 13.2001ZM51 86L51.5878 86.809L120.815 36.5055L120.227 35.6966L119.639 34.8876L50.4122 85.191L51 86ZM120.227 35.6966L119.854 36.6242L130.683 40.9829L131.057 40.0552L131.43 39.1275L120.6 34.7689L120.227 35.6966ZM131.057 40.0552L131.608 40.8895L172.551 13.8343L172 13L171.449 12.1657L130.505 39.2209L131.057 40.0552Z" fill="white"/>
</svg>
