<svg width="72" height="72" viewBox="0 0 72 72" fill="none" xmlns="http://www.w3.org/2000/svg">
<path d="M0 36C0 16.1178 16.1178 0 36 0C55.8823 0 72 16.1178 72 36C72 55.8823 55.8823 72 36 72C16.1178 72 0 55.8823 0 36Z" fill="#339E75" fill-opacity="0.4"/>
<rect x="4" y="4" width="64" height="64" rx="32" fill="#339E75"/>
<circle cx="36" cy="36" r="4" stroke="white" stroke-width="2"/>
<path d="M38.3538 22.8695C37.8638 22.6665 37.2425 22.6665 36 22.6665C34.7575 22.6665 34.1362 22.6665 33.6462 22.8695C32.9928 23.1401 32.4736 23.6593 32.203 24.3127C32.0794 24.611 32.0311 24.9578 32.0122 25.4638C31.9844 26.2074 31.603 26.8957 30.9586 27.2677C30.3142 27.6398 29.5275 27.6259 28.8696 27.2782C28.4219 27.0416 28.0974 26.91 27.7773 26.8679C27.0761 26.7755 26.3669 26.9656 25.8058 27.3961C25.385 27.719 25.0744 28.257 24.4531 29.3331C23.8319 30.4091 23.5212 30.9471 23.452 31.473C23.3597 32.1742 23.5497 32.8834 23.9802 33.4445C24.1768 33.7006 24.4529 33.9159 24.8816 34.1852C25.5117 34.5811 25.9172 35.2556 25.9172 35.9999C25.9171 36.744 25.5117 37.4184 24.8816 37.8143C24.4529 38.0837 24.1766 38.299 23.9801 38.5551C23.5496 39.1162 23.3596 39.8253 23.4519 40.5265C23.5211 41.0524 23.8317 41.5905 24.453 42.6665C25.0742 43.7425 25.3849 44.2806 25.8057 44.6035C26.3668 45.034 27.0759 45.224 27.7771 45.1317C28.0972 45.0896 28.4218 44.958 28.8694 44.7214C29.5273 44.3737 30.3141 44.3598 30.9585 44.7319C31.603 45.104 31.9844 45.7923 32.0122 46.5359C32.0311 47.0419 32.0794 47.3887 32.203 47.687C32.4736 48.3404 32.9928 48.8595 33.6462 49.1302C34.1362 49.3332 34.7575 49.3332 36 49.3332C37.2425 49.3332 37.8638 49.3332 38.3538 49.1302C39.0072 48.8595 39.5264 48.3404 39.797 47.687C39.9206 47.3887 39.9689 47.0418 39.9878 46.5358C40.0156 45.7922 40.3969 45.104 41.0413 44.7319C41.6858 44.3598 42.4726 44.3736 43.1305 44.7214C43.5781 44.9579 43.9027 45.0895 44.2227 45.1316C44.9239 45.2239 45.6331 45.0339 46.1942 44.6034C46.615 44.2805 46.9256 43.7425 47.5469 42.6664C48.1681 41.5904 48.4788 41.0523 48.548 40.5264C48.6403 39.8253 48.4503 39.1161 48.0197 38.555C47.8232 38.2989 47.547 38.0836 47.1183 37.8142C46.4882 37.4183 46.0828 36.7439 46.0828 35.9997C46.0829 35.2556 46.4883 34.5813 47.1183 34.1854C47.5471 33.916 47.8233 33.7007 48.0199 33.4446C48.4504 32.8835 48.6404 32.1743 48.5481 31.4731C48.4789 30.9472 48.1683 30.4092 47.547 29.3332C46.9257 28.2571 46.6151 27.7191 46.1943 27.3962C45.6332 26.9657 44.9241 26.7756 44.2229 26.868C43.9028 26.9101 43.5782 27.0416 43.1306 27.2782C42.4727 27.626 41.6859 27.6399 41.0414 27.2678C40.397 26.8957 40.0156 26.2074 39.9878 25.4638C39.9689 24.9578 39.9206 24.6109 39.797 24.3127C39.5264 23.6593 39.0072 23.1401 38.3538 22.8695Z" stroke="white" stroke-width="2"/>
</svg>
