<svg width="72" height="72" viewBox="0 0 72 72" fill="none" xmlns="http://www.w3.org/2000/svg">
<path d="M0 36C0 16.1178 16.1178 0 36 0C55.8823 0 72 16.1178 72 36C72 55.8823 55.8823 72 36 72C16.1178 72 0 55.8823 0 36Z" fill="#339E75" fill-opacity="0.4"/>
<rect x="4" y="4" width="64" height="64" rx="32" fill="#339E75"/>
<circle cx="26.6667" cy="26.6665" r="4" stroke="white" stroke-width="2"/>
<circle cx="45.3333" cy="45.3335" r="4" stroke="white" stroke-width="2"/>
<path d="M34.6667 25.6665C34.1144 25.6665 33.6667 26.1142 33.6667 26.6665C33.6667 27.2188 34.1144 27.6665 34.6667 27.6665V26.6665V25.6665ZM37.3334 45.3332L38.0405 46.0403C38.228 45.8527 38.3334 45.5984 38.3334 45.3332C38.3334 45.068 38.228 44.8136 38.0405 44.6261L37.3334 45.3332ZM42.9409 31.5829L43.4777 32.4266L42.9409 31.5829ZM29.0592 40.4167L29.5961 41.2604H29.5961L29.0592 40.4167ZM36.0405 42.6261C35.6499 42.2355 35.0168 42.2355 34.6263 42.6261C34.2357 43.0166 34.2357 43.6498 34.6263 44.0403L35.3334 43.3332L36.0405 42.6261ZM34.6263 46.6261C34.2357 47.0166 34.2357 47.6498 34.6263 48.0403C35.0168 48.4308 35.6499 48.4308 36.0405 48.0403L35.3334 47.3332L34.6263 46.6261ZM41.5092 26.6665V25.6665H34.6667V26.6665V27.6665H41.5092V26.6665ZM37.3334 45.3332V44.3332H30.4908V45.3332V46.3332H37.3334V45.3332ZM42.9409 31.5829L42.404 30.7393L28.5223 39.5731L29.0592 40.4167L29.5961 41.2604L43.4777 32.4266L42.9409 31.5829ZM37.3334 45.3332L38.0405 44.6261L36.0405 42.6261L35.3334 43.3332L34.6263 44.0403L36.6263 46.0403L37.3334 45.3332ZM37.3334 45.3332L36.6263 44.6261L34.6263 46.6261L35.3334 47.3332L36.0405 48.0403L38.0405 46.0403L37.3334 45.3332ZM30.4908 45.3332V44.3332C28.8234 44.3332 28.1893 42.1556 29.5961 41.2604L29.0592 40.4167L28.5223 39.5731C25.4275 41.5425 26.8225 46.3332 30.4908 46.3332V45.3332ZM41.5092 26.6665V27.6665C43.1766 27.6665 43.8107 29.8441 42.404 30.7393L42.9409 31.5829L43.4777 32.4266C46.5726 30.4572 45.1775 25.6665 41.5092 25.6665V26.6665Z" fill="white"/>
</svg>
