<svg width="72" height="72" viewBox="0 0 72 72" fill="none" xmlns="http://www.w3.org/2000/svg">
<path d="M0 36C0 16.1178 16.1178 0 36 0C55.8823 0 72 16.1178 72 36C72 55.8823 55.8823 72 36 72C16.1178 72 0 55.8823 0 36Z" fill="#339E75" fill-opacity="0.4"/>
<rect x="4" y="4" width="64" height="64" rx="32" fill="#339E75"/>
<path d="M36 49.3332C29.7146 49.3332 26.5719 49.3332 24.6192 47.3805C22.6666 45.4279 22.6666 42.2852 22.6666 35.9998C22.6666 29.7144 22.6666 26.5717 24.6192 24.6191C26.5719 22.6665 29.7146 22.6665 36 22.6665C42.2854 22.6665 45.428 22.6665 47.3807 24.6191C49.3333 26.5717 49.3333 29.7144 49.3333 35.9998C49.3333 42.2852 49.3333 45.4279 47.3807 47.3805C45.428 49.3332 42.2854 49.3332 36 49.3332Z" stroke="white" stroke-width="2"/>
<path d="M27.3334 31.6761C27.3334 29.2775 29.4227 27.333 32 27.333C34.5774 27.333 36.6667 29.2775 36.6667 31.6761C36.6667 34.0559 35.1773 36.833 32.8534 37.826C32.3117 38.0576 31.6884 38.0576 31.1467 37.826C28.8228 36.833 27.3334 34.0559 27.3334 31.6761Z" stroke="white" stroke-width="2"/>
<path d="M38.6672 38.6663L47.3339 47.3329M38.6672 38.6663L28.526 48.8075M38.6672 38.6663L48.8096 28.5239" stroke="white" stroke-width="2" stroke-linecap="round"/>
<path d="M33.3333 31.9998C33.3333 32.7362 32.7363 33.3332 32 33.3332C31.2636 33.3332 30.6666 32.7362 30.6666 31.9998C30.6666 31.2635 31.2636 30.6665 32 30.6665C32.7363 30.6665 33.3333 31.2635 33.3333 31.9998Z" fill="white"/>
</svg>
