<svg width="64" height="64" viewBox="0 0 64 64" fill="none" xmlns="http://www.w3.org/2000/svg">
<path d="M57.4115 9.87503C58.1962 9.09137 58.1962 7.8094 57.4115 7.02574C56.6268 6.24209 55.3432 6.24209 54.5585 7.02574L48.8867 12.6902L48.9342 12.7443C44.5718 8.59555 38.4527 6 31.6972 6C25.1266 6 19.1533 8.45247 14.8167 12.4049L14.8217 12.399L9.44148 7.02574C8.65681 6.24209 7.37318 6.24209 6.5885 7.02574C5.80383 7.8094 5.80383 9.09137 6.5885 9.87503L12.0895 15.369L12.1387 15.3157C9.38984 18.8746 7.76635 23.2047 7.76635 27.8667V59H55.6281V27.8659C55.6281 23.3736 54.1245 19.1874 51.5564 15.7042L51.5648 15.7134L57.4115 9.87503ZM21.9371 25.6505C20.127 25.6505 18.6593 24.1847 18.6593 22.3769C18.6593 20.5692 20.127 19.1034 21.9371 19.1034C23.7472 19.1034 25.2149 20.5692 25.2149 22.3769C25.2149 24.1847 23.748 25.6505 21.9371 25.6505ZM41.4581 25.6505C39.6481 25.6505 38.1803 24.1847 38.1803 22.3769C38.1803 20.5692 39.6481 19.1034 41.4581 19.1034C43.2682 19.1034 44.7359 20.5692 44.7359 22.3769C44.7359 24.1847 43.2691 25.6505 41.4581 25.6505Z" fill="#00B245"/>
</svg>
