<svg width="64" height="64" viewBox="0 0 64 64" fill="none" xmlns="http://www.w3.org/2000/svg">
<path d="M32 6C17.6375 6 6 17.6375 6 32C6 46.3625 17.6375 58 32 58C46.3625 58 58 46.3625 58 32C58 17.6375 46.3625 6 32 6ZM22.1375 43.1125C21.8 43.6875 21.2 44 20.575 44C20.2625 44 19.95 43.925 19.6625 43.75C18.8 43.25 18.5125 42.15 19.0125 41.2875L20.7875 38.3375C20.975 38.025 21.3 37.8375 21.6625 37.8375H21.925C23.2125 37.8375 24.1125 38.6125 24.375 39.3625L22.1375 43.1125ZM37.1625 37.3125L25.5375 37.325H17.8125C16.7875 37.325 15.9625 36.475 16.0125 35.45C16.05 34.475 16.9 33.7375 17.875 33.7375H23.475L30.1125 22.4375L27.9625 18.775C27.475 17.9375 27.6875 16.8375 28.5125 16.3125C29.3875 15.75 30.5375 16.0375 31.05 16.9125L32.2 18.875H32.2125L33.3625 16.9125C33.875 16.0375 35.0375 15.75 35.9 16.3125C36.725 16.8375 36.9375 17.9375 36.45 18.775L34.3 22.4375L32.2125 26L27.675 33.7375V33.75H34.3625C35.2 33.75 36.25 34.2 36.675 34.925L36.7125 35C37.0875 35.6375 37.3 36.075 37.3 36.7125C37.2875 37.0625 37.1625 37.3125 37.1625 37.3125ZM46.1875 37.325H43.0375V37.3375L45.3375 41.25C45.8375 42.1 45.6 43.225 44.7375 43.75C44.45 43.925 44.125 44.0125 43.8 44.0125C43.175 44.0125 42.575 43.6875 42.2375 43.125L38.8375 37.3375L36.725 33.7375L34 29.075C33.2 27.7125 33.1625 26.0125 33.925 24.6625C34.4625 23.7125 34.875 23.4625 34.875 23.4625L40.9375 33.725H46.15C47.125 33.725 47.9625 34.475 48.0125 35.4375C48.05 36.475 47.225 37.325 46.1875 37.325Z" fill="url(#paint0_linear_1045_214679)"/>
<defs>
<linearGradient id="paint0_linear_1045_214679" x1="32" y1="6" x2="32" y2="58" gradientUnits="userSpaceOnUse">
<stop stop-color="#1ABEFB"/>
<stop offset="1" stop-color="#2073F2"/>
</linearGradient>
</defs>
</svg>
