<svg width="64" height="64" viewBox="0 0 64 64" fill="none" xmlns="http://www.w3.org/2000/svg">
<path d="M11.1992 59L35.9895 34.0315L42.7639 40.8776L33.0809 46.534C33.0809 46.534 13.4461 58.0679 12.4766 58.6399C12.0591 58.8867 11.6114 58.978 11.1992 59Z" fill="#FE2B25"/>
<path d="M37.585 32.4104L44.7857 25.1311C47.3033 26.6188 52.8675 29.9102 53.6159 30.3196C54.4757 30.7893 54.9852 31.5532 54.9994 32.3738C55.0082 32.8709 54.8313 33.803 53.5805 34.534L44.7857 39.6513L37.585 32.4104Z" fill="#FFB900"/>
<path d="M35.9891 30.7894L11.4111 6C11.9488 6.0252 12.4724 6.18582 12.9362 6.46786L42.7281 23.9432L35.9891 30.7894Z" fill="#00AB47"/>
<path d="M9 8.55861C9 8.02861 9.13269 7.55344 9.35384 7.15137L34.3582 32.4086L9.21231 57.7755C9.07961 57.4648 9 57.1176 9 56.7301V8.55861Z" fill="#1F87FC"/>
</svg>
