<svg width="64" height="64" viewBox="0 0 64 64" fill="none" xmlns="http://www.w3.org/2000/svg">
<path fill-rule="evenodd" clip-rule="evenodd" d="M30.96 57.2724C19.1937 57.2724 13.3105 57.2724 9.65538 53.6682C6 50.0639 6 44.2631 6 32.6615V30.6105C6 19.0089 6 13.2081 9.65538 9.60403C13.3105 6 19.1937 6 30.96 6H33.04C44.8063 6 50.6895 6 54.3446 9.60403C58 13.2081 58 19.0089 58 30.6105V32.6615C58 44.2631 58 50.0639 54.3446 53.6682C50.6895 57.2724 44.8063 57.2724 33.04 57.2724H30.96ZM42.6331 39.2134L46.1466 40.0788C47.7378 40.4707 49.2807 39.2901 49.2807 37.6803V20.9831C49.2807 19.5658 48.2983 18.3302 46.8973 17.985L36.82 15.5029C35.2285 15.111 33.6859 16.2916 33.6859 17.9014V20.9113L27.3362 19.3474C25.745 18.9555 24.2024 20.1361 24.2024 21.7459V24.7559L17.8525 23.1918C16.2611 22.7998 14.7184 23.9804 14.7184 25.5903V42.2875C14.7184 43.7047 15.7008 44.9405 17.1018 45.2855L27.1792 47.7678C28.7706 48.1598 30.3132 46.9789 30.3132 45.3693L30.3139 28.6964C30.3139 27.2878 29.4115 26.4712 29.0837 26.221C29.021 26.1731 29.0037 26.0843 29.0486 26.0199C29.0928 25.9566 29.1725 25.9267 29.247 25.9491C30.5748 26.3443 31.8453 27.6865 31.972 29.3741L32.4104 42.1258C32.4249 42.5449 32.6996 42.908 33.0952 43.0445L36.6631 43.9233C38.2543 44.3152 39.7972 43.1346 39.7972 41.5248L39.7998 24.8536C39.7998 23.445 38.8974 22.6284 38.5693 22.3782C38.5069 22.3303 38.4896 22.2415 38.5344 22.1771C38.5784 22.1138 38.6582 22.0839 38.7327 22.1063C40.0604 22.5015 41.331 23.8437 41.4577 25.5313L41.8962 38.2822C41.9112 38.7183 42.21 39.0938 42.6331 39.2134Z" fill="#0077FF"/>
</svg>
