<?xml version="1.0" standalone="no"?>
<!DOCTYPE svg PUBLIC "-//W3C//DTD SVG 20010904//EN"
 "http://www.w3.org/TR/2001/REC-SVG-20010904/DTD/svg10.dtd">
<svg version="1.0" xmlns="http://www.w3.org/2000/svg"
 width="784.000000pt" height="784.000000pt" viewBox="0 0 784.000000 784.000000"
 preserveAspectRatio="xMidYMid meet">
<metadata>
Created by potrace 1.14, written by Peter Selinger 2001-2017
</metadata>
<g transform="translate(0.000000,784.000000) scale(0.100000,-0.100000)"
fill="#000000" stroke="none">
<path d="M3605 7754 c-22 -2 -92 -9 -155 -15 -449 -42 -923 -180 -1344 -391
-1062 -532 -1824 -1549 -2041 -2722 -47 -258 -59 -401 -59 -706 0 -305 12
-448 59 -706 289 -1566 1525 -2794 3095 -3073 216 -39 364 -52 650 -58 586
-12 1027 56 1513 233 194 71 554 248 723 357 886 567 1498 1449 1704 2455 61
298 74 445 74 792 0 347 -13 494 -74 792 -142 693 -491 1354 -983 1865 -633
656 -1418 1045 -2337 1158 -128 16 -717 29 -825 19z m25 -1819 l0 -285 -27 -5
c-16 -3 -75 -18 -133 -32 -513 -126 -950 -482 -1176 -958 -49 -102 -106 -270
-125 -362 l-13 -63 -293 0 c-249 0 -293 2 -293 14 0 35 43 231 70 324 154 513
495 970 954 1276 180 120 438 240 651 301 106 31 306 73 353 74 l32 1 0 -285z
m942 215 c796 -227 1415 -845 1632 -1629 29 -102 56 -234 56 -267 l0 -24 -291
2 -291 3 -28 110 c-161 625 -669 1121 -1307 1275 l-93 22 0 283 c0 155 2 284
5 287 9 9 199 -28 317 -62z m-2403 -2602 c35 -174 140 -419 247 -578 278 -413
671 -669 1187 -775 l27 -5 0 -285 0 -285 -24 0 c-42 0 -236 40 -346 71 -774
219 -1393 824 -1620 1581 -27 93 -70 289 -70 324 0 12 44 14 293 14 l293 0 13
-62z m4091 38 c0 -35 -35 -198 -64 -296 -191 -654 -669 -1200 -1298 -1480
-181 -82 -375 -141 -565 -174 -40 -7 -75 -11 -78 -8 -3 3 -5 132 -5 287 l0
283 93 22 c497 120 929 455 1161 900 66 127 115 253 146 375 12 50 24 96 26
103 3 9 70 12 294 12 l290 0 0 -24z"/>
</g>
</svg>
