<svg width="64" height="64" viewBox="0 0 64 64" fill="none" xmlns="http://www.w3.org/2000/svg">
<rect x="1" y="1" width="62" height="62" rx="7" fill="#F3F3F3"/>
<rect x="1" y="1" width="62" height="62" rx="7" stroke="#8E8E8E" stroke-width="2" stroke-dasharray="10 10"/>
<path d="M15.3182 26.3636V38H13.9091V26.3636H15.3182ZM22.1435 26.3636H23.8253L27.7798 36.0227H27.9162L31.8707 26.3636H33.5526V38H32.2344V29.1591H32.1207L28.4844 38H27.2116L23.5753 29.1591H23.4616V38H22.1435V26.3636ZM48.3324 30C48.2074 29.6174 48.0426 29.2746 47.8381 28.9716C47.6373 28.6648 47.3968 28.4034 47.1165 28.1875C46.84 27.9716 46.5256 27.8068 46.1733 27.6932C45.821 27.5795 45.4347 27.5227 45.0142 27.5227C44.3248 27.5227 43.6979 27.7008 43.1335 28.0568C42.5691 28.4129 42.1203 28.9375 41.7869 29.6307C41.4536 30.3239 41.2869 31.1742 41.2869 32.1818C41.2869 33.1894 41.4555 34.0398 41.7926 34.733C42.1297 35.4261 42.5862 35.9508 43.1619 36.3068C43.7377 36.6629 44.3854 36.8409 45.1051 36.8409C45.7718 36.8409 46.3589 36.6989 46.8665 36.4148C47.3778 36.1269 47.7756 35.7216 48.0597 35.1989C48.3475 34.6723 48.4915 34.053 48.4915 33.3409L48.9233 33.4318H45.4233V32.1818H49.8551V33.4318C49.8551 34.3902 49.6506 35.2235 49.2415 35.9318C48.8362 36.6402 48.2756 37.1894 47.5597 37.5795C46.8475 37.9659 46.0294 38.1591 45.1051 38.1591C44.0748 38.1591 43.1695 37.9167 42.3892 37.4318C41.6127 36.947 41.0066 36.2576 40.571 35.3636C40.1392 34.4697 39.9233 33.4091 39.9233 32.1818C39.9233 31.2614 40.0464 30.4337 40.2926 29.6989C40.5426 28.9602 40.8949 28.3314 41.3494 27.8125C41.804 27.2936 42.3419 26.8958 42.9631 26.6193C43.5843 26.3428 44.268 26.2045 45.0142 26.2045C45.6278 26.2045 46.1998 26.2973 46.7301 26.483C47.2642 26.6648 47.7396 26.9242 48.1562 27.2614C48.5767 27.5947 48.9271 27.9943 49.2074 28.4602C49.4877 28.9223 49.6809 29.4356 49.7869 30H48.3324Z" fill="#8E8E8E"/>
</svg>
