<svg width="27" height="31" viewBox="0 0 27 31" fill="none" xmlns="http://www.w3.org/2000/svg">
<g clip-path="url(#clip0_1202_3337)">
<path d="M2.11495 0.5L16.007 14.5317L19.816 10.6566L2.97695 0.764828C2.71478 0.605182 2.41886 0.514266 2.11495 0.5V0.5ZM0.951953 1.15172C0.826953 1.37931 0.751953 1.64828 0.751953 1.94828V29.2152C0.751953 29.4345 0.796953 29.631 0.871953 29.8069L15.085 15.4483L0.951953 1.15172ZM20.979 11.329L16.909 15.4493L20.979 19.5479L25.95 16.6514C26.657 16.2376 26.757 15.71 26.752 15.4286C26.744 14.9641 26.456 14.5317 25.97 14.2659C25.547 14.0341 22.402 12.171 20.979 11.329ZM16.007 16.3669L1.99495 30.5C2.22795 30.4876 2.48095 30.4359 2.71695 30.2962C3.26495 29.9724 14.363 23.4438 14.363 23.4438L19.836 20.2421L16.007 16.3669Z" fill="white"/>
</g>
<defs>
<clipPath id="clip0_1202_3337">
<rect width="26" height="30" fill="white" transform="translate(0.751953 0.5)"/>
</clipPath>
</defs>
</svg>
