<svg width="64" height="64" viewBox="0 0 64 64" fill="none" xmlns="http://www.w3.org/2000/svg">
<rect x="0.875" y="1" width="61.8288" height="61.8288" rx="7" fill="#F3F3F3"/>
<rect x="0.875" y="1" width="61.8288" height="61.8288" rx="7" stroke="#8E8E8E" stroke-width="2" stroke-dasharray="10 10"/>
<path d="M15.1072 26.2777V37.9141H13.6982V26.2777H15.1072ZM21.9325 26.2777H23.6143L27.5689 35.9368H27.7053L31.6598 26.2777H33.3416V37.9141H32.0234V29.0732H31.9098L28.2734 37.9141H27.0007L23.3643 29.0732H23.2507V37.9141H21.9325V26.2777ZM48.1214 29.9141C47.9964 29.5315 47.8317 29.1887 47.6271 28.8857C47.4264 28.5788 47.1858 28.3175 46.9055 28.1016C46.629 27.8857 46.3146 27.7209 45.9624 27.6072C45.6101 27.4936 45.2237 27.4368 44.8033 27.4368C44.1139 27.4368 43.487 27.6148 42.9226 27.9709C42.3582 28.3269 41.9093 28.8516 41.576 29.5447C41.2427 30.2379 41.076 31.0883 41.076 32.0959C41.076 33.1035 41.2446 33.9538 41.5817 34.647C41.9188 35.3402 42.3752 35.8648 42.951 36.2209C43.5268 36.5769 44.1745 36.755 44.8942 36.755C45.5608 36.755 46.148 36.6129 46.6555 36.3288C47.1669 36.041 47.5646 35.6357 47.8487 35.1129C48.1366 34.5864 48.2805 33.9671 48.2805 33.255L48.7124 33.3459H45.2124V32.0959H49.6442V33.3459C49.6442 34.3042 49.4396 35.1375 49.0305 35.8459C48.6252 36.5542 48.0646 37.1035 47.3487 37.4936C46.6366 37.88 45.8184 38.0732 44.8942 38.0732C43.8639 38.0732 42.9586 37.8307 42.1783 37.3459C41.4018 36.861 40.7957 36.1716 40.3601 35.2777C39.9283 34.3838 39.7124 33.3232 39.7124 32.0959C39.7124 31.1754 39.8355 30.3478 40.0817 29.6129C40.3317 28.8743 40.6839 28.2455 41.1385 27.7266C41.593 27.2076 42.1309 26.8099 42.7521 26.5334C43.3733 26.2569 44.0571 26.1186 44.8033 26.1186C45.4169 26.1186 45.9889 26.2114 46.5192 26.397C47.0533 26.5788 47.5286 26.8383 47.9453 27.1754C48.3658 27.5088 48.7161 27.9084 48.9964 28.3743C49.2768 28.8364 49.4699 29.3497 49.576 29.9141H48.1214Z" fill="#8E8E8E"/>
</svg>
