<svg width="22" height="22" viewBox="0 0 22 22" fill="none" xmlns="http://www.w3.org/2000/svg">
<path d="M5 2.5C5 3.05228 5.44772 3.5 6 3.5C6.55228 3.5 7 3.05228 7 2.5H6H5ZM7 1C7 0.447715 6.55228 0 6 0C5.44772 0 5 0.447715 5 1H6H7ZM15 2.5C15 3.05228 15.4477 3.5 16 3.5C16.5523 3.5 17 3.05228 17 2.5H16H15ZM17 1C17 0.447715 16.5523 0 16 0C15.4477 0 15 0.447715 15 1H16H17ZM1.5 6.5C0.947715 6.5 0.5 6.94772 0.5 7.5C0.5 8.05228 0.947715 8.5 1.5 8.5V7.5V6.5ZM20.5 8.5C21.0523 8.5 21.5 8.05228 21.5 7.5C21.5 6.94772 21.0523 6.5 20.5 6.5V7.5V8.5ZM9 2.5V3.5H13V2.5V1.5H9V2.5ZM21 10.5H20V12.5H21H22V10.5H21ZM13 20.5V19.5H9V20.5V21.5H13V20.5ZM1 12.5H2V10.5H1H0V12.5H1ZM9 20.5V19.5C7.08611 19.5 5.75129 19.4979 4.74416 19.3625C3.76579 19.2309 3.2477 18.9903 2.87868 18.6213L2.17157 19.3284L1.46447 20.0355C2.26702 20.8381 3.27752 21.1833 4.47766 21.3446C5.64904 21.5021 7.14265 21.5 9 21.5V20.5ZM1 12.5H0C0 14.3573 -0.00212371 15.851 0.155364 17.0223C0.316719 18.2225 0.661911 19.233 1.46447 20.0355L2.17157 19.3284L2.87868 18.6213C2.50966 18.2523 2.26907 17.7342 2.13753 16.7558C2.00212 15.7487 2 14.4139 2 12.5H1ZM21 12.5H20C20 14.4139 19.9979 15.7487 19.8625 16.7558C19.7309 17.7342 19.4903 18.2523 19.1213 18.6213L19.8284 19.3284L20.5355 20.0355C21.3381 19.233 21.6833 18.2225 21.8446 17.0223C22.0021 15.851 22 14.3573 22 12.5H21ZM13 20.5V21.5C14.8573 21.5 16.351 21.5021 17.5223 21.3446C18.7225 21.1833 19.733 20.8381 20.5355 20.0355L19.8284 19.3284L19.1213 18.6213C18.7523 18.9903 18.2342 19.2309 17.2558 19.3625C16.2487 19.4979 14.9139 19.5 13 19.5V20.5ZM13 2.5V3.5C14.9139 3.5 16.2487 3.50212 17.2558 3.63753C18.2342 3.76907 18.7523 4.00966 19.1213 4.37868L19.8284 3.67157L20.5355 2.96447C19.733 2.16191 18.7225 1.81672 17.5223 1.65536C16.351 1.49788 14.8573 1.5 13 1.5V2.5ZM21 10.5H22C22 8.64265 22.0021 7.14904 21.8446 5.97766C21.6833 4.77752 21.3381 3.76702 20.5355 2.96447L19.8284 3.67157L19.1213 4.37868C19.4903 4.7477 19.7309 5.26579 19.8625 6.24416C19.9979 7.25129 20 8.58611 20 10.5H21ZM9 2.5V1.5C7.14265 1.5 5.64904 1.49788 4.47767 1.65536C3.27752 1.81672 2.26702 2.16191 1.46447 2.96447L2.17157 3.67157L2.87868 4.37868C3.2477 4.00966 3.76579 3.76907 4.74416 3.63753C5.75129 3.50212 7.08611 3.5 9 3.5V2.5ZM1 10.5H2C2 8.58611 2.00212 7.25129 2.13753 6.24416C2.26907 5.26579 2.50966 4.7477 2.87868 4.37868L2.17157 3.67157L1.46447 2.96447C0.661911 3.76702 0.316719 4.77752 0.155364 5.97767C-0.00212371 7.14904 0 8.64265 0 10.5H1ZM6 2.5H7V1H6H5V2.5H6ZM16 2.5H17V1H16H15V2.5H16ZM1.5 7.5V8.5H20.5V7.5V6.5H1.5V7.5Z" fill="#238468"/>
</svg>
