<svg width="414" height="560" viewBox="0 0 414 560" fill="none" xmlns="http://www.w3.org/2000/svg">
<rect x="1.5" y="1" width="411" height="558" rx="11" fill="#F3F3F3"/>
<rect x="1.5" y="1" width="411" height="558" rx="11" stroke="#8E8E8E" stroke-width="2" stroke-dasharray="10 10"/>
<path d="M176.318 274.364V286H174.909V274.364H176.318ZM183.143 274.364H184.825L188.78 284.023H188.916L192.871 274.364H194.553V286H193.234V277.159H193.121L189.484 286H188.212L184.575 277.159H184.462V286H183.143V274.364ZM201.855 286H200.378L204.651 274.364H206.105L210.378 286H208.901L205.423 276.205H205.332L201.855 286ZM202.401 281.455H208.355V282.705H202.401V281.455ZM223.598 278C223.473 277.617 223.308 277.275 223.104 276.972C222.903 276.665 222.662 276.403 222.382 276.188C222.106 275.972 221.791 275.807 221.439 275.693C221.087 275.58 220.7 275.523 220.28 275.523C219.59 275.523 218.964 275.701 218.399 276.057C217.835 276.413 217.386 276.938 217.053 277.631C216.719 278.324 216.553 279.174 216.553 280.182C216.553 281.189 216.721 282.04 217.058 282.733C217.395 283.426 217.852 283.951 218.428 284.307C219.003 284.663 219.651 284.841 220.371 284.841C221.037 284.841 221.625 284.699 222.132 284.415C222.643 284.127 223.041 283.722 223.325 283.199C223.613 282.672 223.757 282.053 223.757 281.341L224.189 281.432H220.689V280.182H225.121V281.432C225.121 282.39 224.916 283.223 224.507 283.932C224.102 284.64 223.541 285.189 222.825 285.58C222.113 285.966 221.295 286.159 220.371 286.159C219.34 286.159 218.435 285.917 217.655 285.432C216.878 284.947 216.272 284.258 215.837 283.364C215.405 282.47 215.189 281.409 215.189 280.182C215.189 279.261 215.312 278.434 215.558 277.699C215.808 276.96 216.161 276.331 216.615 275.812C217.07 275.294 217.607 274.896 218.229 274.619C218.85 274.343 219.534 274.205 220.28 274.205C220.893 274.205 221.465 274.297 221.996 274.483C222.53 274.665 223.005 274.924 223.422 275.261C223.842 275.595 224.193 275.994 224.473 276.46C224.753 276.922 224.946 277.436 225.053 278H223.598ZM231.534 286V274.364H238.557V275.614H232.943V279.545H238.193V280.795H232.943V284.75H238.648V286H231.534Z" fill="#8E8E8E"/>
</svg>
