<svg width="64" height="64" viewBox="0 0 64 64" fill="none" xmlns="http://www.w3.org/2000/svg">
<path fill-rule="evenodd" clip-rule="evenodd" d="M58.6673 32.0002C58.6673 46.7278 46.7282 58.6668 32.0007 58.6668C17.2731 58.6668 5.33398 46.7278 5.33398 32.0002C5.33398 17.2726 17.2731 5.3335 32.0007 5.3335C46.7282 5.3335 58.6673 17.2726 58.6673 32.0002ZM42.7482 23.9193C43.5292 24.7003 43.5292 25.9667 42.7482 26.7477L29.4149 40.081C28.6338 40.8621 27.3675 40.8621 26.5864 40.081L21.2531 34.7477C20.4721 33.9667 20.4721 32.7003 21.2531 31.9193C22.0342 31.1382 23.3005 31.1382 24.0815 31.9193L28.0007 35.8384L33.9602 29.8788L39.9198 23.9193C40.7008 23.1382 41.9671 23.1382 42.7482 23.9193Z" fill="#47B881"/>
</svg>
