<svg width="64" height="64" viewBox="0 0 64 64" fill="none" xmlns="http://www.w3.org/2000/svg">
<path fill-rule="evenodd" clip-rule="evenodd" d="M20.9149 10.1386C26.3248 6.93489 29.0297 5.33301 32 5.33301C34.9702 5.33301 37.6752 6.93489 43.0851 10.1386L44.9149 11.2222C50.3248 14.426 53.0297 16.0279 54.5149 18.6663C56 21.3048 56 24.5086 56 30.9161V33.0833C56 39.4908 56 42.6945 54.5149 45.333C53.0297 47.9715 50.3248 49.5734 44.9149 52.7771L43.0851 53.8607C37.6752 57.0645 34.9702 58.6663 32 58.6663C29.0297 58.6663 26.3248 57.0645 20.9149 53.8607L19.0851 52.7771C13.6752 49.5734 10.9702 47.9715 9.48512 45.333C8 42.6945 8 39.4908 8 33.0833V30.9161C8 24.5086 8 21.3048 9.48512 18.6663C10.9702 16.0279 13.6752 14.426 19.0851 11.2222L20.9149 10.1386ZM34.6667 42.6663C34.6667 44.1391 33.4728 45.333 32 45.333C30.5272 45.333 29.3333 44.1391 29.3333 42.6663C29.3333 41.1936 30.5272 39.9997 32 39.9997C33.4728 39.9997 34.6667 41.1936 34.6667 42.6663ZM32 16.6663C33.1046 16.6663 34 17.5618 34 18.6663V34.6663C34 35.7709 33.1046 36.6663 32 36.6663C30.8954 36.6663 30 35.7709 30 34.6663V18.6663C30 17.5618 30.8954 16.6663 32 16.6663Z" fill="#FF5238"/>
</svg>
