<svg width="65" height="64" viewBox="0 0 65 64" fill="none" xmlns="http://www.w3.org/2000/svg">
<path fill-rule="evenodd" clip-rule="evenodd" d="M59.1667 31.9997C59.1667 46.7273 47.2276 58.6663 32.5 58.6663C17.7724 58.6663 5.83337 46.7273 5.83337 31.9997C5.83337 17.2721 17.7724 5.33301 32.5 5.33301C47.2276 5.33301 59.1667 17.2721 59.1667 31.9997ZM43.2476 23.9188C44.0286 24.6998 44.0286 25.9662 43.2476 26.7472L29.9143 40.0806C29.1332 40.8616 27.8669 40.8616 27.0858 40.0806L21.7525 34.7472C20.9714 33.9662 20.9714 32.6998 21.7525 31.9188C22.5335 31.1377 23.7999 31.1377 24.5809 31.9188L28.5 35.8379L34.4596 29.8784L40.4192 23.9188C41.2002 23.1377 42.4665 23.1377 43.2476 23.9188Z" fill="#339E75"/>
</svg>
