<svg width="65" height="64" viewBox="0 0 65 64" fill="none" xmlns="http://www.w3.org/2000/svg">
<path fill-rule="evenodd" clip-rule="evenodd" d="M21.4149 10.1386C26.8248 6.93489 29.5297 5.33301 32.5 5.33301C35.4702 5.33301 38.1752 6.93489 43.5851 10.1386L45.4149 11.2222C50.8248 14.426 53.5297 16.0279 55.0149 18.6663C56.5 21.3048 56.5 24.5086 56.5 30.9161V33.0833C56.5 39.4908 56.5 42.6945 55.0149 45.333C53.5297 47.9715 50.8248 49.5734 45.4149 52.7771L43.5851 53.8607C38.1752 57.0645 35.4702 58.6663 32.5 58.6663C29.5297 58.6663 26.8248 57.0645 21.4149 53.8607L19.5851 52.7771C14.1752 49.5734 11.4702 47.9715 9.98512 45.333C8.5 42.6945 8.5 39.4908 8.5 33.0833V30.9161C8.5 24.5086 8.5 21.3048 9.98512 18.6663C11.4702 16.0279 14.1752 14.426 19.5851 11.2222L21.4149 10.1386ZM35.1667 42.6663C35.1667 44.1391 33.9728 45.333 32.5 45.333C31.0272 45.333 29.8333 44.1391 29.8333 42.6663C29.8333 41.1936 31.0272 39.9997 32.5 39.9997C33.9728 39.9997 35.1667 41.1936 35.1667 42.6663ZM32.5 16.6663C33.6046 16.6663 34.5 17.5618 34.5 18.6663V34.6663C34.5 35.7709 33.6046 36.6663 32.5 36.6663C31.3954 36.6663 30.5 35.7709 30.5 34.6663V18.6663C30.5 17.5618 31.3954 16.6663 32.5 16.6663Z" fill="#FF5238"/>
</svg>
