<svg width="65" height="64" viewBox="0 0 65 64" fill="none" xmlns="http://www.w3.org/2000/svg">
<path opacity="0.5" fill-rule="evenodd" clip-rule="evenodd" d="M32.4997 58.6668C47.2273 58.6668 59.1663 46.7278 59.1663 32.0002C59.1663 17.2726 47.2273 5.3335 32.4997 5.3335C17.7721 5.3335 5.83301 17.2726 5.83301 32.0002C5.83301 46.7278 17.7721 58.6668 32.4997 58.6668ZM32.4997 42.6668C38.3907 42.6668 43.1663 37.8912 43.1663 32.0002C43.1663 26.1091 38.3907 21.3335 32.4997 21.3335C26.6086 21.3335 21.833 26.1091 21.833 32.0002C21.833 37.8912 26.6086 42.6668 32.4997 42.6668Z" fill="#47B881"/>
<path d="M15.111 52.2177L26.505 40.8238C25.3938 40.0674 24.4329 39.1066 23.6764 37.9954L12.2825 49.3893C13.1535 50.4011 14.0992 51.3467 15.111 52.2177Z" fill="#47B881"/>
<path d="M12.2822 14.6107L23.6762 26.0046C24.4326 24.8934 25.3934 23.9326 26.5046 23.1762L15.1107 11.7822C14.0989 12.6532 13.1532 13.5989 12.2822 14.6107Z" fill="#47B881"/>
<path d="M38.4954 23.1764L49.8893 11.7825C50.9011 12.6535 51.8467 13.5992 52.7177 14.611L41.3238 26.005C40.5674 24.8938 39.6066 23.9329 38.4954 23.1764Z" fill="#47B881"/>
<path d="M52.7174 49.389L41.3235 37.9951C40.5671 39.1062 39.6062 40.0671 38.4951 40.8235L49.889 52.2174C50.9008 51.3464 51.8464 50.4008 52.7174 49.389Z" fill="#47B881"/>
</svg>
