<svg width="846" height="460" viewBox="0 0 846 460" fill="none" xmlns="http://www.w3.org/2000/svg">
<rect x="1" y="1" width="844" height="458" rx="7" fill="#F3F3F3"/>
<rect x="1" y="1" width="844" height="458" rx="7" stroke="#8E8E8E" stroke-width="2" stroke-dasharray="10 10"/>
<path d="M392.318 224.364V236H390.909V224.364H392.318ZM399.143 224.364H400.825L404.78 234.023H404.916L408.871 224.364H410.553V236H409.234V227.159H409.121L405.484 236H404.212L400.575 227.159H400.462V236H399.143V224.364ZM417.855 236H416.378L420.651 224.364H422.105L426.378 236H424.901L421.423 226.205H421.332L417.855 236ZM418.401 231.455H424.355V232.705H418.401V231.455ZM439.598 228C439.473 227.617 439.308 227.275 439.104 226.972C438.903 226.665 438.662 226.403 438.382 226.188C438.106 225.972 437.791 225.807 437.439 225.693C437.087 225.58 436.7 225.523 436.28 225.523C435.59 225.523 434.964 225.701 434.399 226.057C433.835 226.413 433.386 226.938 433.053 227.631C432.719 228.324 432.553 229.174 432.553 230.182C432.553 231.189 432.721 232.04 433.058 232.733C433.395 233.426 433.852 233.951 434.428 234.307C435.003 234.663 435.651 234.841 436.371 234.841C437.037 234.841 437.625 234.699 438.132 234.415C438.643 234.127 439.041 233.722 439.325 233.199C439.613 232.672 439.757 232.053 439.757 231.341L440.189 231.432H436.689V230.182H441.121V231.432C441.121 232.39 440.916 233.223 440.507 233.932C440.102 234.64 439.541 235.189 438.825 235.58C438.113 235.966 437.295 236.159 436.371 236.159C435.34 236.159 434.435 235.917 433.655 235.432C432.878 234.947 432.272 234.258 431.837 233.364C431.405 232.47 431.189 231.409 431.189 230.182C431.189 229.261 431.312 228.434 431.558 227.699C431.808 226.96 432.161 226.331 432.615 225.812C433.07 225.294 433.607 224.896 434.229 224.619C434.85 224.343 435.534 224.205 436.28 224.205C436.893 224.205 437.465 224.297 437.996 224.483C438.53 224.665 439.005 224.924 439.422 225.261C439.842 225.595 440.193 225.994 440.473 226.46C440.753 226.922 440.946 227.436 441.053 228H439.598ZM447.534 236V224.364H454.557V225.614H448.943V229.545H454.193V230.795H448.943V234.75H454.648V236H447.534Z" fill="#8E8E8E"/>
</svg>
