<svg width="27" height="31" viewBox="0 0 27 31" fill="none" xmlns="http://www.w3.org/2000/svg">
<g clip-path="url(#clip0_1202_3343)">
<path d="M21.9678 16.308C21.9708 18.98 23.6578 21.391 26.2518 22.432C25.7481 23.9783 24.9956 25.432 24.0238 26.736C22.7108 28.599 21.3338 30.418 19.1508 30.452C17.0278 30.498 16.3148 29.267 13.8808 29.267C11.4228 29.267 10.6628 30.418 8.62781 30.498C6.54781 30.571 4.95781 28.51 3.59781 26.666C0.877805 22.898 -1.23819 16.048 1.59981 11.387C2.93181 9.115 5.42481 7.674 8.16381 7.59C10.2458 7.55 12.1798 8.924 13.4598 8.924C14.7158 8.924 17.1048 7.28 19.5688 7.525C21.9108 7.595 24.0818 8.708 25.4258 10.528C23.3058 11.765 21.9998 13.947 21.9678 16.308ZM17.7038 5.366C17.1762 6.0373 16.5017 6.57872 15.7322 6.94865C14.9627 7.31859 14.1186 7.50721 13.2648 7.5C13.1539 5.79279 13.7172 4.11021 14.8338 2.814C15.953 1.51247 17.5253 0.685238 19.2318 0.5C19.3659 2.258 18.8188 4.00026 17.7038 5.366Z" fill="white"/>
</g>
<defs>
<clipPath id="clip0_1202_3343">
<rect width="26" height="30" fill="white" transform="translate(0.251953 0.5)"/>
</clipPath>
</defs>
</svg>
