<svg width="40" height="40" viewBox="0 0 40 40" fill="none" xmlns="http://www.w3.org/2000/svg">
<rect width="40" height="40" rx="20" fill="#339E75"/>
<path fill-rule="evenodd" clip-rule="evenodd" d="M21.7285 11.0402C25.4219 11.7512 28.3351 14.6975 28.9957 18.4031H32C31.2881 13.0594 27.0622 8.80199 21.7285 8.03413V11.0402ZM28.9957 21.5969C28.3351 25.3025 25.4219 28.2488 21.7285 28.9598V31.9659C27.0593 31.198 31.2881 26.9378 32 21.5969H28.9957ZM18.5306 29.0053C14.7148 28.3854 11.6792 25.3878 11.0043 21.5969H8C8.7233 27.026 13.0774 31.3374 18.5306 32V29.0053ZM11.0043 18.4031C11.6792 14.6093 14.7148 11.6146 18.5306 10.9947V8C13.0774 8.66264 8.7233 12.974 8 18.4031H11.0043Z" fill="white"/>
</svg>
