<svg width="65" height="64" viewBox="0 0 65 64" fill="none" xmlns="http://www.w3.org/2000/svg">
<path opacity="0.5" d="M5.83301 30C5.83301 22.268 11.2056 16 17.833 16C24.4604 16 29.833 22.268 29.833 30V53.3333H11.7865C8.49848 53.3333 5.83301 50.2236 5.83301 46.3876V30Z" fill="#47B881"/>
<path opacity="0.8" d="M29.833 30V53.3333H37.833H40.4997H53.2813C56.5315 53.3333 59.1663 50.2594 59.1663 46.4674V30C59.1663 22.268 53.7938 16 47.1663 16H17.833C24.4604 16 29.833 22.268 29.833 30Z" fill="#47B881"/>
<path d="M25.833 53.3335V58.6668C25.833 59.7714 26.7284 60.6668 27.833 60.6668C28.9376 60.6668 29.833 59.7714 29.833 58.6668V53.3335H25.833Z" fill="#47B881"/>
<path d="M40.4997 53.3335H36.4997V58.6668C36.4997 59.7714 37.3951 60.6668 38.4997 60.6668C39.6042 60.6668 40.4997 59.7714 40.4997 58.6668V53.3335Z" fill="#47B881"/>
<path fill-rule="evenodd" clip-rule="evenodd" d="M11.833 42.6665C11.833 41.5619 12.7284 40.6665 13.833 40.6665H21.833C22.9376 40.6665 23.833 41.5619 23.833 42.6665C23.833 43.7711 22.9376 44.6665 21.833 44.6665H13.833C12.7284 44.6665 11.833 43.7711 11.833 42.6665Z" fill="#47B881"/>
<path fill-rule="evenodd" clip-rule="evenodd" d="M46.8593 17.5594L47.5421 17.4227C48.6508 17.2007 49.7971 17.3067 50.8506 17.7285C52.6914 18.4656 54.7045 18.6033 56.6225 18.1233L56.7864 18.0823C58.1828 17.7328 59.167 16.4348 59.167 14.9424V9.26107C59.167 7.29357 57.3959 5.84402 55.5548 6.30473C54.4976 6.5693 53.3879 6.49339 52.3732 6.08712L52.1784 6.00909C50.4796 5.32892 48.6312 5.15805 46.8435 5.51593L45.647 5.75546C44.2074 6.04368 43.167 7.35274 43.167 8.87605V27.4154C43.167 28.4747 43.9935 29.3335 45.0131 29.3335C46.0327 29.3335 46.8593 28.4747 46.8593 27.4154V17.5594Z" fill="#47B881"/>
</svg>
