<svg width="406" height="220" viewBox="0 0 406 220" fill="none" xmlns="http://www.w3.org/2000/svg">
<rect x="1.33398" y="1" width="403.333" height="218" rx="11" fill="#F3F3F3"/>
<rect x="1.33398" y="1" width="403.333" height="218" rx="11" stroke="#8E8E8E" stroke-width="2" stroke-dasharray="10 10"/>
<path d="M172.318 104.364V116H170.909V104.364H172.318ZM179.143 104.364H180.825L184.78 114.023H184.916L188.871 104.364H190.553V116H189.234V107.159H189.121L185.484 116H184.212L180.575 107.159H180.462V116H179.143V104.364ZM197.855 116H196.378L200.651 104.364H202.105L206.378 116H204.901L201.423 106.205H201.332L197.855 116ZM198.401 111.455H204.355V112.705H198.401V111.455ZM219.598 108C219.473 107.617 219.308 107.275 219.104 106.972C218.903 106.665 218.662 106.403 218.382 106.188C218.106 105.972 217.791 105.807 217.439 105.693C217.087 105.58 216.7 105.523 216.28 105.523C215.59 105.523 214.964 105.701 214.399 106.057C213.835 106.413 213.386 106.938 213.053 107.631C212.719 108.324 212.553 109.174 212.553 110.182C212.553 111.189 212.721 112.04 213.058 112.733C213.395 113.426 213.852 113.951 214.428 114.307C215.003 114.663 215.651 114.841 216.371 114.841C217.037 114.841 217.625 114.699 218.132 114.415C218.643 114.127 219.041 113.722 219.325 113.199C219.613 112.672 219.757 112.053 219.757 111.341L220.189 111.432H216.689V110.182H221.121V111.432C221.121 112.39 220.916 113.223 220.507 113.932C220.102 114.64 219.541 115.189 218.825 115.58C218.113 115.966 217.295 116.159 216.371 116.159C215.34 116.159 214.435 115.917 213.655 115.432C212.878 114.947 212.272 114.258 211.837 113.364C211.405 112.47 211.189 111.409 211.189 110.182C211.189 109.261 211.312 108.434 211.558 107.699C211.808 106.96 212.161 106.331 212.615 105.812C213.07 105.294 213.607 104.896 214.229 104.619C214.85 104.343 215.534 104.205 216.28 104.205C216.893 104.205 217.465 104.297 217.996 104.483C218.53 104.665 219.005 104.924 219.422 105.261C219.842 105.595 220.193 105.994 220.473 106.46C220.753 106.922 220.946 107.436 221.053 108H219.598ZM227.534 116V104.364H234.557V105.614H228.943V109.545H234.193V110.795H228.943V114.75H234.648V116H227.534Z" fill="#8E8E8E"/>
</svg>
