<svg width="61" height="79" viewBox="0 0 61 79" fill="none" xmlns="http://www.w3.org/2000/svg">
<path d="M30.5 78.1248C25.0793 73.5011 20.0549 68.4322 15.4791 62.9709C8.61249 54.7696 0.458317 42.5555 0.458317 30.9165C0.452231 18.7605 7.77237 7.79895 19.0029 3.14682C30.2334 -1.50532 43.1607 1.06898 51.7523 9.66844C57.4021 15.2931 60.567 22.9442 60.5418 30.9165C60.5418 42.5555 52.3875 54.7696 45.5208 62.9709C40.9451 68.4322 35.9206 73.5011 30.5 78.1248ZM30.5 18.0415C25.9002 18.0415 21.6498 20.4954 19.3499 24.479C17.05 28.4625 17.05 33.3704 19.3499 37.354C21.6498 41.3375 25.9002 43.7915 30.5 43.7915C37.6107 43.7915 43.375 38.0271 43.375 30.9165C43.375 23.8058 37.6107 18.0415 30.5 18.0415Z" fill="#339E75"/>
</svg>
