<svg width="534" height="350" viewBox="0 0 534 350" fill="none" xmlns="http://www.w3.org/2000/svg">
<rect x="1" y="1" width="532" height="348" rx="7" fill="#F3F3F3"/>
<rect x="1" y="1" width="532" height="348" rx="7" stroke="#8E8E8E" stroke-width="2" stroke-dasharray="10 10"/>
<path d="M236.318 169.364V181H234.909V169.364H236.318ZM243.143 169.364H244.825L248.78 179.023H248.916L252.871 169.364H254.553V181H253.234V172.159H253.121L249.484 181H248.212L244.575 172.159H244.462V181H243.143V169.364ZM261.855 181H260.378L264.651 169.364H266.105L270.378 181H268.901L265.423 171.205H265.332L261.855 181ZM262.401 176.455H268.355V177.705H262.401V176.455ZM283.598 173C283.473 172.617 283.308 172.275 283.104 171.972C282.903 171.665 282.662 171.403 282.382 171.188C282.106 170.972 281.791 170.807 281.439 170.693C281.087 170.58 280.7 170.523 280.28 170.523C279.59 170.523 278.964 170.701 278.399 171.057C277.835 171.413 277.386 171.938 277.053 172.631C276.719 173.324 276.553 174.174 276.553 175.182C276.553 176.189 276.721 177.04 277.058 177.733C277.395 178.426 277.852 178.951 278.428 179.307C279.003 179.663 279.651 179.841 280.371 179.841C281.037 179.841 281.625 179.699 282.132 179.415C282.643 179.127 283.041 178.722 283.325 178.199C283.613 177.672 283.757 177.053 283.757 176.341L284.189 176.432H280.689V175.182H285.121V176.432C285.121 177.39 284.916 178.223 284.507 178.932C284.102 179.64 283.541 180.189 282.825 180.58C282.113 180.966 281.295 181.159 280.371 181.159C279.34 181.159 278.435 180.917 277.655 180.432C276.878 179.947 276.272 179.258 275.837 178.364C275.405 177.47 275.189 176.409 275.189 175.182C275.189 174.261 275.312 173.434 275.558 172.699C275.808 171.96 276.161 171.331 276.615 170.812C277.07 170.294 277.607 169.896 278.229 169.619C278.85 169.343 279.534 169.205 280.28 169.205C280.893 169.205 281.465 169.297 281.996 169.483C282.53 169.665 283.005 169.924 283.422 170.261C283.842 170.595 284.193 170.994 284.473 171.46C284.753 171.922 284.946 172.436 285.053 173H283.598ZM291.534 181V169.364H298.557V170.614H292.943V174.545H298.193V175.795H292.943V179.75H298.648V181H291.534Z" fill="#8E8E8E"/>
</svg>
