<svg width="190" height="190" viewBox="0 0 190 190" fill="none" xmlns="http://www.w3.org/2000/svg">
<g clip-path="url(#clip0_1045_211074)">
<path d="M3.87755 0H0V3.87755H3.87755V0Z" fill="black"/>
<path d="M7.75499 0H3.87744V3.87755H7.75499V0Z" fill="black"/>
<path d="M11.6327 0H7.75513V3.87755H11.6327V0Z" fill="black"/>
<path d="M15.5101 0H11.6326V3.87755H15.5101V0Z" fill="black"/>
<path d="M19.3878 0H15.5103V3.87755H19.3878V0Z" fill="black"/>
<path d="M23.2652 0H19.3877V3.87755H23.2652V0Z" fill="black"/>
<path d="M27.1429 0H23.2654V3.87755H27.1429V0Z" fill="black"/>
<path d="M34.8981 0H31.0205V3.87755H34.8981V0Z" fill="black"/>
<path d="M42.6529 0H38.7754V3.87755H42.6529V0Z" fill="black"/>
<path d="M50.4081 0H46.5305V3.87755H50.4081V0Z" fill="black"/>
<path d="M54.2858 0H50.4082V3.87755H54.2858V0Z" fill="black"/>
<path d="M65.9183 0H62.0408V3.87755H65.9183V0Z" fill="black"/>
<path d="M69.796 0H65.9185V3.87755H69.796V0Z" fill="black"/>
<path d="M81.4286 0H77.551V3.87755H81.4286V0Z" fill="black"/>
<path d="M85.306 0H81.4285V3.87755H85.306V0Z" fill="black"/>
<path d="M96.9388 0H93.0613V3.87755H96.9388V0Z" fill="black"/>
<path d="M104.694 0H100.816V3.87755H104.694V0Z" fill="black"/>
<path d="M116.327 0H112.449V3.87755H116.327V0Z" fill="black"/>
<path d="M120.204 0H116.326V3.87755H120.204V0Z" fill="black"/>
<path d="M135.714 0H131.837V3.87755H135.714V0Z" fill="black"/>
<path d="M147.347 0H143.469V3.87755H147.347V0Z" fill="black"/>
<path d="M158.98 0H155.102V3.87755H158.98V0Z" fill="black"/>
<path d="M166.735 0H162.857V3.87755H166.735V0Z" fill="black"/>
<path d="M170.612 0H166.735V3.87755H170.612V0Z" fill="black"/>
<path d="M174.49 0H170.612V3.87755H174.49V0Z" fill="black"/>
<path d="M178.367 0H174.49V3.87755H178.367V0Z" fill="black"/>
<path d="M182.245 0H178.367V3.87755H182.245V0Z" fill="black"/>
<path d="M186.122 0H182.245V3.87755H186.122V0Z" fill="black"/>
<path d="M190 0H186.123V3.87755H190V0Z" fill="black"/>
<path d="M3.87755 3.87756H0V7.75511H3.87755V3.87756Z" fill="black"/>
<path d="M27.1429 3.87756H23.2654V7.75511H27.1429V3.87756Z" fill="black"/>
<path d="M34.8981 3.87756H31.0205V7.75511H34.8981V3.87756Z" fill="black"/>
<path d="M42.6529 3.87756H38.7754V7.75511H42.6529V3.87756Z" fill="black"/>
<path d="M46.5306 3.87756H42.6531V7.75511H46.5306V3.87756Z" fill="black"/>
<path d="M50.4081 3.87756H46.5305V7.75511H50.4081V3.87756Z" fill="black"/>
<path d="M65.9183 3.87756H62.0408V7.75511H65.9183V3.87756Z" fill="black"/>
<path d="M81.4286 3.87756H77.551V7.75511H81.4286V3.87756Z" fill="black"/>
<path d="M85.306 3.87756H81.4285V7.75511H85.306V3.87756Z" fill="black"/>
<path d="M89.1837 3.87756H85.3062V7.75511H89.1837V3.87756Z" fill="black"/>
<path d="M93.0611 3.87756H89.1836V7.75511H93.0611V3.87756Z" fill="black"/>
<path d="M96.9388 3.87756H93.0613V7.75511H96.9388V3.87756Z" fill="black"/>
<path d="M100.816 3.87756H96.9387V7.75511H100.816V3.87756Z" fill="black"/>
<path d="M112.449 3.87756H108.572V7.75511H112.449V3.87756Z" fill="black"/>
<path d="M120.204 3.87756H116.326V7.75511H120.204V3.87756Z" fill="black"/>
<path d="M124.082 3.87756H120.204V7.75511H124.082V3.87756Z" fill="black"/>
<path d="M139.592 3.87756H135.714V7.75511H139.592V3.87756Z" fill="black"/>
<path d="M143.469 3.87756H139.592V7.75511H143.469V3.87756Z" fill="black"/>
<path d="M147.347 3.87756H143.469V7.75511H147.347V3.87756Z" fill="black"/>
<path d="M151.224 3.87756H147.347V7.75511H151.224V3.87756Z" fill="black"/>
<path d="M155.102 3.87756H151.225V7.75511H155.102V3.87756Z" fill="black"/>
<path d="M158.98 3.87756H155.102V7.75511H158.98V3.87756Z" fill="black"/>
<path d="M166.735 3.87756H162.857V7.75511H166.735V3.87756Z" fill="black"/>
<path d="M190 3.87756H186.123V7.75511H190V3.87756Z" fill="black"/>
<path d="M3.87755 7.75513H0V11.6327H3.87755V7.75513Z" fill="black"/>
<path d="M11.6327 7.75513H7.75513V11.6327H11.6327V7.75513Z" fill="black"/>
<path d="M15.5101 7.75513H11.6326V11.6327H15.5101V7.75513Z" fill="black"/>
<path d="M19.3878 7.75513H15.5103V11.6327H19.3878V7.75513Z" fill="black"/>
<path d="M27.1429 7.75513H23.2654V11.6327H27.1429V7.75513Z" fill="black"/>
<path d="M34.8981 7.75513H31.0205V11.6327H34.8981V7.75513Z" fill="black"/>
<path d="M42.6529 7.75513H38.7754V11.6327H42.6529V7.75513Z" fill="black"/>
<path d="M46.5306 7.75513H42.6531V11.6327H46.5306V7.75513Z" fill="black"/>
<path d="M50.4081 7.75513H46.5305V11.6327H50.4081V7.75513Z" fill="black"/>
<path d="M54.2858 7.75513H50.4082V11.6327H54.2858V7.75513Z" fill="black"/>
<path d="M62.0409 7.75513H58.1633V11.6327H62.0409V7.75513Z" fill="black"/>
<path d="M65.9183 7.75513H62.0408V11.6327H65.9183V7.75513Z" fill="black"/>
<path d="M73.6734 7.75513H69.7959V11.6327H73.6734V7.75513Z" fill="black"/>
<path d="M81.4286 7.75513H77.551V11.6327H81.4286V7.75513Z" fill="black"/>
<path d="M85.306 7.75513H81.4285V11.6327H85.306V7.75513Z" fill="black"/>
<path d="M93.0611 7.75513H89.1836V11.6327H93.0611V7.75513Z" fill="black"/>
<path d="M100.816 7.75513H96.9387V11.6327H100.816V7.75513Z" fill="black"/>
<path d="M104.694 7.75513H100.816V11.6327H104.694V7.75513Z" fill="black"/>
<path d="M116.327 7.75513H112.449V11.6327H116.327V7.75513Z" fill="black"/>
<path d="M143.469 7.75513H139.592V11.6327H143.469V7.75513Z" fill="black"/>
<path d="M155.102 7.75513H151.225V11.6327H155.102V7.75513Z" fill="black"/>
<path d="M158.98 7.75513H155.102V11.6327H158.98V7.75513Z" fill="black"/>
<path d="M166.735 7.75513H162.857V11.6327H166.735V7.75513Z" fill="black"/>
<path d="M174.49 7.75513H170.612V11.6327H174.49V7.75513Z" fill="black"/>
<path d="M178.367 7.75513H174.49V11.6327H178.367V7.75513Z" fill="black"/>
<path d="M182.245 7.75513H178.367V11.6327H182.245V7.75513Z" fill="black"/>
<path d="M190 7.75513H186.123V11.6327H190V7.75513Z" fill="black"/>
<path d="M3.87755 11.6327H0V15.5102H3.87755V11.6327Z" fill="black"/>
<path d="M11.6327 11.6327H7.75513V15.5102H11.6327V11.6327Z" fill="black"/>
<path d="M15.5101 11.6327H11.6326V15.5102H15.5101V11.6327Z" fill="black"/>
<path d="M19.3878 11.6327H15.5103V15.5102H19.3878V11.6327Z" fill="black"/>
<path d="M27.1429 11.6327H23.2654V15.5102H27.1429V11.6327Z" fill="black"/>
<path d="M38.7755 11.6327H34.8979V15.5102H38.7755V11.6327Z" fill="black"/>
<path d="M42.6529 11.6327H38.7754V15.5102H42.6529V11.6327Z" fill="black"/>
<path d="M50.4081 11.6327H46.5305V15.5102H50.4081V11.6327Z" fill="black"/>
<path d="M58.1632 11.6327H54.2856V15.5102H58.1632V11.6327Z" fill="black"/>
<path d="M62.0409 11.6327H58.1633V15.5102H62.0409V11.6327Z" fill="black"/>
<path d="M65.9183 11.6327H62.0408V15.5102H65.9183V11.6327Z" fill="black"/>
<path d="M85.306 11.6327H81.4285V15.5102H85.306V11.6327Z" fill="black"/>
<path d="M89.1837 11.6327H85.3062V15.5102H89.1837V11.6327Z" fill="black"/>
<path d="M93.0611 11.6327H89.1836V15.5102H93.0611V11.6327Z" fill="black"/>
<path d="M96.9388 11.6327H93.0613V15.5102H96.9388V11.6327Z" fill="black"/>
<path d="M100.816 11.6327H96.9387V15.5102H100.816V11.6327Z" fill="black"/>
<path d="M108.571 11.6327H104.694V15.5102H108.571V11.6327Z" fill="black"/>
<path d="M112.449 11.6327H108.572V15.5102H112.449V11.6327Z" fill="black"/>
<path d="M116.327 11.6327H112.449V15.5102H116.327V11.6327Z" fill="black"/>
<path d="M120.204 11.6327H116.326V15.5102H120.204V11.6327Z" fill="black"/>
<path d="M124.082 11.6327H120.204V15.5102H124.082V11.6327Z" fill="black"/>
<path d="M131.837 11.6327H127.959V15.5102H131.837V11.6327Z" fill="black"/>
<path d="M135.714 11.6327H131.837V15.5102H135.714V11.6327Z" fill="black"/>
<path d="M143.469 11.6327H139.592V15.5102H143.469V11.6327Z" fill="black"/>
<path d="M155.102 11.6327H151.225V15.5102H155.102V11.6327Z" fill="black"/>
<path d="M166.735 11.6327H162.857V15.5102H166.735V11.6327Z" fill="black"/>
<path d="M174.49 11.6327H170.612V15.5102H174.49V11.6327Z" fill="black"/>
<path d="M178.367 11.6327H174.49V15.5102H178.367V11.6327Z" fill="black"/>
<path d="M182.245 11.6327H178.367V15.5102H182.245V11.6327Z" fill="black"/>
<path d="M190 11.6327H186.123V15.5102H190V11.6327Z" fill="black"/>
<path d="M3.87755 15.5103H0V19.3878H3.87755V15.5103Z" fill="black"/>
<path d="M11.6327 15.5103H7.75513V19.3878H11.6327V15.5103Z" fill="black"/>
<path d="M15.5101 15.5103H11.6326V19.3878H15.5101V15.5103Z" fill="black"/>
<path d="M19.3878 15.5103H15.5103V19.3878H19.3878V15.5103Z" fill="black"/>
<path d="M27.1429 15.5103H23.2654V19.3878H27.1429V15.5103Z" fill="black"/>
<path d="M38.7755 15.5103H34.8979V19.3878H38.7755V15.5103Z" fill="black"/>
<path d="M46.5306 15.5103H42.6531V19.3878H46.5306V15.5103Z" fill="black"/>
<path d="M73.6734 15.5103H69.7959V19.3878H73.6734V15.5103Z" fill="black"/>
<path d="M77.5511 15.5103H73.6736V19.3878H77.5511V15.5103Z" fill="black"/>
<path d="M81.4286 15.5103H77.551V19.3878H81.4286V15.5103Z" fill="black"/>
<path d="M85.306 15.5103H81.4285V19.3878H85.306V15.5103Z" fill="black"/>
<path d="M89.1837 15.5103H85.3062V19.3878H89.1837V15.5103Z" fill="black"/>
<path d="M93.0611 15.5103H89.1836V19.3878H93.0611V15.5103Z" fill="black"/>
<path d="M96.9388 15.5103H93.0613V19.3878H96.9388V15.5103Z" fill="black"/>
<path d="M100.816 15.5103H96.9387V19.3878H100.816V15.5103Z" fill="black"/>
<path d="M104.694 15.5103H100.816V19.3878H104.694V15.5103Z" fill="black"/>
<path d="M120.204 15.5103H116.326V19.3878H120.204V15.5103Z" fill="black"/>
<path d="M124.082 15.5103H120.204V19.3878H124.082V15.5103Z" fill="black"/>
<path d="M127.959 15.5103H124.082V19.3878H127.959V15.5103Z" fill="black"/>
<path d="M139.592 15.5103H135.714V19.3878H139.592V15.5103Z" fill="black"/>
<path d="M166.735 15.5103H162.857V19.3878H166.735V15.5103Z" fill="black"/>
<path d="M174.49 15.5103H170.612V19.3878H174.49V15.5103Z" fill="black"/>
<path d="M178.367 15.5103H174.49V19.3878H178.367V15.5103Z" fill="black"/>
<path d="M182.245 15.5103H178.367V19.3878H182.245V15.5103Z" fill="black"/>
<path d="M190 15.5103H186.123V19.3878H190V15.5103Z" fill="black"/>
<path d="M3.87755 19.3877H0V23.2652H3.87755V19.3877Z" fill="black"/>
<path d="M27.1429 19.3877H23.2654V23.2652H27.1429V19.3877Z" fill="black"/>
<path d="M34.8981 19.3877H31.0205V23.2652H34.8981V19.3877Z" fill="black"/>
<path d="M42.6529 19.3877H38.7754V23.2652H42.6529V19.3877Z" fill="black"/>
<path d="M46.5306 19.3877H42.6531V23.2652H46.5306V19.3877Z" fill="black"/>
<path d="M50.4081 19.3877H46.5305V23.2652H50.4081V19.3877Z" fill="black"/>
<path d="M69.796 19.3877H65.9185V23.2652H69.796V19.3877Z" fill="black"/>
<path d="M73.6734 19.3877H69.7959V23.2652H73.6734V19.3877Z" fill="black"/>
<path d="M77.5511 19.3877H73.6736V23.2652H77.5511V19.3877Z" fill="black"/>
<path d="M81.4286 19.3877H77.551V23.2652H81.4286V19.3877Z" fill="black"/>
<path d="M85.306 19.3877H81.4285V23.2652H85.306V19.3877Z" fill="black"/>
<path d="M89.1837 19.3877H85.3062V23.2652H89.1837V19.3877Z" fill="black"/>
<path d="M104.694 19.3877H100.816V23.2652H104.694V19.3877Z" fill="black"/>
<path d="M112.449 19.3877H108.572V23.2652H112.449V19.3877Z" fill="black"/>
<path d="M124.082 19.3877H120.204V23.2652H124.082V19.3877Z" fill="black"/>
<path d="M139.592 19.3877H135.714V23.2652H139.592V19.3877Z" fill="black"/>
<path d="M143.469 19.3877H139.592V23.2652H143.469V19.3877Z" fill="black"/>
<path d="M151.224 19.3877H147.347V23.2652H151.224V19.3877Z" fill="black"/>
<path d="M166.735 19.3877H162.857V23.2652H166.735V19.3877Z" fill="black"/>
<path d="M190 19.3877H186.123V23.2652H190V19.3877Z" fill="black"/>
<path d="M3.87755 23.2653H0V27.1428H3.87755V23.2653Z" fill="black"/>
<path d="M7.75499 23.2653H3.87744V27.1428H7.75499V23.2653Z" fill="black"/>
<path d="M11.6327 23.2653H7.75513V27.1428H11.6327V23.2653Z" fill="black"/>
<path d="M15.5101 23.2653H11.6326V27.1428H15.5101V23.2653Z" fill="black"/>
<path d="M19.3878 23.2653H15.5103V27.1428H19.3878V23.2653Z" fill="black"/>
<path d="M23.2652 23.2653H19.3877V27.1428H23.2652V23.2653Z" fill="black"/>
<path d="M27.1429 23.2653H23.2654V27.1428H27.1429V23.2653Z" fill="black"/>
<path d="M34.8981 23.2653H31.0205V27.1428H34.8981V23.2653Z" fill="black"/>
<path d="M42.6529 23.2653H38.7754V27.1428H42.6529V23.2653Z" fill="black"/>
<path d="M50.4081 23.2653H46.5305V27.1428H50.4081V23.2653Z" fill="black"/>
<path d="M58.1632 23.2653H54.2856V27.1428H58.1632V23.2653Z" fill="black"/>
<path d="M65.9183 23.2653H62.0408V27.1428H65.9183V23.2653Z" fill="black"/>
<path d="M73.6734 23.2653H69.7959V27.1428H73.6734V23.2653Z" fill="black"/>
<path d="M81.4286 23.2653H77.551V27.1428H81.4286V23.2653Z" fill="black"/>
<path d="M89.1837 23.2653H85.3062V27.1428H89.1837V23.2653Z" fill="black"/>
<path d="M96.9388 23.2653H93.0613V27.1428H96.9388V23.2653Z" fill="black"/>
<path d="M104.694 23.2653H100.816V27.1428H104.694V23.2653Z" fill="black"/>
<path d="M112.449 23.2653H108.572V27.1428H112.449V23.2653Z" fill="black"/>
<path d="M120.204 23.2653H116.326V27.1428H120.204V23.2653Z" fill="black"/>
<path d="M127.959 23.2653H124.082V27.1428H127.959V23.2653Z" fill="black"/>
<path d="M135.714 23.2653H131.837V27.1428H135.714V23.2653Z" fill="black"/>
<path d="M143.469 23.2653H139.592V27.1428H143.469V23.2653Z" fill="black"/>
<path d="M151.224 23.2653H147.347V27.1428H151.224V23.2653Z" fill="black"/>
<path d="M158.98 23.2653H155.102V27.1428H158.98V23.2653Z" fill="black"/>
<path d="M166.735 23.2653H162.857V27.1428H166.735V23.2653Z" fill="black"/>
<path d="M170.612 23.2653H166.735V27.1428H170.612V23.2653Z" fill="black"/>
<path d="M174.49 23.2653H170.612V27.1428H174.49V23.2653Z" fill="black"/>
<path d="M178.367 23.2653H174.49V27.1428H178.367V23.2653Z" fill="black"/>
<path d="M182.245 23.2653H178.367V27.1428H182.245V23.2653Z" fill="black"/>
<path d="M186.122 23.2653H182.245V27.1428H186.122V23.2653Z" fill="black"/>
<path d="M190 23.2653H186.123V27.1428H190V23.2653Z" fill="black"/>
<path d="M34.8981 27.1428H31.0205V31.0204H34.8981V27.1428Z" fill="black"/>
<path d="M46.5306 27.1428H42.6531V31.0204H46.5306V27.1428Z" fill="black"/>
<path d="M65.9183 27.1428H62.0408V31.0204H65.9183V27.1428Z" fill="black"/>
<path d="M89.1837 27.1428H85.3062V31.0204H89.1837V27.1428Z" fill="black"/>
<path d="M104.694 27.1428H100.816V31.0204H104.694V27.1428Z" fill="black"/>
<path d="M112.449 27.1428H108.572V31.0204H112.449V27.1428Z" fill="black"/>
<path d="M120.204 27.1428H116.326V31.0204H120.204V27.1428Z" fill="black"/>
<path d="M124.082 27.1428H120.204V31.0204H124.082V27.1428Z" fill="black"/>
<path d="M127.959 27.1428H124.082V31.0204H127.959V27.1428Z" fill="black"/>
<path d="M143.469 27.1428H139.592V31.0204H143.469V27.1428Z" fill="black"/>
<path d="M147.347 27.1428H143.469V31.0204H147.347V27.1428Z" fill="black"/>
<path d="M11.6327 31.0204H7.75513V34.8979H11.6327V31.0204Z" fill="black"/>
<path d="M15.5101 31.0204H11.6326V34.8979H15.5101V31.0204Z" fill="black"/>
<path d="M19.3878 31.0204H15.5103V34.8979H19.3878V31.0204Z" fill="black"/>
<path d="M27.1429 31.0204H23.2654V34.8979H27.1429V31.0204Z" fill="black"/>
<path d="M34.8981 31.0204H31.0205V34.8979H34.8981V31.0204Z" fill="black"/>
<path d="M46.5306 31.0204H42.6531V34.8979H46.5306V31.0204Z" fill="black"/>
<path d="M54.2858 31.0204H50.4082V34.8979H54.2858V31.0204Z" fill="black"/>
<path d="M58.1632 31.0204H54.2856V34.8979H58.1632V31.0204Z" fill="black"/>
<path d="M62.0409 31.0204H58.1633V34.8979H62.0409V31.0204Z" fill="black"/>
<path d="M69.796 31.0204H65.9185V34.8979H69.796V31.0204Z" fill="black"/>
<path d="M73.6734 31.0204H69.7959V34.8979H73.6734V31.0204Z" fill="black"/>
<path d="M77.5511 31.0204H73.6736V34.8979H77.5511V31.0204Z" fill="black"/>
<path d="M81.4286 31.0204H77.551V34.8979H81.4286V31.0204Z" fill="black"/>
<path d="M89.1837 31.0204H85.3062V34.8979H89.1837V31.0204Z" fill="black"/>
<path d="M93.0611 31.0204H89.1836V34.8979H93.0611V31.0204Z" fill="black"/>
<path d="M96.9388 31.0204H93.0613V34.8979H96.9388V31.0204Z" fill="black"/>
<path d="M100.816 31.0204H96.9387V34.8979H100.816V31.0204Z" fill="black"/>
<path d="M104.694 31.0204H100.816V34.8979H104.694V31.0204Z" fill="black"/>
<path d="M112.449 31.0204H108.572V34.8979H112.449V31.0204Z" fill="black"/>
<path d="M116.327 31.0204H112.449V34.8979H116.327V31.0204Z" fill="black"/>
<path d="M124.082 31.0204H120.204V34.8979H124.082V31.0204Z" fill="black"/>
<path d="M131.837 31.0204H127.959V34.8979H131.837V31.0204Z" fill="black"/>
<path d="M135.714 31.0204H131.837V34.8979H135.714V31.0204Z" fill="black"/>
<path d="M139.592 31.0204H135.714V34.8979H139.592V31.0204Z" fill="black"/>
<path d="M147.347 31.0204H143.469V34.8979H147.347V31.0204Z" fill="black"/>
<path d="M151.224 31.0204H147.347V34.8979H151.224V31.0204Z" fill="black"/>
<path d="M162.857 31.0204H158.979V34.8979H162.857V31.0204Z" fill="black"/>
<path d="M166.735 31.0204H162.857V34.8979H166.735V31.0204Z" fill="black"/>
<path d="M170.612 31.0204H166.735V34.8979H170.612V31.0204Z" fill="black"/>
<path d="M182.245 31.0204H178.367V34.8979H182.245V31.0204Z" fill="black"/>
<path d="M186.122 31.0204H182.245V34.8979H186.122V31.0204Z" fill="black"/>
<path d="M190 31.0204H186.123V34.8979H190V31.0204Z" fill="black"/>
<path d="M3.87755 34.8979H0V38.7755H3.87755V34.8979Z" fill="black"/>
<path d="M7.75499 34.8979H3.87744V38.7755H7.75499V34.8979Z" fill="black"/>
<path d="M11.6327 34.8979H7.75513V38.7755H11.6327V34.8979Z" fill="black"/>
<path d="M23.2652 34.8979H19.3877V38.7755H23.2652V34.8979Z" fill="black"/>
<path d="M31.0204 34.8979H27.1428V38.7755H31.0204V34.8979Z" fill="black"/>
<path d="M34.8981 34.8979H31.0205V38.7755H34.8981V34.8979Z" fill="black"/>
<path d="M42.6529 34.8979H38.7754V38.7755H42.6529V34.8979Z" fill="black"/>
<path d="M46.5306 34.8979H42.6531V38.7755H46.5306V34.8979Z" fill="black"/>
<path d="M50.4081 34.8979H46.5305V38.7755H50.4081V34.8979Z" fill="black"/>
<path d="M54.2858 34.8979H50.4082V38.7755H54.2858V34.8979Z" fill="black"/>
<path d="M62.0409 34.8979H58.1633V38.7755H62.0409V34.8979Z" fill="black"/>
<path d="M65.9183 34.8979H62.0408V38.7755H65.9183V34.8979Z" fill="black"/>
<path d="M73.6734 34.8979H69.7959V38.7755H73.6734V34.8979Z" fill="black"/>
<path d="M77.5511 34.8979H73.6736V38.7755H77.5511V34.8979Z" fill="black"/>
<path d="M81.4286 34.8979H77.551V38.7755H81.4286V34.8979Z" fill="black"/>
<path d="M89.1837 34.8979H85.3062V38.7755H89.1837V34.8979Z" fill="black"/>
<path d="M100.816 34.8979H96.9387V38.7755H100.816V34.8979Z" fill="black"/>
<path d="M112.449 34.8979H108.572V38.7755H112.449V34.8979Z" fill="black"/>
<path d="M124.082 34.8979H120.204V38.7755H124.082V34.8979Z" fill="black"/>
<path d="M127.959 34.8979H124.082V38.7755H127.959V34.8979Z" fill="black"/>
<path d="M174.49 34.8979H170.612V38.7755H174.49V34.8979Z" fill="black"/>
<path d="M190 34.8979H186.123V38.7755H190V34.8979Z" fill="black"/>
<path d="M27.1429 38.7755H23.2654V42.6531H27.1429V38.7755Z" fill="black"/>
<path d="M34.8981 38.7755H31.0205V42.6531H34.8981V38.7755Z" fill="black"/>
<path d="M38.7755 38.7755H34.8979V42.6531H38.7755V38.7755Z" fill="black"/>
<path d="M50.4081 38.7755H46.5305V42.6531H50.4081V38.7755Z" fill="black"/>
<path d="M58.1632 38.7755H54.2856V42.6531H58.1632V38.7755Z" fill="black"/>
<path d="M65.9183 38.7755H62.0408V42.6531H65.9183V38.7755Z" fill="black"/>
<path d="M77.5511 38.7755H73.6736V42.6531H77.5511V38.7755Z" fill="black"/>
<path d="M85.306 38.7755H81.4285V42.6531H85.306V38.7755Z" fill="black"/>
<path d="M89.1837 38.7755H85.3062V42.6531H89.1837V38.7755Z" fill="black"/>
<path d="M93.0611 38.7755H89.1836V42.6531H93.0611V38.7755Z" fill="black"/>
<path d="M104.694 38.7755H100.816V42.6531H104.694V38.7755Z" fill="black"/>
<path d="M120.204 38.7755H116.326V42.6531H120.204V38.7755Z" fill="black"/>
<path d="M124.082 38.7755H120.204V42.6531H124.082V38.7755Z" fill="black"/>
<path d="M139.592 38.7755H135.714V42.6531H139.592V38.7755Z" fill="black"/>
<path d="M151.224 38.7755H147.347V42.6531H151.224V38.7755Z" fill="black"/>
<path d="M155.102 38.7755H151.225V42.6531H155.102V38.7755Z" fill="black"/>
<path d="M158.98 38.7755H155.102V42.6531H158.98V38.7755Z" fill="black"/>
<path d="M162.857 38.7755H158.979V42.6531H162.857V38.7755Z" fill="black"/>
<path d="M166.735 38.7755H162.857V42.6531H166.735V38.7755Z" fill="black"/>
<path d="M170.612 38.7755H166.735V42.6531H170.612V38.7755Z" fill="black"/>
<path d="M182.245 38.7755H178.367V42.6531H182.245V38.7755Z" fill="black"/>
<path d="M186.122 38.7755H182.245V42.6531H186.122V38.7755Z" fill="black"/>
<path d="M3.87755 42.6531H0V46.5306H3.87755V42.6531Z" fill="black"/>
<path d="M7.75499 42.6531H3.87744V46.5306H7.75499V42.6531Z" fill="black"/>
<path d="M15.5101 42.6531H11.6326V46.5306H15.5101V42.6531Z" fill="black"/>
<path d="M19.3878 42.6531H15.5103V46.5306H19.3878V42.6531Z" fill="black"/>
<path d="M23.2652 42.6531H19.3877V46.5306H23.2652V42.6531Z" fill="black"/>
<path d="M50.4081 42.6531H46.5305V46.5306H50.4081V42.6531Z" fill="black"/>
<path d="M54.2858 42.6531H50.4082V46.5306H54.2858V42.6531Z" fill="black"/>
<path d="M58.1632 42.6531H54.2856V46.5306H58.1632V42.6531Z" fill="black"/>
<path d="M65.9183 42.6531H62.0408V46.5306H65.9183V42.6531Z" fill="black"/>
<path d="M73.6734 42.6531H69.7959V46.5306H73.6734V42.6531Z" fill="black"/>
<path d="M89.1837 42.6531H85.3062V46.5306H89.1837V42.6531Z" fill="black"/>
<path d="M96.9388 42.6531H93.0613V46.5306H96.9388V42.6531Z" fill="black"/>
<path d="M104.694 42.6531H100.816V46.5306H104.694V42.6531Z" fill="black"/>
<path d="M108.571 42.6531H104.694V46.5306H108.571V42.6531Z" fill="black"/>
<path d="M112.449 42.6531H108.572V46.5306H112.449V42.6531Z" fill="black"/>
<path d="M116.327 42.6531H112.449V46.5306H116.327V42.6531Z" fill="black"/>
<path d="M143.469 42.6531H139.592V46.5306H143.469V42.6531Z" fill="black"/>
<path d="M147.347 42.6531H143.469V46.5306H147.347V42.6531Z" fill="black"/>
<path d="M162.857 42.6531H158.979V46.5306H162.857V42.6531Z" fill="black"/>
<path d="M166.735 42.6531H162.857V46.5306H166.735V42.6531Z" fill="black"/>
<path d="M170.612 42.6531H166.735V46.5306H170.612V42.6531Z" fill="black"/>
<path d="M174.49 42.6531H170.612V46.5306H174.49V42.6531Z" fill="black"/>
<path d="M178.367 42.6531H174.49V46.5306H178.367V42.6531Z" fill="black"/>
<path d="M3.87755 46.5306H0V50.4082H3.87755V46.5306Z" fill="black"/>
<path d="M7.75499 46.5306H3.87744V50.4082H7.75499V46.5306Z" fill="black"/>
<path d="M11.6327 46.5306H7.75513V50.4082H11.6327V46.5306Z" fill="black"/>
<path d="M15.5101 46.5306H11.6326V50.4082H15.5101V46.5306Z" fill="black"/>
<path d="M19.3878 46.5306H15.5103V50.4082H19.3878V46.5306Z" fill="black"/>
<path d="M23.2652 46.5306H19.3877V50.4082H23.2652V46.5306Z" fill="black"/>
<path d="M27.1429 46.5306H23.2654V50.4082H27.1429V46.5306Z" fill="black"/>
<path d="M31.0204 46.5306H27.1428V50.4082H31.0204V46.5306Z" fill="black"/>
<path d="M38.7755 46.5306H34.8979V50.4082H38.7755V46.5306Z" fill="black"/>
<path d="M50.4081 46.5306H46.5305V50.4082H50.4081V46.5306Z" fill="black"/>
<path d="M54.2858 46.5306H50.4082V50.4082H54.2858V46.5306Z" fill="black"/>
<path d="M58.1632 46.5306H54.2856V50.4082H58.1632V46.5306Z" fill="black"/>
<path d="M73.6734 46.5306H69.7959V50.4082H73.6734V46.5306Z" fill="black"/>
<path d="M81.4286 46.5306H77.551V50.4082H81.4286V46.5306Z" fill="black"/>
<path d="M85.306 46.5306H81.4285V50.4082H85.306V46.5306Z" fill="black"/>
<path d="M89.1837 46.5306H85.3062V50.4082H89.1837V46.5306Z" fill="black"/>
<path d="M93.0611 46.5306H89.1836V50.4082H93.0611V46.5306Z" fill="black"/>
<path d="M112.449 46.5306H108.572V50.4082H112.449V46.5306Z" fill="black"/>
<path d="M116.327 46.5306H112.449V50.4082H116.327V46.5306Z" fill="black"/>
<path d="M131.837 46.5306H127.959V50.4082H131.837V46.5306Z" fill="black"/>
<path d="M135.714 46.5306H131.837V50.4082H135.714V46.5306Z" fill="black"/>
<path d="M139.592 46.5306H135.714V50.4082H139.592V46.5306Z" fill="black"/>
<path d="M143.469 46.5306H139.592V50.4082H143.469V46.5306Z" fill="black"/>
<path d="M151.224 46.5306H147.347V50.4082H151.224V46.5306Z" fill="black"/>
<path d="M158.98 46.5306H155.102V50.4082H158.98V46.5306Z" fill="black"/>
<path d="M170.612 46.5306H166.735V50.4082H170.612V46.5306Z" fill="black"/>
<path d="M174.49 46.5306H170.612V50.4082H174.49V46.5306Z" fill="black"/>
<path d="M178.367 46.5306H174.49V50.4082H178.367V46.5306Z" fill="black"/>
<path d="M182.245 46.5306H178.367V50.4082H182.245V46.5306Z" fill="black"/>
<path d="M186.122 46.5306H182.245V50.4082H186.122V46.5306Z" fill="black"/>
<path d="M190 46.5306H186.123V50.4082H190V46.5306Z" fill="black"/>
<path d="M3.87755 50.4082H0V54.2858H3.87755V50.4082Z" fill="black"/>
<path d="M11.6327 50.4082H7.75513V54.2858H11.6327V50.4082Z" fill="black"/>
<path d="M15.5101 50.4082H11.6326V54.2858H15.5101V50.4082Z" fill="black"/>
<path d="M19.3878 50.4082H15.5103V54.2858H19.3878V50.4082Z" fill="black"/>
<path d="M31.0204 50.4082H27.1428V54.2858H31.0204V50.4082Z" fill="black"/>
<path d="M34.8981 50.4082H31.0205V54.2858H34.8981V50.4082Z" fill="black"/>
<path d="M42.6529 50.4082H38.7754V54.2858H42.6529V50.4082Z" fill="black"/>
<path d="M54.2858 50.4082H50.4082V54.2858H54.2858V50.4082Z" fill="black"/>
<path d="M65.9183 50.4082H62.0408V54.2858H65.9183V50.4082Z" fill="black"/>
<path d="M73.6734 50.4082H69.7959V54.2858H73.6734V50.4082Z" fill="black"/>
<path d="M85.306 50.4082H81.4285V54.2858H85.306V50.4082Z" fill="black"/>
<path d="M96.9388 50.4082H93.0613V54.2858H96.9388V50.4082Z" fill="black"/>
<path d="M108.571 50.4082H104.694V54.2858H108.571V50.4082Z" fill="black"/>
<path d="M112.449 50.4082H108.572V54.2858H112.449V50.4082Z" fill="black"/>
<path d="M127.959 50.4082H124.082V54.2858H127.959V50.4082Z" fill="black"/>
<path d="M135.714 50.4082H131.837V54.2858H135.714V50.4082Z" fill="black"/>
<path d="M139.592 50.4082H135.714V54.2858H139.592V50.4082Z" fill="black"/>
<path d="M151.224 50.4082H147.347V54.2858H151.224V50.4082Z" fill="black"/>
<path d="M155.102 50.4082H151.225V54.2858H155.102V50.4082Z" fill="black"/>
<path d="M162.857 50.4082H158.979V54.2858H162.857V50.4082Z" fill="black"/>
<path d="M166.735 50.4082H162.857V54.2858H166.735V50.4082Z" fill="black"/>
<path d="M174.49 50.4082H170.612V54.2858H174.49V50.4082Z" fill="black"/>
<path d="M178.367 50.4082H174.49V54.2858H178.367V50.4082Z" fill="black"/>
<path d="M186.122 50.4082H182.245V54.2858H186.122V50.4082Z" fill="black"/>
<path d="M3.87755 54.2858H0V58.1633H3.87755V54.2858Z" fill="black"/>
<path d="M11.6327 54.2858H7.75513V58.1633H11.6327V54.2858Z" fill="black"/>
<path d="M15.5101 54.2858H11.6326V58.1633H15.5101V54.2858Z" fill="black"/>
<path d="M27.1429 54.2858H23.2654V58.1633H27.1429V54.2858Z" fill="black"/>
<path d="M34.8981 54.2858H31.0205V58.1633H34.8981V54.2858Z" fill="black"/>
<path d="M38.7755 54.2858H34.8979V58.1633H38.7755V54.2858Z" fill="black"/>
<path d="M50.4081 54.2858H46.5305V58.1633H50.4081V54.2858Z" fill="black"/>
<path d="M54.2858 54.2858H50.4082V58.1633H54.2858V54.2858Z" fill="black"/>
<path d="M58.1632 54.2858H54.2856V58.1633H58.1632V54.2858Z" fill="black"/>
<path d="M81.4286 54.2858H77.551V58.1633H81.4286V54.2858Z" fill="black"/>
<path d="M85.306 54.2858H81.4285V58.1633H85.306V54.2858Z" fill="black"/>
<path d="M89.1837 54.2858H85.3062V58.1633H89.1837V54.2858Z" fill="black"/>
<path d="M100.816 54.2858H96.9387V58.1633H100.816V54.2858Z" fill="black"/>
<path d="M104.694 54.2858H100.816V58.1633H104.694V54.2858Z" fill="black"/>
<path d="M116.327 54.2858H112.449V58.1633H116.327V54.2858Z" fill="black"/>
<path d="M124.082 54.2858H120.204V58.1633H124.082V54.2858Z" fill="black"/>
<path d="M127.959 54.2858H124.082V58.1633H127.959V54.2858Z" fill="black"/>
<path d="M135.714 54.2858H131.837V58.1633H135.714V54.2858Z" fill="black"/>
<path d="M139.592 54.2858H135.714V58.1633H139.592V54.2858Z" fill="black"/>
<path d="M143.469 54.2858H139.592V58.1633H143.469V54.2858Z" fill="black"/>
<path d="M158.98 54.2858H155.102V58.1633H158.98V54.2858Z" fill="black"/>
<path d="M162.857 54.2858H158.979V58.1633H162.857V54.2858Z" fill="black"/>
<path d="M186.122 54.2858H182.245V58.1633H186.122V54.2858Z" fill="black"/>
<path d="M19.3878 58.1632H15.5103V62.0408H19.3878V58.1632Z" fill="black"/>
<path d="M31.0204 58.1632H27.1428V62.0408H31.0204V58.1632Z" fill="black"/>
<path d="M34.8981 58.1632H31.0205V62.0408H34.8981V58.1632Z" fill="black"/>
<path d="M38.7755 58.1632H34.8979V62.0408H38.7755V58.1632Z" fill="black"/>
<path d="M58.1632 58.1632H54.2856V62.0408H58.1632V58.1632Z" fill="black"/>
<path d="M69.796 58.1632H65.9185V62.0408H69.796V58.1632Z" fill="black"/>
<path d="M77.5511 58.1632H73.6736V62.0408H77.5511V58.1632Z" fill="black"/>
<path d="M81.4286 58.1632H77.551V62.0408H81.4286V58.1632Z" fill="black"/>
<path d="M93.0611 58.1632H89.1836V62.0408H93.0611V58.1632Z" fill="black"/>
<path d="M104.694 58.1632H100.816V62.0408H104.694V58.1632Z" fill="black"/>
<path d="M108.571 58.1632H104.694V62.0408H108.571V58.1632Z" fill="black"/>
<path d="M112.449 58.1632H108.572V62.0408H112.449V58.1632Z" fill="black"/>
<path d="M131.837 58.1632H127.959V62.0408H131.837V58.1632Z" fill="black"/>
<path d="M139.592 58.1632H135.714V62.0408H139.592V58.1632Z" fill="black"/>
<path d="M162.857 58.1632H158.979V62.0408H162.857V58.1632Z" fill="black"/>
<path d="M170.612 58.1632H166.735V62.0408H170.612V58.1632Z" fill="black"/>
<path d="M174.49 58.1632H170.612V62.0408H174.49V58.1632Z" fill="black"/>
<path d="M178.367 58.1632H174.49V62.0408H178.367V58.1632Z" fill="black"/>
<path d="M3.87755 62.0408H0V65.9183H3.87755V62.0408Z" fill="black"/>
<path d="M15.5101 62.0408H11.6326V65.9183H15.5101V62.0408Z" fill="black"/>
<path d="M23.2652 62.0408H19.3877V65.9183H23.2652V62.0408Z" fill="black"/>
<path d="M27.1429 62.0408H23.2654V65.9183H27.1429V62.0408Z" fill="black"/>
<path d="M38.7755 62.0408H34.8979V65.9183H38.7755V62.0408Z" fill="black"/>
<path d="M42.6529 62.0408H38.7754V65.9183H42.6529V62.0408Z" fill="black"/>
<path d="M46.5306 62.0408H42.6531V65.9183H46.5306V62.0408Z" fill="black"/>
<path d="M50.4081 62.0408H46.5305V65.9183H50.4081V62.0408Z" fill="black"/>
<path d="M62.0409 62.0408H58.1633V65.9183H62.0409V62.0408Z" fill="black"/>
<path d="M73.6734 62.0408H69.7959V65.9183H73.6734V62.0408Z" fill="black"/>
<path d="M77.5511 62.0408H73.6736V65.9183H77.5511V62.0408Z" fill="black"/>
<path d="M85.306 62.0408H81.4285V65.9183H85.306V62.0408Z" fill="black"/>
<path d="M89.1837 62.0408H85.3062V65.9183H89.1837V62.0408Z" fill="black"/>
<path d="M100.816 62.0408H96.9387V65.9183H100.816V62.0408Z" fill="black"/>
<path d="M104.694 62.0408H100.816V65.9183H104.694V62.0408Z" fill="black"/>
<path d="M112.449 62.0408H108.572V65.9183H112.449V62.0408Z" fill="black"/>
<path d="M116.327 62.0408H112.449V65.9183H116.327V62.0408Z" fill="black"/>
<path d="M127.959 62.0408H124.082V65.9183H127.959V62.0408Z" fill="black"/>
<path d="M139.592 62.0408H135.714V65.9183H139.592V62.0408Z" fill="black"/>
<path d="M143.469 62.0408H139.592V65.9183H143.469V62.0408Z" fill="black"/>
<path d="M147.347 62.0408H143.469V65.9183H147.347V62.0408Z" fill="black"/>
<path d="M155.102 62.0408H151.225V65.9183H155.102V62.0408Z" fill="black"/>
<path d="M170.612 62.0408H166.735V65.9183H170.612V62.0408Z" fill="black"/>
<path d="M174.49 62.0408H170.612V65.9183H174.49V62.0408Z" fill="black"/>
<path d="M186.122 62.0408H182.245V65.9183H186.122V62.0408Z" fill="black"/>
<path d="M190 62.0408H186.123V65.9183H190V62.0408Z" fill="black"/>
<path d="M7.75499 65.9183H3.87744V69.7959H7.75499V65.9183Z" fill="black"/>
<path d="M11.6327 65.9183H7.75513V69.7959H11.6327V65.9183Z" fill="black"/>
<path d="M31.0204 65.9183H27.1428V69.7959H31.0204V65.9183Z" fill="black"/>
<path d="M34.8981 65.9183H31.0205V69.7959H34.8981V65.9183Z" fill="black"/>
<path d="M38.7755 65.9183H34.8979V69.7959H38.7755V65.9183Z" fill="black"/>
<path d="M42.6529 65.9183H38.7754V69.7959H42.6529V65.9183Z" fill="black"/>
<path d="M46.5306 65.9183H42.6531V69.7959H46.5306V65.9183Z" fill="black"/>
<path d="M50.4081 65.9183H46.5305V69.7959H50.4081V65.9183Z" fill="black"/>
<path d="M58.1632 65.9183H54.2856V69.7959H58.1632V65.9183Z" fill="black"/>
<path d="M81.4286 65.9183H77.551V69.7959H81.4286V65.9183Z" fill="black"/>
<path d="M85.306 65.9183H81.4285V69.7959H85.306V65.9183Z" fill="black"/>
<path d="M89.1837 65.9183H85.3062V69.7959H89.1837V65.9183Z" fill="black"/>
<path d="M108.571 65.9183H104.694V69.7959H108.571V65.9183Z" fill="black"/>
<path d="M120.204 65.9183H116.326V69.7959H120.204V65.9183Z" fill="black"/>
<path d="M124.082 65.9183H120.204V69.7959H124.082V65.9183Z" fill="black"/>
<path d="M131.837 65.9183H127.959V69.7959H131.837V65.9183Z" fill="black"/>
<path d="M158.98 65.9183H155.102V69.7959H158.98V65.9183Z" fill="black"/>
<path d="M162.857 65.9183H158.979V69.7959H162.857V65.9183Z" fill="black"/>
<path d="M174.49 65.9183H170.612V69.7959H174.49V65.9183Z" fill="black"/>
<path d="M3.87755 69.7959H0V73.6734H3.87755V69.7959Z" fill="black"/>
<path d="M7.75499 69.7959H3.87744V73.6734H7.75499V69.7959Z" fill="black"/>
<path d="M15.5101 69.7959H11.6326V73.6734H15.5101V69.7959Z" fill="black"/>
<path d="M19.3878 69.7959H15.5103V73.6734H19.3878V69.7959Z" fill="black"/>
<path d="M27.1429 69.7959H23.2654V73.6734H27.1429V69.7959Z" fill="black"/>
<path d="M31.0204 69.7959H27.1428V73.6734H31.0204V69.7959Z" fill="black"/>
<path d="M38.7755 69.7959H34.8979V73.6734H38.7755V69.7959Z" fill="black"/>
<path d="M42.6529 69.7959H38.7754V73.6734H42.6529V69.7959Z" fill="black"/>
<path d="M50.4081 69.7959H46.5305V73.6734H50.4081V69.7959Z" fill="black"/>
<path d="M81.4286 69.7959H77.551V73.6734H81.4286V69.7959Z" fill="black"/>
<path d="M89.1837 69.7959H85.3062V73.6734H89.1837V69.7959Z" fill="black"/>
<path d="M93.0611 69.7959H89.1836V73.6734H93.0611V69.7959Z" fill="black"/>
<path d="M100.816 69.7959H96.9387V73.6734H100.816V69.7959Z" fill="black"/>
<path d="M139.592 69.7959H135.714V73.6734H139.592V69.7959Z" fill="black"/>
<path d="M143.469 69.7959H139.592V73.6734H143.469V69.7959Z" fill="black"/>
<path d="M147.347 69.7959H143.469V73.6734H147.347V69.7959Z" fill="black"/>
<path d="M155.102 69.7959H151.225V73.6734H155.102V69.7959Z" fill="black"/>
<path d="M158.98 69.7959H155.102V73.6734H158.98V69.7959Z" fill="black"/>
<path d="M166.735 69.7959H162.857V73.6734H166.735V69.7959Z" fill="black"/>
<path d="M170.612 69.7959H166.735V73.6734H170.612V69.7959Z" fill="black"/>
<path d="M178.367 69.7959H174.49V73.6734H178.367V69.7959Z" fill="black"/>
<path d="M186.122 69.7959H182.245V73.6734H186.122V69.7959Z" fill="black"/>
<path d="M7.75499 73.6735H3.87744V77.551H7.75499V73.6735Z" fill="black"/>
<path d="M11.6327 73.6735H7.75513V77.551H11.6327V73.6735Z" fill="black"/>
<path d="M15.5101 73.6735H11.6326V77.551H15.5101V73.6735Z" fill="black"/>
<path d="M23.2652 73.6735H19.3877V77.551H23.2652V73.6735Z" fill="black"/>
<path d="M31.0204 73.6735H27.1428V77.551H31.0204V73.6735Z" fill="black"/>
<path d="M34.8981 73.6735H31.0205V77.551H34.8981V73.6735Z" fill="black"/>
<path d="M38.7755 73.6735H34.8979V77.551H38.7755V73.6735Z" fill="black"/>
<path d="M42.6529 73.6735H38.7754V77.551H42.6529V73.6735Z" fill="black"/>
<path d="M58.1632 73.6735H54.2856V77.551H58.1632V73.6735Z" fill="black"/>
<path d="M69.796 73.6735H65.9185V77.551H69.796V73.6735Z" fill="black"/>
<path d="M73.6734 73.6735H69.7959V77.551H73.6734V73.6735Z" fill="black"/>
<path d="M96.9388 73.6735H93.0613V77.551H96.9388V73.6735Z" fill="black"/>
<path d="M100.816 73.6735H96.9387V77.551H100.816V73.6735Z" fill="black"/>
<path d="M116.327 73.6735H112.449V77.551H116.327V73.6735Z" fill="black"/>
<path d="M120.204 73.6735H116.326V77.551H120.204V73.6735Z" fill="black"/>
<path d="M127.959 73.6735H124.082V77.551H127.959V73.6735Z" fill="black"/>
<path d="M143.469 73.6735H139.592V77.551H143.469V73.6735Z" fill="black"/>
<path d="M158.98 73.6735H155.102V77.551H158.98V73.6735Z" fill="black"/>
<path d="M162.857 73.6735H158.979V77.551H162.857V73.6735Z" fill="black"/>
<path d="M166.735 73.6735H162.857V77.551H166.735V73.6735Z" fill="black"/>
<path d="M178.367 73.6735H174.49V77.551H178.367V73.6735Z" fill="black"/>
<path d="M3.87755 77.551H0V81.4286H3.87755V77.551Z" fill="black"/>
<path d="M23.2652 77.551H19.3877V81.4286H23.2652V77.551Z" fill="black"/>
<path d="M27.1429 77.551H23.2654V81.4286H27.1429V77.551Z" fill="black"/>
<path d="M31.0204 77.551H27.1428V81.4286H31.0204V77.551Z" fill="black"/>
<path d="M38.7755 77.551H34.8979V81.4286H38.7755V77.551Z" fill="black"/>
<path d="M42.6529 77.551H38.7754V81.4286H42.6529V77.551Z" fill="black"/>
<path d="M62.0409 77.551H58.1633V81.4286H62.0409V77.551Z" fill="black"/>
<path d="M65.9183 77.551H62.0408V81.4286H65.9183V77.551Z" fill="black"/>
<path d="M69.796 77.551H65.9185V81.4286H69.796V77.551Z" fill="black"/>
<path d="M73.6734 77.551H69.7959V81.4286H73.6734V77.551Z" fill="black"/>
<path d="M81.4286 77.551H77.551V81.4286H81.4286V77.551Z" fill="black"/>
<path d="M89.1837 77.551H85.3062V81.4286H89.1837V77.551Z" fill="black"/>
<path d="M96.9388 77.551H93.0613V81.4286H96.9388V77.551Z" fill="black"/>
<path d="M116.327 77.551H112.449V81.4286H116.327V77.551Z" fill="black"/>
<path d="M131.837 77.551H127.959V81.4286H131.837V77.551Z" fill="black"/>
<path d="M135.714 77.551H131.837V81.4286H135.714V77.551Z" fill="black"/>
<path d="M139.592 77.551H135.714V81.4286H139.592V77.551Z" fill="black"/>
<path d="M143.469 77.551H139.592V81.4286H143.469V77.551Z" fill="black"/>
<path d="M147.347 77.551H143.469V81.4286H147.347V77.551Z" fill="black"/>
<path d="M151.224 77.551H147.347V81.4286H151.224V77.551Z" fill="black"/>
<path d="M158.98 77.551H155.102V81.4286H158.98V77.551Z" fill="black"/>
<path d="M162.857 77.551H158.979V81.4286H162.857V77.551Z" fill="black"/>
<path d="M170.612 77.551H166.735V81.4286H170.612V77.551Z" fill="black"/>
<path d="M182.245 77.551H178.367V81.4286H182.245V77.551Z" fill="black"/>
<path d="M190 77.551H186.123V81.4286H190V77.551Z" fill="black"/>
<path d="M3.87755 81.4286H0V85.3061H3.87755V81.4286Z" fill="black"/>
<path d="M7.75499 81.4286H3.87744V85.3061H7.75499V81.4286Z" fill="black"/>
<path d="M19.3878 81.4286H15.5103V85.3061H19.3878V81.4286Z" fill="black"/>
<path d="M34.8981 81.4286H31.0205V85.3061H34.8981V81.4286Z" fill="black"/>
<path d="M38.7755 81.4286H34.8979V85.3061H38.7755V81.4286Z" fill="black"/>
<path d="M42.6529 81.4286H38.7754V85.3061H42.6529V81.4286Z" fill="black"/>
<path d="M46.5306 81.4286H42.6531V85.3061H46.5306V81.4286Z" fill="black"/>
<path d="M54.2858 81.4286H50.4082V85.3061H54.2858V81.4286Z" fill="black"/>
<path d="M69.796 81.4286H65.9185V85.3061H69.796V81.4286Z" fill="black"/>
<path d="M77.5511 81.4286H73.6736V85.3061H77.5511V81.4286Z" fill="black"/>
<path d="M81.4286 81.4286H77.551V85.3061H81.4286V81.4286Z" fill="black"/>
<path d="M89.1837 81.4286H85.3062V85.3061H89.1837V81.4286Z" fill="black"/>
<path d="M108.571 81.4286H104.694V85.3061H108.571V81.4286Z" fill="black"/>
<path d="M112.449 81.4286H108.572V85.3061H112.449V81.4286Z" fill="black"/>
<path d="M120.204 81.4286H116.326V85.3061H120.204V81.4286Z" fill="black"/>
<path d="M135.714 81.4286H131.837V85.3061H135.714V81.4286Z" fill="black"/>
<path d="M151.224 81.4286H147.347V85.3061H151.224V81.4286Z" fill="black"/>
<path d="M158.98 81.4286H155.102V85.3061H158.98V81.4286Z" fill="black"/>
<path d="M162.857 81.4286H158.979V85.3061H162.857V81.4286Z" fill="black"/>
<path d="M166.735 81.4286H162.857V85.3061H166.735V81.4286Z" fill="black"/>
<path d="M170.612 81.4286H166.735V85.3061H170.612V81.4286Z" fill="black"/>
<path d="M174.49 81.4286H170.612V85.3061H174.49V81.4286Z" fill="black"/>
<path d="M190 81.4286H186.123V85.3061H190V81.4286Z" fill="black"/>
<path d="M7.75499 85.3062H3.87744V89.1837H7.75499V85.3062Z" fill="black"/>
<path d="M19.3878 85.3062H15.5103V89.1837H19.3878V85.3062Z" fill="black"/>
<path d="M23.2652 85.3062H19.3877V89.1837H23.2652V85.3062Z" fill="black"/>
<path d="M27.1429 85.3062H23.2654V89.1837H27.1429V85.3062Z" fill="black"/>
<path d="M31.0204 85.3062H27.1428V89.1837H31.0204V85.3062Z" fill="black"/>
<path d="M34.8981 85.3062H31.0205V89.1837H34.8981V85.3062Z" fill="black"/>
<path d="M38.7755 85.3062H34.8979V89.1837H38.7755V85.3062Z" fill="black"/>
<path d="M50.4081 85.3062H46.5305V89.1837H50.4081V85.3062Z" fill="black"/>
<path d="M58.1632 85.3062H54.2856V89.1837H58.1632V85.3062Z" fill="black"/>
<path d="M65.9183 85.3062H62.0408V89.1837H65.9183V85.3062Z" fill="black"/>
<path d="M69.796 85.3062H65.9185V89.1837H69.796V85.3062Z" fill="black"/>
<path d="M73.6734 85.3062H69.7959V89.1837H73.6734V85.3062Z" fill="black"/>
<path d="M81.4286 85.3062H77.551V89.1837H81.4286V85.3062Z" fill="black"/>
<path d="M89.1837 85.3062H85.3062V89.1837H89.1837V85.3062Z" fill="black"/>
<path d="M93.0611 85.3062H89.1836V89.1837H93.0611V85.3062Z" fill="black"/>
<path d="M96.9388 85.3062H93.0613V89.1837H96.9388V85.3062Z" fill="black"/>
<path d="M100.816 85.3062H96.9387V89.1837H100.816V85.3062Z" fill="black"/>
<path d="M104.694 85.3062H100.816V89.1837H104.694V85.3062Z" fill="black"/>
<path d="M112.449 85.3062H108.572V89.1837H112.449V85.3062Z" fill="black"/>
<path d="M116.327 85.3062H112.449V89.1837H116.327V85.3062Z" fill="black"/>
<path d="M120.204 85.3062H116.326V89.1837H120.204V85.3062Z" fill="black"/>
<path d="M127.959 85.3062H124.082V89.1837H127.959V85.3062Z" fill="black"/>
<path d="M131.837 85.3062H127.959V89.1837H131.837V85.3062Z" fill="black"/>
<path d="M139.592 85.3062H135.714V89.1837H139.592V85.3062Z" fill="black"/>
<path d="M143.469 85.3062H139.592V89.1837H143.469V85.3062Z" fill="black"/>
<path d="M151.224 85.3062H147.347V89.1837H151.224V85.3062Z" fill="black"/>
<path d="M155.102 85.3062H151.225V89.1837H155.102V85.3062Z" fill="black"/>
<path d="M158.98 85.3062H155.102V89.1837H158.98V85.3062Z" fill="black"/>
<path d="M162.857 85.3062H158.979V89.1837H162.857V85.3062Z" fill="black"/>
<path d="M166.735 85.3062H162.857V89.1837H166.735V85.3062Z" fill="black"/>
<path d="M170.612 85.3062H166.735V89.1837H170.612V85.3062Z" fill="black"/>
<path d="M174.49 85.3062H170.612V89.1837H174.49V85.3062Z" fill="black"/>
<path d="M178.367 85.3062H174.49V89.1837H178.367V85.3062Z" fill="black"/>
<path d="M182.245 85.3062H178.367V89.1837H182.245V85.3062Z" fill="black"/>
<path d="M186.122 85.3062H182.245V89.1837H186.122V85.3062Z" fill="black"/>
<path d="M190 85.3062H186.123V89.1837H190V85.3062Z" fill="black"/>
<path d="M7.75499 89.1837H3.87744V93.0613H7.75499V89.1837Z" fill="black"/>
<path d="M11.6327 89.1837H7.75513V93.0613H11.6327V89.1837Z" fill="black"/>
<path d="M15.5101 89.1837H11.6326V93.0613H15.5101V89.1837Z" fill="black"/>
<path d="M19.3878 89.1837H15.5103V93.0613H19.3878V89.1837Z" fill="black"/>
<path d="M34.8981 89.1837H31.0205V93.0613H34.8981V89.1837Z" fill="black"/>
<path d="M42.6529 89.1837H38.7754V93.0613H42.6529V89.1837Z" fill="black"/>
<path d="M50.4081 89.1837H46.5305V93.0613H50.4081V89.1837Z" fill="black"/>
<path d="M58.1632 89.1837H54.2856V93.0613H58.1632V89.1837Z" fill="black"/>
<path d="M65.9183 89.1837H62.0408V93.0613H65.9183V89.1837Z" fill="black"/>
<path d="M81.4286 89.1837H77.551V93.0613H81.4286V89.1837Z" fill="black"/>
<path d="M89.1837 89.1837H85.3062V93.0613H89.1837V89.1837Z" fill="black"/>
<path d="M104.694 89.1837H100.816V93.0613H104.694V89.1837Z" fill="black"/>
<path d="M116.327 89.1837H112.449V93.0613H116.327V89.1837Z" fill="black"/>
<path d="M131.837 89.1837H127.959V93.0613H131.837V89.1837Z" fill="black"/>
<path d="M139.592 89.1837H135.714V93.0613H139.592V89.1837Z" fill="black"/>
<path d="M158.98 89.1837H155.102V93.0613H158.98V89.1837Z" fill="black"/>
<path d="M174.49 89.1837H170.612V93.0613H174.49V89.1837Z" fill="black"/>
<path d="M7.75499 93.0613H3.87744V96.9388H7.75499V93.0613Z" fill="black"/>
<path d="M19.3878 93.0613H15.5103V96.9388H19.3878V93.0613Z" fill="black"/>
<path d="M27.1429 93.0613H23.2654V96.9388H27.1429V93.0613Z" fill="black"/>
<path d="M34.8981 93.0613H31.0205V96.9388H34.8981V93.0613Z" fill="black"/>
<path d="M38.7755 93.0613H34.8979V96.9388H38.7755V93.0613Z" fill="black"/>
<path d="M42.6529 93.0613H38.7754V96.9388H42.6529V93.0613Z" fill="black"/>
<path d="M46.5306 93.0613H42.6531V96.9388H46.5306V93.0613Z" fill="black"/>
<path d="M54.2858 93.0613H50.4082V96.9388H54.2858V93.0613Z" fill="black"/>
<path d="M58.1632 93.0613H54.2856V96.9388H58.1632V93.0613Z" fill="black"/>
<path d="M62.0409 93.0613H58.1633V96.9388H62.0409V93.0613Z" fill="black"/>
<path d="M65.9183 93.0613H62.0408V96.9388H65.9183V93.0613Z" fill="black"/>
<path d="M73.6734 93.0613H69.7959V96.9388H73.6734V93.0613Z" fill="black"/>
<path d="M77.5511 93.0613H73.6736V96.9388H77.5511V93.0613Z" fill="black"/>
<path d="M85.306 93.0613H81.4285V96.9388H85.306V93.0613Z" fill="black"/>
<path d="M89.1837 93.0613H85.3062V96.9388H89.1837V93.0613Z" fill="black"/>
<path d="M96.9388 93.0613H93.0613V96.9388H96.9388V93.0613Z" fill="black"/>
<path d="M104.694 93.0613H100.816V96.9388H104.694V93.0613Z" fill="black"/>
<path d="M108.571 93.0613H104.694V96.9388H108.571V93.0613Z" fill="black"/>
<path d="M112.449 93.0613H108.572V96.9388H112.449V93.0613Z" fill="black"/>
<path d="M116.327 93.0613H112.449V96.9388H116.327V93.0613Z" fill="black"/>
<path d="M120.204 93.0613H116.326V96.9388H120.204V93.0613Z" fill="black"/>
<path d="M124.082 93.0613H120.204V96.9388H124.082V93.0613Z" fill="black"/>
<path d="M127.959 93.0613H124.082V96.9388H127.959V93.0613Z" fill="black"/>
<path d="M131.837 93.0613H127.959V96.9388H131.837V93.0613Z" fill="black"/>
<path d="M135.714 93.0613H131.837V96.9388H135.714V93.0613Z" fill="black"/>
<path d="M139.592 93.0613H135.714V96.9388H139.592V93.0613Z" fill="black"/>
<path d="M151.224 93.0613H147.347V96.9388H151.224V93.0613Z" fill="black"/>
<path d="M158.98 93.0613H155.102V96.9388H158.98V93.0613Z" fill="black"/>
<path d="M166.735 93.0613H162.857V96.9388H166.735V93.0613Z" fill="black"/>
<path d="M174.49 93.0613H170.612V96.9388H174.49V93.0613Z" fill="black"/>
<path d="M182.245 93.0613H178.367V96.9388H182.245V93.0613Z" fill="black"/>
<path d="M7.75499 96.9387H3.87744V100.816H7.75499V96.9387Z" fill="black"/>
<path d="M19.3878 96.9387H15.5103V100.816H19.3878V96.9387Z" fill="black"/>
<path d="M34.8981 96.9387H31.0205V100.816H34.8981V96.9387Z" fill="black"/>
<path d="M50.4081 96.9387H46.5305V100.816H50.4081V96.9387Z" fill="black"/>
<path d="M58.1632 96.9387H54.2856V100.816H58.1632V96.9387Z" fill="black"/>
<path d="M65.9183 96.9387H62.0408V100.816H65.9183V96.9387Z" fill="black"/>
<path d="M69.796 96.9387H65.9185V100.816H69.796V96.9387Z" fill="black"/>
<path d="M77.5511 96.9387H73.6736V100.816H77.5511V96.9387Z" fill="black"/>
<path d="M89.1837 96.9387H85.3062V100.816H89.1837V96.9387Z" fill="black"/>
<path d="M104.694 96.9387H100.816V100.816H104.694V96.9387Z" fill="black"/>
<path d="M127.959 96.9387H124.082V100.816H127.959V96.9387Z" fill="black"/>
<path d="M135.714 96.9387H131.837V100.816H135.714V96.9387Z" fill="black"/>
<path d="M147.347 96.9387H143.469V100.816H147.347V96.9387Z" fill="black"/>
<path d="M151.224 96.9387H147.347V100.816H151.224V96.9387Z" fill="black"/>
<path d="M155.102 96.9387H151.225V100.816H155.102V96.9387Z" fill="black"/>
<path d="M158.98 96.9387H155.102V100.816H158.98V96.9387Z" fill="black"/>
<path d="M174.49 96.9387H170.612V100.816H174.49V96.9387Z" fill="black"/>
<path d="M190 96.9387H186.123V100.816H190V96.9387Z" fill="black"/>
<path d="M7.75499 100.816H3.87744V104.694H7.75499V100.816Z" fill="black"/>
<path d="M15.5101 100.816H11.6326V104.694H15.5101V100.816Z" fill="black"/>
<path d="M19.3878 100.816H15.5103V104.694H19.3878V100.816Z" fill="black"/>
<path d="M23.2652 100.816H19.3877V104.694H23.2652V100.816Z" fill="black"/>
<path d="M27.1429 100.816H23.2654V104.694H27.1429V100.816Z" fill="black"/>
<path d="M31.0204 100.816H27.1428V104.694H31.0204V100.816Z" fill="black"/>
<path d="M34.8981 100.816H31.0205V104.694H34.8981V100.816Z" fill="black"/>
<path d="M38.7755 100.816H34.8979V104.694H38.7755V100.816Z" fill="black"/>
<path d="M46.5306 100.816H42.6531V104.694H46.5306V100.816Z" fill="black"/>
<path d="M54.2858 100.816H50.4082V104.694H54.2858V100.816Z" fill="black"/>
<path d="M58.1632 100.816H54.2856V104.694H58.1632V100.816Z" fill="black"/>
<path d="M62.0409 100.816H58.1633V104.694H62.0409V100.816Z" fill="black"/>
<path d="M65.9183 100.816H62.0408V104.694H65.9183V100.816Z" fill="black"/>
<path d="M73.6734 100.816H69.7959V104.694H73.6734V100.816Z" fill="black"/>
<path d="M89.1837 100.816H85.3062V104.694H89.1837V100.816Z" fill="black"/>
<path d="M93.0611 100.816H89.1836V104.694H93.0611V100.816Z" fill="black"/>
<path d="M96.9388 100.816H93.0613V104.694H96.9388V100.816Z" fill="black"/>
<path d="M100.816 100.816H96.9387V104.694H100.816V100.816Z" fill="black"/>
<path d="M104.694 100.816H100.816V104.694H104.694V100.816Z" fill="black"/>
<path d="M112.449 100.816H108.572V104.694H112.449V100.816Z" fill="black"/>
<path d="M124.082 100.816H120.204V104.694H124.082V100.816Z" fill="black"/>
<path d="M127.959 100.816H124.082V104.694H127.959V100.816Z" fill="black"/>
<path d="M135.714 100.816H131.837V104.694H135.714V100.816Z" fill="black"/>
<path d="M139.592 100.816H135.714V104.694H139.592V100.816Z" fill="black"/>
<path d="M143.469 100.816H139.592V104.694H143.469V100.816Z" fill="black"/>
<path d="M151.224 100.816H147.347V104.694H151.224V100.816Z" fill="black"/>
<path d="M158.98 100.816H155.102V104.694H158.98V100.816Z" fill="black"/>
<path d="M162.857 100.816H158.979V104.694H162.857V100.816Z" fill="black"/>
<path d="M166.735 100.816H162.857V104.694H166.735V100.816Z" fill="black"/>
<path d="M170.612 100.816H166.735V104.694H170.612V100.816Z" fill="black"/>
<path d="M174.49 100.816H170.612V104.694H174.49V100.816Z" fill="black"/>
<path d="M182.245 100.816H178.367V104.694H182.245V100.816Z" fill="black"/>
<path d="M186.122 100.816H182.245V104.694H186.122V100.816Z" fill="black"/>
<path d="M3.87755 104.694H0V108.571H3.87755V104.694Z" fill="black"/>
<path d="M7.75499 104.694H3.87744V108.571H7.75499V104.694Z" fill="black"/>
<path d="M23.2652 104.694H19.3877V108.571H23.2652V104.694Z" fill="black"/>
<path d="M31.0204 104.694H27.1428V108.571H31.0204V104.694Z" fill="black"/>
<path d="M34.8981 104.694H31.0205V108.571H34.8981V104.694Z" fill="black"/>
<path d="M54.2858 104.694H50.4082V108.571H54.2858V104.694Z" fill="black"/>
<path d="M58.1632 104.694H54.2856V108.571H58.1632V104.694Z" fill="black"/>
<path d="M69.796 104.694H65.9185V108.571H69.796V104.694Z" fill="black"/>
<path d="M85.306 104.694H81.4285V108.571H85.306V104.694Z" fill="black"/>
<path d="M89.1837 104.694H85.3062V108.571H89.1837V104.694Z" fill="black"/>
<path d="M93.0611 104.694H89.1836V108.571H93.0611V104.694Z" fill="black"/>
<path d="M112.449 104.694H108.572V108.571H112.449V104.694Z" fill="black"/>
<path d="M116.327 104.694H112.449V108.571H116.327V104.694Z" fill="black"/>
<path d="M139.592 104.694H135.714V108.571H139.592V104.694Z" fill="black"/>
<path d="M147.347 104.694H143.469V108.571H147.347V104.694Z" fill="black"/>
<path d="M155.102 104.694H151.225V108.571H155.102V104.694Z" fill="black"/>
<path d="M158.98 104.694H155.102V108.571H158.98V104.694Z" fill="black"/>
<path d="M166.735 104.694H162.857V108.571H166.735V104.694Z" fill="black"/>
<path d="M170.612 104.694H166.735V108.571H170.612V104.694Z" fill="black"/>
<path d="M178.367 104.694H174.49V108.571H178.367V104.694Z" fill="black"/>
<path d="M7.75499 108.571H3.87744V112.449H7.75499V108.571Z" fill="black"/>
<path d="M27.1429 108.571H23.2654V112.449H27.1429V108.571Z" fill="black"/>
<path d="M31.0204 108.571H27.1428V112.449H31.0204V108.571Z" fill="black"/>
<path d="M38.7755 108.571H34.8979V112.449H38.7755V108.571Z" fill="black"/>
<path d="M46.5306 108.571H42.6531V112.449H46.5306V108.571Z" fill="black"/>
<path d="M58.1632 108.571H54.2856V112.449H58.1632V108.571Z" fill="black"/>
<path d="M62.0409 108.571H58.1633V112.449H62.0409V108.571Z" fill="black"/>
<path d="M65.9183 108.571H62.0408V112.449H65.9183V108.571Z" fill="black"/>
<path d="M69.796 108.571H65.9185V112.449H69.796V108.571Z" fill="black"/>
<path d="M73.6734 108.571H69.7959V112.449H73.6734V108.571Z" fill="black"/>
<path d="M77.5511 108.571H73.6736V112.449H77.5511V108.571Z" fill="black"/>
<path d="M108.571 108.571H104.694V112.449H108.571V108.571Z" fill="black"/>
<path d="M116.327 108.571H112.449V112.449H116.327V108.571Z" fill="black"/>
<path d="M120.204 108.571H116.326V112.449H120.204V108.571Z" fill="black"/>
<path d="M135.714 108.571H131.837V112.449H135.714V108.571Z" fill="black"/>
<path d="M139.592 108.571H135.714V112.449H139.592V108.571Z" fill="black"/>
<path d="M147.347 108.571H143.469V112.449H147.347V108.571Z" fill="black"/>
<path d="M151.224 108.571H147.347V112.449H151.224V108.571Z" fill="black"/>
<path d="M158.98 108.571H155.102V112.449H158.98V108.571Z" fill="black"/>
<path d="M162.857 108.571H158.979V112.449H162.857V108.571Z" fill="black"/>
<path d="M166.735 108.571H162.857V112.449H166.735V108.571Z" fill="black"/>
<path d="M170.612 108.571H166.735V112.449H170.612V108.571Z" fill="black"/>
<path d="M178.367 108.571H174.49V112.449H178.367V108.571Z" fill="black"/>
<path d="M182.245 108.571H178.367V112.449H182.245V108.571Z" fill="black"/>
<path d="M186.122 108.571H182.245V112.449H186.122V108.571Z" fill="black"/>
<path d="M3.87755 112.449H0V116.327H3.87755V112.449Z" fill="black"/>
<path d="M19.3878 112.449H15.5103V116.327H19.3878V112.449Z" fill="black"/>
<path d="M23.2652 112.449H19.3877V116.327H23.2652V112.449Z" fill="black"/>
<path d="M31.0204 112.449H27.1428V116.327H31.0204V112.449Z" fill="black"/>
<path d="M38.7755 112.449H34.8979V116.327H38.7755V112.449Z" fill="black"/>
<path d="M42.6529 112.449H38.7754V116.327H42.6529V112.449Z" fill="black"/>
<path d="M46.5306 112.449H42.6531V116.327H46.5306V112.449Z" fill="black"/>
<path d="M50.4081 112.449H46.5305V116.327H50.4081V112.449Z" fill="black"/>
<path d="M58.1632 112.449H54.2856V116.327H58.1632V112.449Z" fill="black"/>
<path d="M89.1837 112.449H85.3062V116.327H89.1837V112.449Z" fill="black"/>
<path d="M100.816 112.449H96.9387V116.327H100.816V112.449Z" fill="black"/>
<path d="M104.694 112.449H100.816V116.327H104.694V112.449Z" fill="black"/>
<path d="M116.327 112.449H112.449V116.327H116.327V112.449Z" fill="black"/>
<path d="M186.122 112.449H182.245V116.327H186.122V112.449Z" fill="black"/>
<path d="M190 112.449H186.123V116.327H190V112.449Z" fill="black"/>
<path d="M3.87755 116.327H0V120.204H3.87755V116.327Z" fill="black"/>
<path d="M23.2652 116.327H19.3877V120.204H23.2652V116.327Z" fill="black"/>
<path d="M27.1429 116.327H23.2654V120.204H27.1429V116.327Z" fill="black"/>
<path d="M34.8981 116.327H31.0205V120.204H34.8981V116.327Z" fill="black"/>
<path d="M50.4081 116.327H46.5305V120.204H50.4081V116.327Z" fill="black"/>
<path d="M54.2858 116.327H50.4082V120.204H54.2858V116.327Z" fill="black"/>
<path d="M58.1632 116.327H54.2856V120.204H58.1632V116.327Z" fill="black"/>
<path d="M62.0409 116.327H58.1633V120.204H62.0409V116.327Z" fill="black"/>
<path d="M77.5511 116.327H73.6736V120.204H77.5511V116.327Z" fill="black"/>
<path d="M96.9388 116.327H93.0613V120.204H96.9388V116.327Z" fill="black"/>
<path d="M100.816 116.327H96.9387V120.204H100.816V116.327Z" fill="black"/>
<path d="M108.571 116.327H104.694V120.204H108.571V116.327Z" fill="black"/>
<path d="M131.837 116.327H127.959V120.204H131.837V116.327Z" fill="black"/>
<path d="M143.469 116.327H139.592V120.204H143.469V116.327Z" fill="black"/>
<path d="M147.347 116.327H143.469V120.204H147.347V116.327Z" fill="black"/>
<path d="M151.224 116.327H147.347V120.204H151.224V116.327Z" fill="black"/>
<path d="M155.102 116.327H151.225V120.204H155.102V116.327Z" fill="black"/>
<path d="M162.857 116.327H158.979V120.204H162.857V116.327Z" fill="black"/>
<path d="M166.735 116.327H162.857V120.204H166.735V116.327Z" fill="black"/>
<path d="M170.612 116.327H166.735V120.204H170.612V116.327Z" fill="black"/>
<path d="M182.245 116.327H178.367V120.204H182.245V116.327Z" fill="black"/>
<path d="M3.87755 120.204H0V124.082H3.87755V120.204Z" fill="black"/>
<path d="M7.75499 120.204H3.87744V124.082H7.75499V120.204Z" fill="black"/>
<path d="M11.6327 120.204H7.75513V124.082H11.6327V120.204Z" fill="black"/>
<path d="M19.3878 120.204H15.5103V124.082H19.3878V120.204Z" fill="black"/>
<path d="M34.8981 120.204H31.0205V124.082H34.8981V120.204Z" fill="black"/>
<path d="M46.5306 120.204H42.6531V124.082H46.5306V120.204Z" fill="black"/>
<path d="M54.2858 120.204H50.4082V124.082H54.2858V120.204Z" fill="black"/>
<path d="M69.796 120.204H65.9185V124.082H69.796V120.204Z" fill="black"/>
<path d="M77.5511 120.204H73.6736V124.082H77.5511V120.204Z" fill="black"/>
<path d="M85.306 120.204H81.4285V124.082H85.306V120.204Z" fill="black"/>
<path d="M93.0611 120.204H89.1836V124.082H93.0611V120.204Z" fill="black"/>
<path d="M96.9388 120.204H93.0613V124.082H96.9388V120.204Z" fill="black"/>
<path d="M116.327 120.204H112.449V124.082H116.327V120.204Z" fill="black"/>
<path d="M120.204 120.204H116.326V124.082H120.204V120.204Z" fill="black"/>
<path d="M124.082 120.204H120.204V124.082H124.082V120.204Z" fill="black"/>
<path d="M139.592 120.204H135.714V124.082H139.592V120.204Z" fill="black"/>
<path d="M143.469 120.204H139.592V124.082H143.469V120.204Z" fill="black"/>
<path d="M147.347 120.204H143.469V124.082H147.347V120.204Z" fill="black"/>
<path d="M155.102 120.204H151.225V124.082H155.102V120.204Z" fill="black"/>
<path d="M162.857 120.204H158.979V124.082H162.857V120.204Z" fill="black"/>
<path d="M178.367 120.204H174.49V124.082H178.367V120.204Z" fill="black"/>
<path d="M7.75499 124.082H3.87744V127.959H7.75499V124.082Z" fill="black"/>
<path d="M11.6327 124.082H7.75513V127.959H11.6327V124.082Z" fill="black"/>
<path d="M15.5101 124.082H11.6326V127.959H15.5101V124.082Z" fill="black"/>
<path d="M19.3878 124.082H15.5103V127.959H19.3878V124.082Z" fill="black"/>
<path d="M23.2652 124.082H19.3877V127.959H23.2652V124.082Z" fill="black"/>
<path d="M27.1429 124.082H23.2654V127.959H27.1429V124.082Z" fill="black"/>
<path d="M42.6529 124.082H38.7754V127.959H42.6529V124.082Z" fill="black"/>
<path d="M50.4081 124.082H46.5305V127.959H50.4081V124.082Z" fill="black"/>
<path d="M54.2858 124.082H50.4082V127.959H54.2858V124.082Z" fill="black"/>
<path d="M58.1632 124.082H54.2856V127.959H58.1632V124.082Z" fill="black"/>
<path d="M62.0409 124.082H58.1633V127.959H62.0409V124.082Z" fill="black"/>
<path d="M65.9183 124.082H62.0408V127.959H65.9183V124.082Z" fill="black"/>
<path d="M73.6734 124.082H69.7959V127.959H73.6734V124.082Z" fill="black"/>
<path d="M89.1837 124.082H85.3062V127.959H89.1837V124.082Z" fill="black"/>
<path d="M93.0611 124.082H89.1836V127.959H93.0611V124.082Z" fill="black"/>
<path d="M104.694 124.082H100.816V127.959H104.694V124.082Z" fill="black"/>
<path d="M108.571 124.082H104.694V127.959H108.571V124.082Z" fill="black"/>
<path d="M112.449 124.082H108.572V127.959H112.449V124.082Z" fill="black"/>
<path d="M131.837 124.082H127.959V127.959H131.837V124.082Z" fill="black"/>
<path d="M135.714 124.082H131.837V127.959H135.714V124.082Z" fill="black"/>
<path d="M143.469 124.082H139.592V127.959H143.469V124.082Z" fill="black"/>
<path d="M147.347 124.082H143.469V127.959H147.347V124.082Z" fill="black"/>
<path d="M151.224 124.082H147.347V127.959H151.224V124.082Z" fill="black"/>
<path d="M155.102 124.082H151.225V127.959H155.102V124.082Z" fill="black"/>
<path d="M158.98 124.082H155.102V127.959H158.98V124.082Z" fill="black"/>
<path d="M162.857 124.082H158.979V127.959H162.857V124.082Z" fill="black"/>
<path d="M166.735 124.082H162.857V127.959H166.735V124.082Z" fill="black"/>
<path d="M170.612 124.082H166.735V127.959H170.612V124.082Z" fill="black"/>
<path d="M182.245 124.082H178.367V127.959H182.245V124.082Z" fill="black"/>
<path d="M186.122 124.082H182.245V127.959H186.122V124.082Z" fill="black"/>
<path d="M190 124.082H186.123V127.959H190V124.082Z" fill="black"/>
<path d="M3.87755 127.959H0V131.837H3.87755V127.959Z" fill="black"/>
<path d="M11.6327 127.959H7.75513V131.837H11.6327V127.959Z" fill="black"/>
<path d="M19.3878 127.959H15.5103V131.837H19.3878V127.959Z" fill="black"/>
<path d="M34.8981 127.959H31.0205V131.837H34.8981V127.959Z" fill="black"/>
<path d="M38.7755 127.959H34.8979V131.837H38.7755V127.959Z" fill="black"/>
<path d="M69.796 127.959H65.9185V131.837H69.796V127.959Z" fill="black"/>
<path d="M77.5511 127.959H73.6736V131.837H77.5511V127.959Z" fill="black"/>
<path d="M81.4286 127.959H77.551V131.837H81.4286V127.959Z" fill="black"/>
<path d="M85.306 127.959H81.4285V131.837H85.306V127.959Z" fill="black"/>
<path d="M89.1837 127.959H85.3062V131.837H89.1837V127.959Z" fill="black"/>
<path d="M96.9388 127.959H93.0613V131.837H96.9388V127.959Z" fill="black"/>
<path d="M108.571 127.959H104.694V131.837H108.571V127.959Z" fill="black"/>
<path d="M112.449 127.959H108.572V131.837H112.449V127.959Z" fill="black"/>
<path d="M124.082 127.959H120.204V131.837H124.082V127.959Z" fill="black"/>
<path d="M135.714 127.959H131.837V131.837H135.714V127.959Z" fill="black"/>
<path d="M139.592 127.959H135.714V131.837H139.592V127.959Z" fill="black"/>
<path d="M143.469 127.959H139.592V131.837H143.469V127.959Z" fill="black"/>
<path d="M147.347 127.959H143.469V131.837H147.347V127.959Z" fill="black"/>
<path d="M158.98 127.959H155.102V131.837H158.98V127.959Z" fill="black"/>
<path d="M178.367 127.959H174.49V131.837H178.367V127.959Z" fill="black"/>
<path d="M186.122 127.959H182.245V131.837H186.122V127.959Z" fill="black"/>
<path d="M190 127.959H186.123V131.837H190V127.959Z" fill="black"/>
<path d="M11.6327 131.837H7.75513V135.714H11.6327V131.837Z" fill="black"/>
<path d="M15.5101 131.837H11.6326V135.714H15.5101V131.837Z" fill="black"/>
<path d="M23.2652 131.837H19.3877V135.714H23.2652V131.837Z" fill="black"/>
<path d="M27.1429 131.837H23.2654V135.714H27.1429V131.837Z" fill="black"/>
<path d="M34.8981 131.837H31.0205V135.714H34.8981V131.837Z" fill="black"/>
<path d="M38.7755 131.837H34.8979V135.714H38.7755V131.837Z" fill="black"/>
<path d="M42.6529 131.837H38.7754V135.714H42.6529V131.837Z" fill="black"/>
<path d="M46.5306 131.837H42.6531V135.714H46.5306V131.837Z" fill="black"/>
<path d="M54.2858 131.837H50.4082V135.714H54.2858V131.837Z" fill="black"/>
<path d="M58.1632 131.837H54.2856V135.714H58.1632V131.837Z" fill="black"/>
<path d="M62.0409 131.837H58.1633V135.714H62.0409V131.837Z" fill="black"/>
<path d="M65.9183 131.837H62.0408V135.714H65.9183V131.837Z" fill="black"/>
<path d="M69.796 131.837H65.9185V135.714H69.796V131.837Z" fill="black"/>
<path d="M85.306 131.837H81.4285V135.714H85.306V131.837Z" fill="black"/>
<path d="M89.1837 131.837H85.3062V135.714H89.1837V131.837Z" fill="black"/>
<path d="M100.816 131.837H96.9387V135.714H100.816V131.837Z" fill="black"/>
<path d="M104.694 131.837H100.816V135.714H104.694V131.837Z" fill="black"/>
<path d="M108.571 131.837H104.694V135.714H108.571V131.837Z" fill="black"/>
<path d="M112.449 131.837H108.572V135.714H112.449V131.837Z" fill="black"/>
<path d="M135.714 131.837H131.837V135.714H135.714V131.837Z" fill="black"/>
<path d="M143.469 131.837H139.592V135.714H143.469V131.837Z" fill="black"/>
<path d="M147.347 131.837H143.469V135.714H147.347V131.837Z" fill="black"/>
<path d="M155.102 131.837H151.225V135.714H155.102V131.837Z" fill="black"/>
<path d="M166.735 131.837H162.857V135.714H166.735V131.837Z" fill="black"/>
<path d="M174.49 131.837H170.612V135.714H174.49V131.837Z" fill="black"/>
<path d="M178.367 131.837H174.49V135.714H178.367V131.837Z" fill="black"/>
<path d="M182.245 131.837H178.367V135.714H182.245V131.837Z" fill="black"/>
<path d="M3.87755 135.714H0V139.592H3.87755V135.714Z" fill="black"/>
<path d="M11.6327 135.714H7.75513V139.592H11.6327V135.714Z" fill="black"/>
<path d="M15.5101 135.714H11.6326V139.592H15.5101V135.714Z" fill="black"/>
<path d="M23.2652 135.714H19.3877V139.592H23.2652V135.714Z" fill="black"/>
<path d="M31.0204 135.714H27.1428V139.592H31.0204V135.714Z" fill="black"/>
<path d="M34.8981 135.714H31.0205V139.592H34.8981V135.714Z" fill="black"/>
<path d="M38.7755 135.714H34.8979V139.592H38.7755V135.714Z" fill="black"/>
<path d="M46.5306 135.714H42.6531V139.592H46.5306V135.714Z" fill="black"/>
<path d="M54.2858 135.714H50.4082V139.592H54.2858V135.714Z" fill="black"/>
<path d="M69.796 135.714H65.9185V139.592H69.796V135.714Z" fill="black"/>
<path d="M77.5511 135.714H73.6736V139.592H77.5511V135.714Z" fill="black"/>
<path d="M89.1837 135.714H85.3062V139.592H89.1837V135.714Z" fill="black"/>
<path d="M93.0611 135.714H89.1836V139.592H93.0611V135.714Z" fill="black"/>
<path d="M116.327 135.714H112.449V139.592H116.327V135.714Z" fill="black"/>
<path d="M124.082 135.714H120.204V139.592H124.082V135.714Z" fill="black"/>
<path d="M139.592 135.714H135.714V139.592H139.592V135.714Z" fill="black"/>
<path d="M147.347 135.714H143.469V139.592H147.347V135.714Z" fill="black"/>
<path d="M155.102 135.714H151.225V139.592H155.102V135.714Z" fill="black"/>
<path d="M158.98 135.714H155.102V139.592H158.98V135.714Z" fill="black"/>
<path d="M162.857 135.714H158.979V139.592H162.857V135.714Z" fill="black"/>
<path d="M166.735 135.714H162.857V139.592H166.735V135.714Z" fill="black"/>
<path d="M170.612 135.714H166.735V139.592H170.612V135.714Z" fill="black"/>
<path d="M182.245 135.714H178.367V139.592H182.245V135.714Z" fill="black"/>
<path d="M7.75499 139.592H3.87744V143.469H7.75499V139.592Z" fill="black"/>
<path d="M11.6327 139.592H7.75513V143.469H11.6327V139.592Z" fill="black"/>
<path d="M23.2652 139.592H19.3877V143.469H23.2652V139.592Z" fill="black"/>
<path d="M27.1429 139.592H23.2654V143.469H27.1429V139.592Z" fill="black"/>
<path d="M46.5306 139.592H42.6531V143.469H46.5306V139.592Z" fill="black"/>
<path d="M50.4081 139.592H46.5305V143.469H50.4081V139.592Z" fill="black"/>
<path d="M62.0409 139.592H58.1633V143.469H62.0409V139.592Z" fill="black"/>
<path d="M81.4286 139.592H77.551V143.469H81.4286V139.592Z" fill="black"/>
<path d="M85.306 139.592H81.4285V143.469H85.306V139.592Z" fill="black"/>
<path d="M112.449 139.592H108.572V143.469H112.449V139.592Z" fill="black"/>
<path d="M116.327 139.592H112.449V143.469H116.327V139.592Z" fill="black"/>
<path d="M120.204 139.592H116.326V143.469H120.204V139.592Z" fill="black"/>
<path d="M127.959 139.592H124.082V143.469H127.959V139.592Z" fill="black"/>
<path d="M135.714 139.592H131.837V143.469H135.714V139.592Z" fill="black"/>
<path d="M143.469 139.592H139.592V143.469H143.469V139.592Z" fill="black"/>
<path d="M151.224 139.592H147.347V143.469H151.224V139.592Z" fill="black"/>
<path d="M162.857 139.592H158.979V143.469H162.857V139.592Z" fill="black"/>
<path d="M166.735 139.592H162.857V143.469H166.735V139.592Z" fill="black"/>
<path d="M170.612 139.592H166.735V143.469H170.612V139.592Z" fill="black"/>
<path d="M174.49 139.592H170.612V143.469H174.49V139.592Z" fill="black"/>
<path d="M178.367 139.592H174.49V143.469H178.367V139.592Z" fill="black"/>
<path d="M182.245 139.592H178.367V143.469H182.245V139.592Z" fill="black"/>
<path d="M186.122 139.592H182.245V143.469H186.122V139.592Z" fill="black"/>
<path d="M190 139.592H186.123V143.469H190V139.592Z" fill="black"/>
<path d="M7.75499 143.469H3.87744V147.347H7.75499V143.469Z" fill="black"/>
<path d="M31.0204 143.469H27.1428V147.347H31.0204V143.469Z" fill="black"/>
<path d="M34.8981 143.469H31.0205V147.347H34.8981V143.469Z" fill="black"/>
<path d="M38.7755 143.469H34.8979V147.347H38.7755V143.469Z" fill="black"/>
<path d="M42.6529 143.469H38.7754V147.347H42.6529V143.469Z" fill="black"/>
<path d="M46.5306 143.469H42.6531V147.347H46.5306V143.469Z" fill="black"/>
<path d="M50.4081 143.469H46.5305V147.347H50.4081V143.469Z" fill="black"/>
<path d="M54.2858 143.469H50.4082V147.347H54.2858V143.469Z" fill="black"/>
<path d="M58.1632 143.469H54.2856V147.347H58.1632V143.469Z" fill="black"/>
<path d="M62.0409 143.469H58.1633V147.347H62.0409V143.469Z" fill="black"/>
<path d="M73.6734 143.469H69.7959V147.347H73.6734V143.469Z" fill="black"/>
<path d="M93.0611 143.469H89.1836V147.347H93.0611V143.469Z" fill="black"/>
<path d="M112.449 143.469H108.572V147.347H112.449V143.469Z" fill="black"/>
<path d="M116.327 143.469H112.449V147.347H116.327V143.469Z" fill="black"/>
<path d="M124.082 143.469H120.204V147.347H124.082V143.469Z" fill="black"/>
<path d="M127.959 143.469H124.082V147.347H127.959V143.469Z" fill="black"/>
<path d="M131.837 143.469H127.959V147.347H131.837V143.469Z" fill="black"/>
<path d="M139.592 143.469H135.714V147.347H139.592V143.469Z" fill="black"/>
<path d="M151.224 143.469H147.347V147.347H151.224V143.469Z" fill="black"/>
<path d="M158.98 143.469H155.102V147.347H158.98V143.469Z" fill="black"/>
<path d="M170.612 143.469H166.735V147.347H170.612V143.469Z" fill="black"/>
<path d="M174.49 143.469H170.612V147.347H174.49V143.469Z" fill="black"/>
<path d="M182.245 143.469H178.367V147.347H182.245V143.469Z" fill="black"/>
<path d="M190 143.469H186.123V147.347H190V143.469Z" fill="black"/>
<path d="M7.75499 147.347H3.87744V151.224H7.75499V147.347Z" fill="black"/>
<path d="M23.2652 147.347H19.3877V151.224H23.2652V147.347Z" fill="black"/>
<path d="M27.1429 147.347H23.2654V151.224H27.1429V147.347Z" fill="black"/>
<path d="M38.7755 147.347H34.8979V151.224H38.7755V147.347Z" fill="black"/>
<path d="M50.4081 147.347H46.5305V151.224H50.4081V147.347Z" fill="black"/>
<path d="M62.0409 147.347H58.1633V151.224H62.0409V147.347Z" fill="black"/>
<path d="M65.9183 147.347H62.0408V151.224H65.9183V147.347Z" fill="black"/>
<path d="M73.6734 147.347H69.7959V151.224H73.6734V147.347Z" fill="black"/>
<path d="M81.4286 147.347H77.551V151.224H81.4286V147.347Z" fill="black"/>
<path d="M96.9388 147.347H93.0613V151.224H96.9388V147.347Z" fill="black"/>
<path d="M100.816 147.347H96.9387V151.224H100.816V147.347Z" fill="black"/>
<path d="M104.694 147.347H100.816V151.224H104.694V147.347Z" fill="black"/>
<path d="M112.449 147.347H108.572V151.224H112.449V147.347Z" fill="black"/>
<path d="M124.082 147.347H120.204V151.224H124.082V147.347Z" fill="black"/>
<path d="M131.837 147.347H127.959V151.224H131.837V147.347Z" fill="black"/>
<path d="M135.714 147.347H131.837V151.224H135.714V147.347Z" fill="black"/>
<path d="M139.592 147.347H135.714V151.224H139.592V147.347Z" fill="black"/>
<path d="M143.469 147.347H139.592V151.224H143.469V147.347Z" fill="black"/>
<path d="M147.347 147.347H143.469V151.224H147.347V147.347Z" fill="black"/>
<path d="M155.102 147.347H151.225V151.224H155.102V147.347Z" fill="black"/>
<path d="M162.857 147.347H158.979V151.224H162.857V147.347Z" fill="black"/>
<path d="M166.735 147.347H162.857V151.224H166.735V147.347Z" fill="black"/>
<path d="M170.612 147.347H166.735V151.224H170.612V147.347Z" fill="black"/>
<path d="M174.49 147.347H170.612V151.224H174.49V147.347Z" fill="black"/>
<path d="M178.367 147.347H174.49V151.224H178.367V147.347Z" fill="black"/>
<path d="M182.245 147.347H178.367V151.224H182.245V147.347Z" fill="black"/>
<path d="M186.122 147.347H182.245V151.224H186.122V147.347Z" fill="black"/>
<path d="M190 147.347H186.123V151.224H190V147.347Z" fill="black"/>
<path d="M7.75499 151.224H3.87744V155.102H7.75499V151.224Z" fill="black"/>
<path d="M11.6327 151.224H7.75513V155.102H11.6327V151.224Z" fill="black"/>
<path d="M15.5101 151.224H11.6326V155.102H15.5101V151.224Z" fill="black"/>
<path d="M38.7755 151.224H34.8979V155.102H38.7755V151.224Z" fill="black"/>
<path d="M42.6529 151.224H38.7754V155.102H42.6529V151.224Z" fill="black"/>
<path d="M46.5306 151.224H42.6531V155.102H46.5306V151.224Z" fill="black"/>
<path d="M54.2858 151.224H50.4082V155.102H54.2858V151.224Z" fill="black"/>
<path d="M81.4286 151.224H77.551V155.102H81.4286V151.224Z" fill="black"/>
<path d="M89.1837 151.224H85.3062V155.102H89.1837V151.224Z" fill="black"/>
<path d="M93.0611 151.224H89.1836V155.102H93.0611V151.224Z" fill="black"/>
<path d="M96.9388 151.224H93.0613V155.102H96.9388V151.224Z" fill="black"/>
<path d="M116.327 151.224H112.449V155.102H116.327V151.224Z" fill="black"/>
<path d="M124.082 151.224H120.204V155.102H124.082V151.224Z" fill="black"/>
<path d="M135.714 151.224H131.837V155.102H135.714V151.224Z" fill="black"/>
<path d="M147.347 151.224H143.469V155.102H147.347V151.224Z" fill="black"/>
<path d="M151.224 151.224H147.347V155.102H151.224V151.224Z" fill="black"/>
<path d="M155.102 151.224H151.225V155.102H155.102V151.224Z" fill="black"/>
<path d="M166.735 151.224H162.857V155.102H166.735V151.224Z" fill="black"/>
<path d="M182.245 151.224H178.367V155.102H182.245V151.224Z" fill="black"/>
<path d="M186.122 151.224H182.245V155.102H186.122V151.224Z" fill="black"/>
<path d="M3.87755 155.102H0V158.98H3.87755V155.102Z" fill="black"/>
<path d="M7.75499 155.102H3.87744V158.98H7.75499V155.102Z" fill="black"/>
<path d="M11.6327 155.102H7.75513V158.98H11.6327V155.102Z" fill="black"/>
<path d="M27.1429 155.102H23.2654V158.98H27.1429V155.102Z" fill="black"/>
<path d="M31.0204 155.102H27.1428V158.98H31.0204V155.102Z" fill="black"/>
<path d="M34.8981 155.102H31.0205V158.98H34.8981V155.102Z" fill="black"/>
<path d="M38.7755 155.102H34.8979V158.98H38.7755V155.102Z" fill="black"/>
<path d="M46.5306 155.102H42.6531V158.98H46.5306V155.102Z" fill="black"/>
<path d="M62.0409 155.102H58.1633V158.98H62.0409V155.102Z" fill="black"/>
<path d="M81.4286 155.102H77.551V158.98H81.4286V155.102Z" fill="black"/>
<path d="M89.1837 155.102H85.3062V158.98H89.1837V155.102Z" fill="black"/>
<path d="M93.0611 155.102H89.1836V158.98H93.0611V155.102Z" fill="black"/>
<path d="M96.9388 155.102H93.0613V158.98H96.9388V155.102Z" fill="black"/>
<path d="M100.816 155.102H96.9387V158.98H100.816V155.102Z" fill="black"/>
<path d="M104.694 155.102H100.816V158.98H104.694V155.102Z" fill="black"/>
<path d="M112.449 155.102H108.572V158.98H112.449V155.102Z" fill="black"/>
<path d="M120.204 155.102H116.326V158.98H120.204V155.102Z" fill="black"/>
<path d="M124.082 155.102H120.204V158.98H124.082V155.102Z" fill="black"/>
<path d="M127.959 155.102H124.082V158.98H127.959V155.102Z" fill="black"/>
<path d="M131.837 155.102H127.959V158.98H131.837V155.102Z" fill="black"/>
<path d="M135.714 155.102H131.837V158.98H135.714V155.102Z" fill="black"/>
<path d="M139.592 155.102H135.714V158.98H139.592V155.102Z" fill="black"/>
<path d="M151.224 155.102H147.347V158.98H151.224V155.102Z" fill="black"/>
<path d="M155.102 155.102H151.225V158.98H155.102V155.102Z" fill="black"/>
<path d="M158.98 155.102H155.102V158.98H158.98V155.102Z" fill="black"/>
<path d="M162.857 155.102H158.979V158.98H162.857V155.102Z" fill="black"/>
<path d="M166.735 155.102H162.857V158.98H166.735V155.102Z" fill="black"/>
<path d="M170.612 155.102H166.735V158.98H170.612V155.102Z" fill="black"/>
<path d="M174.49 155.102H170.612V158.98H174.49V155.102Z" fill="black"/>
<path d="M178.367 155.102H174.49V158.98H178.367V155.102Z" fill="black"/>
<path d="M186.122 155.102H182.245V158.98H186.122V155.102Z" fill="black"/>
<path d="M190 155.102H186.123V158.98H190V155.102Z" fill="black"/>
<path d="M34.8981 158.98H31.0205V162.857H34.8981V158.98Z" fill="black"/>
<path d="M38.7755 158.98H34.8979V162.857H38.7755V158.98Z" fill="black"/>
<path d="M42.6529 158.98H38.7754V162.857H42.6529V158.98Z" fill="black"/>
<path d="M46.5306 158.98H42.6531V162.857H46.5306V158.98Z" fill="black"/>
<path d="M54.2858 158.98H50.4082V162.857H54.2858V158.98Z" fill="black"/>
<path d="M58.1632 158.98H54.2856V162.857H58.1632V158.98Z" fill="black"/>
<path d="M62.0409 158.98H58.1633V162.857H62.0409V158.98Z" fill="black"/>
<path d="M65.9183 158.98H62.0408V162.857H65.9183V158.98Z" fill="black"/>
<path d="M73.6734 158.98H69.7959V162.857H73.6734V158.98Z" fill="black"/>
<path d="M77.5511 158.98H73.6736V162.857H77.5511V158.98Z" fill="black"/>
<path d="M81.4286 158.98H77.551V162.857H81.4286V158.98Z" fill="black"/>
<path d="M89.1837 158.98H85.3062V162.857H89.1837V158.98Z" fill="black"/>
<path d="M104.694 158.98H100.816V162.857H104.694V158.98Z" fill="black"/>
<path d="M116.327 158.98H112.449V162.857H116.327V158.98Z" fill="black"/>
<path d="M120.204 158.98H116.326V162.857H120.204V158.98Z" fill="black"/>
<path d="M127.959 158.98H124.082V162.857H127.959V158.98Z" fill="black"/>
<path d="M135.714 158.98H131.837V162.857H135.714V158.98Z" fill="black"/>
<path d="M147.347 158.98H143.469V162.857H147.347V158.98Z" fill="black"/>
<path d="M151.224 158.98H147.347V162.857H151.224V158.98Z" fill="black"/>
<path d="M158.98 158.98H155.102V162.857H158.98V158.98Z" fill="black"/>
<path d="M174.49 158.98H170.612V162.857H174.49V158.98Z" fill="black"/>
<path d="M186.122 158.98H182.245V162.857H186.122V158.98Z" fill="black"/>
<path d="M190 158.98H186.123V162.857H190V158.98Z" fill="black"/>
<path d="M3.87755 162.857H0V166.735H3.87755V162.857Z" fill="black"/>
<path d="M7.75499 162.857H3.87744V166.735H7.75499V162.857Z" fill="black"/>
<path d="M11.6327 162.857H7.75513V166.735H11.6327V162.857Z" fill="black"/>
<path d="M15.5101 162.857H11.6326V166.735H15.5101V162.857Z" fill="black"/>
<path d="M19.3878 162.857H15.5103V166.735H19.3878V162.857Z" fill="black"/>
<path d="M23.2652 162.857H19.3877V166.735H23.2652V162.857Z" fill="black"/>
<path d="M27.1429 162.857H23.2654V166.735H27.1429V162.857Z" fill="black"/>
<path d="M46.5306 162.857H42.6531V166.735H46.5306V162.857Z" fill="black"/>
<path d="M54.2858 162.857H50.4082V166.735H54.2858V162.857Z" fill="black"/>
<path d="M62.0409 162.857H58.1633V166.735H62.0409V162.857Z" fill="black"/>
<path d="M89.1837 162.857H85.3062V166.735H89.1837V162.857Z" fill="black"/>
<path d="M96.9388 162.857H93.0613V166.735H96.9388V162.857Z" fill="black"/>
<path d="M104.694 162.857H100.816V166.735H104.694V162.857Z" fill="black"/>
<path d="M108.571 162.857H104.694V166.735H108.571V162.857Z" fill="black"/>
<path d="M112.449 162.857H108.572V166.735H112.449V162.857Z" fill="black"/>
<path d="M116.327 162.857H112.449V166.735H116.327V162.857Z" fill="black"/>
<path d="M120.204 162.857H116.326V166.735H120.204V162.857Z" fill="black"/>
<path d="M124.082 162.857H120.204V166.735H124.082V162.857Z" fill="black"/>
<path d="M131.837 162.857H127.959V166.735H131.837V162.857Z" fill="black"/>
<path d="M143.469 162.857H139.592V166.735H143.469V162.857Z" fill="black"/>
<path d="M158.98 162.857H155.102V166.735H158.98V162.857Z" fill="black"/>
<path d="M166.735 162.857H162.857V166.735H166.735V162.857Z" fill="black"/>
<path d="M174.49 162.857H170.612V166.735H174.49V162.857Z" fill="black"/>
<path d="M178.367 162.857H174.49V166.735H178.367V162.857Z" fill="black"/>
<path d="M182.245 162.857H178.367V166.735H182.245V162.857Z" fill="black"/>
<path d="M3.87755 166.735H0V170.612H3.87755V166.735Z" fill="black"/>
<path d="M27.1429 166.735H23.2654V170.612H27.1429V166.735Z" fill="black"/>
<path d="M38.7755 166.735H34.8979V170.612H38.7755V166.735Z" fill="black"/>
<path d="M42.6529 166.735H38.7754V170.612H42.6529V166.735Z" fill="black"/>
<path d="M46.5306 166.735H42.6531V170.612H46.5306V166.735Z" fill="black"/>
<path d="M54.2858 166.735H50.4082V170.612H54.2858V166.735Z" fill="black"/>
<path d="M58.1632 166.735H54.2856V170.612H58.1632V166.735Z" fill="black"/>
<path d="M65.9183 166.735H62.0408V170.612H65.9183V166.735Z" fill="black"/>
<path d="M69.796 166.735H65.9185V170.612H69.796V166.735Z" fill="black"/>
<path d="M73.6734 166.735H69.7959V170.612H73.6734V166.735Z" fill="black"/>
<path d="M81.4286 166.735H77.551V170.612H81.4286V166.735Z" fill="black"/>
<path d="M85.306 166.735H81.4285V170.612H85.306V166.735Z" fill="black"/>
<path d="M89.1837 166.735H85.3062V170.612H89.1837V166.735Z" fill="black"/>
<path d="M104.694 166.735H100.816V170.612H104.694V166.735Z" fill="black"/>
<path d="M112.449 166.735H108.572V170.612H112.449V166.735Z" fill="black"/>
<path d="M124.082 166.735H120.204V170.612H124.082V166.735Z" fill="black"/>
<path d="M139.592 166.735H135.714V170.612H139.592V166.735Z" fill="black"/>
<path d="M158.98 166.735H155.102V170.612H158.98V166.735Z" fill="black"/>
<path d="M174.49 166.735H170.612V170.612H174.49V166.735Z" fill="black"/>
<path d="M178.367 166.735H174.49V170.612H178.367V166.735Z" fill="black"/>
<path d="M182.245 166.735H178.367V170.612H182.245V166.735Z" fill="black"/>
<path d="M186.122 166.735H182.245V170.612H186.122V166.735Z" fill="black"/>
<path d="M3.87755 170.612H0V174.49H3.87755V170.612Z" fill="black"/>
<path d="M11.6327 170.612H7.75513V174.49H11.6327V170.612Z" fill="black"/>
<path d="M15.5101 170.612H11.6326V174.49H15.5101V170.612Z" fill="black"/>
<path d="M19.3878 170.612H15.5103V174.49H19.3878V170.612Z" fill="black"/>
<path d="M27.1429 170.612H23.2654V174.49H27.1429V170.612Z" fill="black"/>
<path d="M34.8981 170.612H31.0205V174.49H34.8981V170.612Z" fill="black"/>
<path d="M38.7755 170.612H34.8979V174.49H38.7755V170.612Z" fill="black"/>
<path d="M42.6529 170.612H38.7754V174.49H42.6529V170.612Z" fill="black"/>
<path d="M50.4081 170.612H46.5305V174.49H50.4081V170.612Z" fill="black"/>
<path d="M65.9183 170.612H62.0408V174.49H65.9183V170.612Z" fill="black"/>
<path d="M77.5511 170.612H73.6736V174.49H77.5511V170.612Z" fill="black"/>
<path d="M89.1837 170.612H85.3062V174.49H89.1837V170.612Z" fill="black"/>
<path d="M93.0611 170.612H89.1836V174.49H93.0611V170.612Z" fill="black"/>
<path d="M96.9388 170.612H93.0613V174.49H96.9388V170.612Z" fill="black"/>
<path d="M100.816 170.612H96.9387V174.49H100.816V170.612Z" fill="black"/>
<path d="M104.694 170.612H100.816V174.49H104.694V170.612Z" fill="black"/>
<path d="M131.837 170.612H127.959V174.49H131.837V170.612Z" fill="black"/>
<path d="M135.714 170.612H131.837V174.49H135.714V170.612Z" fill="black"/>
<path d="M139.592 170.612H135.714V174.49H139.592V170.612Z" fill="black"/>
<path d="M151.224 170.612H147.347V174.49H151.224V170.612Z" fill="black"/>
<path d="M155.102 170.612H151.225V174.49H155.102V170.612Z" fill="black"/>
<path d="M158.98 170.612H155.102V174.49H158.98V170.612Z" fill="black"/>
<path d="M162.857 170.612H158.979V174.49H162.857V170.612Z" fill="black"/>
<path d="M166.735 170.612H162.857V174.49H166.735V170.612Z" fill="black"/>
<path d="M170.612 170.612H166.735V174.49H170.612V170.612Z" fill="black"/>
<path d="M174.49 170.612H170.612V174.49H174.49V170.612Z" fill="black"/>
<path d="M178.367 170.612H174.49V174.49H178.367V170.612Z" fill="black"/>
<path d="M186.122 170.612H182.245V174.49H186.122V170.612Z" fill="black"/>
<path d="M190 170.612H186.123V174.49H190V170.612Z" fill="black"/>
<path d="M3.87755 174.49H0V178.367H3.87755V174.49Z" fill="black"/>
<path d="M11.6327 174.49H7.75513V178.367H11.6327V174.49Z" fill="black"/>
<path d="M15.5101 174.49H11.6326V178.367H15.5101V174.49Z" fill="black"/>
<path d="M19.3878 174.49H15.5103V178.367H19.3878V174.49Z" fill="black"/>
<path d="M27.1429 174.49H23.2654V178.367H27.1429V174.49Z" fill="black"/>
<path d="M34.8981 174.49H31.0205V178.367H34.8981V174.49Z" fill="black"/>
<path d="M38.7755 174.49H34.8979V178.367H38.7755V174.49Z" fill="black"/>
<path d="M42.6529 174.49H38.7754V178.367H42.6529V174.49Z" fill="black"/>
<path d="M50.4081 174.49H46.5305V178.367H50.4081V174.49Z" fill="black"/>
<path d="M54.2858 174.49H50.4082V178.367H54.2858V174.49Z" fill="black"/>
<path d="M58.1632 174.49H54.2856V178.367H58.1632V174.49Z" fill="black"/>
<path d="M62.0409 174.49H58.1633V178.367H62.0409V174.49Z" fill="black"/>
<path d="M65.9183 174.49H62.0408V178.367H65.9183V174.49Z" fill="black"/>
<path d="M69.796 174.49H65.9185V178.367H69.796V174.49Z" fill="black"/>
<path d="M77.5511 174.49H73.6736V178.367H77.5511V174.49Z" fill="black"/>
<path d="M85.306 174.49H81.4285V178.367H85.306V174.49Z" fill="black"/>
<path d="M89.1837 174.49H85.3062V178.367H89.1837V174.49Z" fill="black"/>
<path d="M93.0611 174.49H89.1836V178.367H93.0611V174.49Z" fill="black"/>
<path d="M104.694 174.49H100.816V178.367H104.694V174.49Z" fill="black"/>
<path d="M108.571 174.49H104.694V178.367H108.571V174.49Z" fill="black"/>
<path d="M112.449 174.49H108.572V178.367H112.449V174.49Z" fill="black"/>
<path d="M120.204 174.49H116.326V178.367H120.204V174.49Z" fill="black"/>
<path d="M127.959 174.49H124.082V178.367H127.959V174.49Z" fill="black"/>
<path d="M131.837 174.49H127.959V178.367H131.837V174.49Z" fill="black"/>
<path d="M147.347 174.49H143.469V178.367H147.347V174.49Z" fill="black"/>
<path d="M151.224 174.49H147.347V178.367H151.224V174.49Z" fill="black"/>
<path d="M162.857 174.49H158.979V178.367H162.857V174.49Z" fill="black"/>
<path d="M166.735 174.49H162.857V178.367H166.735V174.49Z" fill="black"/>
<path d="M170.612 174.49H166.735V178.367H170.612V174.49Z" fill="black"/>
<path d="M186.122 174.49H182.245V178.367H186.122V174.49Z" fill="black"/>
<path d="M190 174.49H186.123V178.367H190V174.49Z" fill="black"/>
<path d="M3.87755 178.367H0V182.245H3.87755V178.367Z" fill="black"/>
<path d="M11.6327 178.367H7.75513V182.245H11.6327V178.367Z" fill="black"/>
<path d="M15.5101 178.367H11.6326V182.245H15.5101V178.367Z" fill="black"/>
<path d="M19.3878 178.367H15.5103V182.245H19.3878V178.367Z" fill="black"/>
<path d="M27.1429 178.367H23.2654V182.245H27.1429V178.367Z" fill="black"/>
<path d="M34.8981 178.367H31.0205V182.245H34.8981V178.367Z" fill="black"/>
<path d="M38.7755 178.367H34.8979V182.245H38.7755V178.367Z" fill="black"/>
<path d="M54.2858 178.367H50.4082V182.245H54.2858V178.367Z" fill="black"/>
<path d="M58.1632 178.367H54.2856V182.245H58.1632V178.367Z" fill="black"/>
<path d="M65.9183 178.367H62.0408V182.245H65.9183V178.367Z" fill="black"/>
<path d="M69.796 178.367H65.9185V182.245H69.796V178.367Z" fill="black"/>
<path d="M81.4286 178.367H77.551V182.245H81.4286V178.367Z" fill="black"/>
<path d="M85.306 178.367H81.4285V182.245H85.306V178.367Z" fill="black"/>
<path d="M93.0611 178.367H89.1836V182.245H93.0611V178.367Z" fill="black"/>
<path d="M108.571 178.367H104.694V182.245H108.571V178.367Z" fill="black"/>
<path d="M116.327 178.367H112.449V182.245H116.327V178.367Z" fill="black"/>
<path d="M124.082 178.367H120.204V182.245H124.082V178.367Z" fill="black"/>
<path d="M143.469 178.367H139.592V182.245H143.469V178.367Z" fill="black"/>
<path d="M147.347 178.367H143.469V182.245H147.347V178.367Z" fill="black"/>
<path d="M151.224 178.367H147.347V182.245H151.224V178.367Z" fill="black"/>
<path d="M155.102 178.367H151.225V182.245H155.102V178.367Z" fill="black"/>
<path d="M162.857 178.367H158.979V182.245H162.857V178.367Z" fill="black"/>
<path d="M170.612 178.367H166.735V182.245H170.612V178.367Z" fill="black"/>
<path d="M178.367 178.367H174.49V182.245H178.367V178.367Z" fill="black"/>
<path d="M182.245 178.367H178.367V182.245H182.245V178.367Z" fill="black"/>
<path d="M190 178.367H186.123V182.245H190V178.367Z" fill="black"/>
<path d="M3.87755 182.245H0V186.122H3.87755V182.245Z" fill="black"/>
<path d="M27.1429 182.245H23.2654V186.122H27.1429V182.245Z" fill="black"/>
<path d="M46.5306 182.245H42.6531V186.122H46.5306V182.245Z" fill="black"/>
<path d="M50.4081 182.245H46.5305V186.122H50.4081V182.245Z" fill="black"/>
<path d="M54.2858 182.245H50.4082V186.122H54.2858V182.245Z" fill="black"/>
<path d="M62.0409 182.245H58.1633V186.122H62.0409V182.245Z" fill="black"/>
<path d="M69.796 182.245H65.9185V186.122H69.796V182.245Z" fill="black"/>
<path d="M73.6734 182.245H69.7959V186.122H73.6734V182.245Z" fill="black"/>
<path d="M77.5511 182.245H73.6736V186.122H77.5511V182.245Z" fill="black"/>
<path d="M85.306 182.245H81.4285V186.122H85.306V182.245Z" fill="black"/>
<path d="M93.0611 182.245H89.1836V186.122H93.0611V182.245Z" fill="black"/>
<path d="M100.816 182.245H96.9387V186.122H100.816V182.245Z" fill="black"/>
<path d="M124.082 182.245H120.204V186.122H124.082V182.245Z" fill="black"/>
<path d="M127.959 182.245H124.082V186.122H127.959V182.245Z" fill="black"/>
<path d="M139.592 182.245H135.714V186.122H139.592V182.245Z" fill="black"/>
<path d="M147.347 182.245H143.469V186.122H147.347V182.245Z" fill="black"/>
<path d="M166.735 182.245H162.857V186.122H166.735V182.245Z" fill="black"/>
<path d="M174.49 182.245H170.612V186.122H174.49V182.245Z" fill="black"/>
<path d="M182.245 182.245H178.367V186.122H182.245V182.245Z" fill="black"/>
<path d="M186.122 182.245H182.245V186.122H186.122V182.245Z" fill="black"/>
<path d="M3.87755 186.122H0V190H3.87755V186.122Z" fill="black"/>
<path d="M7.75499 186.122H3.87744V190H7.75499V186.122Z" fill="black"/>
<path d="M11.6327 186.122H7.75513V190H11.6327V186.122Z" fill="black"/>
<path d="M15.5101 186.122H11.6326V190H15.5101V186.122Z" fill="black"/>
<path d="M19.3878 186.122H15.5103V190H19.3878V186.122Z" fill="black"/>
<path d="M23.2652 186.122H19.3877V190H23.2652V186.122Z" fill="black"/>
<path d="M27.1429 186.122H23.2654V190H27.1429V186.122Z" fill="black"/>
<path d="M46.5306 186.122H42.6531V190H46.5306V186.122Z" fill="black"/>
<path d="M62.0409 186.122H58.1633V190H62.0409V186.122Z" fill="black"/>
<path d="M69.796 186.122H65.9185V190H69.796V186.122Z" fill="black"/>
<path d="M77.5511 186.122H73.6736V190H77.5511V186.122Z" fill="black"/>
<path d="M93.0611 186.122H89.1836V190H93.0611V186.122Z" fill="black"/>
<path d="M96.9388 186.122H93.0613V190H96.9388V186.122Z" fill="black"/>
<path d="M104.694 186.122H100.816V190H104.694V186.122Z" fill="black"/>
<path d="M135.714 186.122H131.837V190H135.714V186.122Z" fill="black"/>
<path d="M143.469 186.122H139.592V190H143.469V186.122Z" fill="black"/>
<path d="M151.224 186.122H147.347V190H151.224V186.122Z" fill="black"/>
<path d="M155.102 186.122H151.225V190H155.102V186.122Z" fill="black"/>
<path d="M170.612 186.122H166.735V190H170.612V186.122Z" fill="black"/>
<path d="M182.245 186.122H178.367V190H182.245V186.122Z" fill="black"/>
<path d="M186.122 186.122H182.245V190H186.122V186.122Z" fill="black"/>
<path d="M190 186.122H186.123V190H190V186.122Z" fill="black"/>
</g>
<defs>
<clipPath id="clip0_1045_211074">
<rect width="190" height="190" fill="white"/>
</clipPath>
</defs>
</svg>
