<svg width="14" height="14" viewBox="0 0 14 14" fill="none" xmlns="http://www.w3.org/2000/svg">
<g clip-path="url(#clip0_5402_1278)">
<path fill-rule="evenodd" clip-rule="evenodd" d="M6.70768 1.60449C3.88873 1.60449 1.60352 3.88971 1.60352 6.70866C1.60352 9.52761 3.88873 11.8128 6.70768 11.8128C9.52664 11.8128 11.8118 9.52761 11.8118 6.70866C11.8118 3.88971 9.52664 1.60449 6.70768 1.60449ZM0.728516 6.70866C0.728516 3.40646 3.40548 0.729492 6.70768 0.729492C10.0099 0.729492 12.6868 3.40646 12.6868 6.70866C12.6868 8.20229 12.1392 9.56801 11.2337 10.6159L13.142 12.5243C13.3129 12.6952 13.3129 12.9722 13.142 13.143C12.9712 13.3139 12.6942 13.3139 12.5233 13.143L10.615 11.2347C9.56703 12.1402 8.20131 12.6878 6.70768 12.6878C3.40548 12.6878 0.728516 10.0109 0.728516 6.70866Z" fill="#1C1C1F"/>
</g>
<defs>
<clipPath id="clip0_5402_1278">
<rect width="14" height="14" fill="white"/>
</clipPath>
</defs>
</svg>
