<svg width="20" height="20" viewBox="0 0 20 20" fill="none" xmlns="http://www.w3.org/2000/svg">
<path d="M1.9458 8.61422C1.68476 8.37282 1.82656 7.93641 2.17964 7.89454L7.18262 7.30113C7.32652 7.28407 7.45151 7.19371 7.51221 7.06212L9.6224 2.4873C9.77132 2.16443 10.2303 2.16437 10.3792 2.48723L12.4894 7.06202C12.5501 7.19361 12.6743 7.28422 12.8182 7.30128L17.8215 7.89454C18.1745 7.93641 18.3159 8.37295 18.0549 8.61435L14.3565 12.0352C14.2501 12.1336 14.2027 12.28 14.231 12.4221L15.2125 17.3635C15.2818 17.7123 14.9107 17.9825 14.6004 17.8088L10.2043 15.3474C10.0778 15.2766 9.92422 15.277 9.79777 15.3477L5.4012 17.8082C5.09094 17.9819 4.71912 17.7123 4.78841 17.3635L5.77012 12.4224C5.79836 12.2803 5.75111 12.1335 5.64472 12.0351L1.9458 8.61422Z" fill="#FFD500" stroke="#FFD500" stroke-width="1.4" stroke-linecap="round" stroke-linejoin="round"/>
</svg>
