<svg width="64" height="64" viewBox="0 0 64 64" fill="none" xmlns="http://www.w3.org/2000/svg">
<path d="M64 31.9045C64 40.5015 60.5612 48.1433 55.2119 53.8746C54.8299 54.4477 54.2567 54.8298 53.6836 55.2119C47.9522 60.5612 40.3105 63.8089 31.9045 63.8089C25.2179 63.8089 18.9134 61.7074 13.7552 58.0776C12.2269 57.1224 10.8896 55.785 9.55224 54.6388C3.62985 48.9074 0 40.8836 0 31.9045C0 14.3283 14.3284 0 31.9045 0C49.6716 0 64 14.3283 64 31.9045Z" fill="#F3F3F3"/>
<path d="M64 31.9045C64 41.2656 59.9881 49.4806 53.6836 55.403C47.9522 60.7522 40.3105 64 31.9045 64C25.2179 64 18.9134 61.8985 13.7552 58.2686C5.34926 52.5373 0 42.985 0 32.0955C0 14.5194 14.3284 0.19104 31.9045 0.19104C49.4806 0.19104 64 14.3283 64 31.9045Z" fill="#EAEAEA"/>
<path d="M55.2161 53.8747C54.834 54.4478 54.2609 54.8299 53.6877 55.212C47.9564 60.5613 40.3146 63.809 31.9086 63.809C25.2221 63.809 18.9176 61.7075 13.7594 58.0777C12.231 57.1224 10.8937 55.7851 9.5564 54.6389C10.3206 53.6836 11.4668 53.1105 13.9504 52.1553L14.9057 51.7732C16.8161 51.009 19.4907 50.0538 22.9295 48.5254C23.5027 48.3344 23.8848 47.9523 24.2668 47.5702C24.4579 47.3792 24.6489 47.1881 24.6489 46.806C24.84 46.4239 25.031 45.8508 25.031 45.4687V38.9732C24.84 38.7822 24.84 38.7822 24.6489 38.5911C24.0758 37.8269 23.6937 36.8717 23.6937 35.7254L23.3116 35.5344C21.5922 35.9165 21.7833 34.1971 21.4012 30.7583C21.2101 29.421 21.4012 29.0389 22.1653 28.8478L22.7385 28.0836C21.5922 25.409 21.0191 22.9254 21.0191 21.015C21.0191 17.7672 22.3564 15.6657 24.2668 14.7105C23.1206 12.418 23.1206 11.6538 23.1206 11.6538C23.1206 11.6538 29.8071 12.8001 32.0997 12.418C34.9654 11.8449 39.5504 12.609 41.2698 16.4299C44.1355 17.5762 45.0907 19.2956 45.4728 21.206C45.8549 24.2628 44.1355 27.5105 43.7534 28.8478V29.0389C44.1355 29.2299 44.3265 29.612 44.1355 30.9493C43.7534 34.1971 43.7534 36.1075 42.225 35.7254L40.6967 38.4001C40.6967 38.7822 40.6967 38.7822 40.5056 38.9732C40.5056 39.5463 40.5056 40.5016 40.5056 45.6598C40.5056 46.2329 40.6967 46.9971 41.0788 47.3792C41.2698 47.5702 41.2698 47.7613 41.4609 47.7613C41.843 48.1433 42.2251 48.5254 42.6071 48.5254C46.428 50.0538 49.1027 51.2001 51.2042 51.9642C53.1146 52.7284 54.4519 53.3015 55.2161 53.8747Z" fill="white"/>
<path d="M25.0318 45.4692V38.9737C24.8407 38.7826 24.8407 38.7826 24.6497 38.5916V38.2095C25.0317 38.7826 25.4138 39.3557 25.987 39.7378L31.1452 43.3677C32.2915 44.3229 34.0108 44.3229 35.1571 43.3677L39.9332 39.1647C40.1243 38.9737 40.3153 38.9736 40.5064 38.7826C40.5064 39.3557 40.5064 40.311 40.5064 45.4692C40.5064 45.8513 40.3153 46.0423 40.5064 46.4244H25.0318C24.8407 46.0423 25.0318 45.8513 25.0318 45.4692Z" fill="url(#paint0_linear_4294_64893)"/>
<path d="M55.2161 53.8752C54.834 54.4483 54.2609 54.8304 53.6877 55.2125C47.9564 60.5618 40.3146 63.8095 31.9086 63.8095C25.2221 63.8095 18.9176 61.7081 13.7594 58.0782C12.231 57.123 10.8937 55.7857 9.5564 54.6394C10.3206 53.6842 11.4668 53.111 13.9504 52.1558L14.9057 51.7737C16.8161 51.0095 19.4907 50.0543 22.9295 48.526C23.5027 48.3349 23.8848 47.9528 24.2668 47.5707C26.1773 50.2454 29.234 51.9648 32.8639 51.9648C36.3027 51.9648 39.3594 50.2454 41.2698 47.7618C41.6519 48.1439 42.034 48.526 42.4161 48.526C46.237 50.0543 48.9116 51.2006 51.0131 51.9648C53.1146 52.7289 54.4519 53.3021 55.2161 53.8752Z" fill="#F3F3F3"/>
<path d="M43.4995 29.4995C44.6362 24.9529 39.7246 22.2423 35.9151 21.9702C28.8464 21.5881 28.2733 22.9254 26.1718 21.015C26.936 21.9702 26.936 23.6896 25.7897 25.6001C25.0255 26.9374 23.6882 27.7016 22.3509 28.0836C19.1032 20.8239 20.8226 16.2389 23.8793 14.7105C22.733 12.418 22.733 11.6538 22.733 11.6538C22.733 11.6538 29.4196 12.8001 31.7121 12.418C35.4995 11.6538 39.7801 12.6786 41.4995 16.4995C44.3652 17.6458 45.1174 19.0891 45.4995 20.9995C46.0726 23.8652 43.8816 28.1622 43.4995 29.4995Z" fill="#AEAEAE"/>
<path d="M19.9995 35.4C18.6995 33.445 17.9995 31.03 17.9995 28.5C17.9995 25.5289 18.9924 22.8115 20.6156 20.7651L20.9525 24.0603C20.6272 24.7296 20.3727 25.4478 20.1995 26.2C20.0995 26.89 19.6995 27.235 18.9995 27.235V27.35H22.9995C23.5995 27.35 23.9995 27.81 23.9995 28.5V34.25C23.9995 34.94 23.5995 35.4 22.9995 35.4H19.9995Z" fill="#7A7A7A"/>
<path d="M45.9995 27.2344C45.2995 27.2344 44.8995 26.8894 44.7995 26.1994C44.7907 26.1613 44.7818 26.1233 44.7726 26.0854L45.5775 22.6069C46.4797 24.3329 46.9995 26.3497 46.9995 28.4994C46.9995 34.3785 43.1117 39.264 38.1467 39.9237C37.5171 40.0073 36.9995 39.4845 36.9995 38.8494C36.9995 38.2143 37.5181 37.7085 38.1438 37.5998C39.7145 37.327 41.1698 36.513 42.2995 35.3994H41.9995C41.3995 35.3994 40.9995 34.9394 40.9995 34.2494V28.4994C40.9995 27.8094 41.3995 27.3494 41.9995 27.3494H45.9995V27.2344Z" fill="#7A7A7A"/>
<defs>
<linearGradient id="paint0_linear_4294_64893" x1="32.6425" y1="46.1686" x2="32.6425" y2="41.8656" gradientUnits="userSpaceOnUse">
<stop stop-color="white"/>
<stop offset="0.9913" stop-color="#DEDEDE"/>
</linearGradient>
</defs>
</svg>
