<svg width="400" height="360" viewBox="0 0 400 360" fill="none" xmlns="http://www.w3.org/2000/svg">
<rect x="1" y="1" width="398" height="358" rx="11" stroke="#8E8E8E" stroke-width="2" stroke-dasharray="10 10"/>
<path d="M169.318 174.364V186H167.909V174.364H169.318ZM176.143 174.364H177.825L181.78 184.023H181.916L185.871 174.364H187.553V186H186.234V177.159H186.121L182.484 186H181.212L177.575 177.159H177.462V186H176.143V174.364ZM194.855 186H193.378L197.651 174.364H199.105L203.378 186H201.901L198.423 176.205H198.332L194.855 186ZM195.401 181.455H201.355V182.705H195.401V181.455ZM216.598 178C216.473 177.617 216.308 177.275 216.104 176.972C215.903 176.665 215.662 176.403 215.382 176.188C215.106 175.972 214.791 175.807 214.439 175.693C214.087 175.58 213.7 175.523 213.28 175.523C212.59 175.523 211.964 175.701 211.399 176.057C210.835 176.413 210.386 176.938 210.053 177.631C209.719 178.324 209.553 179.174 209.553 180.182C209.553 181.189 209.721 182.04 210.058 182.733C210.395 183.426 210.852 183.951 211.428 184.307C212.003 184.663 212.651 184.841 213.371 184.841C214.037 184.841 214.625 184.699 215.132 184.415C215.643 184.127 216.041 183.722 216.325 183.199C216.613 182.672 216.757 182.053 216.757 181.341L217.189 181.432H213.689V180.182H218.121V181.432C218.121 182.39 217.916 183.223 217.507 183.932C217.102 184.64 216.541 185.189 215.825 185.58C215.113 185.966 214.295 186.159 213.371 186.159C212.34 186.159 211.435 185.917 210.655 185.432C209.878 184.947 209.272 184.258 208.837 183.364C208.405 182.47 208.189 181.409 208.189 180.182C208.189 179.261 208.312 178.434 208.558 177.699C208.808 176.96 209.161 176.331 209.615 175.812C210.07 175.294 210.607 174.896 211.229 174.619C211.85 174.343 212.534 174.205 213.28 174.205C213.893 174.205 214.465 174.297 214.996 174.483C215.53 174.665 216.005 174.924 216.422 175.261C216.842 175.595 217.193 175.994 217.473 176.46C217.753 176.922 217.946 177.436 218.053 178H216.598ZM224.534 186V174.364H231.557V175.614H225.943V179.545H231.193V180.795H225.943V184.75H231.648V186H224.534Z" fill="#8E8E8E"/>
</svg>
