<svg width="65" height="64" viewBox="0 0 65 64" fill="none" xmlns="http://www.w3.org/2000/svg">
<path opacity="0.5" d="M5.8335 31.9997C5.8335 19.4289 5.8335 13.1435 9.73874 9.23825C13.644 5.33301 19.9294 5.33301 32.5002 5.33301C45.0709 5.33301 51.3563 5.33301 55.2616 9.23825C59.1668 13.1435 59.1668 19.4289 59.1668 31.9997C59.1668 44.5705 59.1668 50.8559 55.2616 54.7611C51.3563 58.6663 45.0709 58.6663 32.5002 58.6663C19.9294 58.6663 13.644 58.6663 9.73874 54.7611C5.8335 50.8559 5.8335 44.5705 5.8335 31.9997Z" fill="#339E75"/>
<path d="M17.6301 25.3867C18.3372 24.5381 19.5984 24.4235 20.4469 25.1306L21.184 25.7449L21.1841 25.7449C22.7973 27.0891 24.1706 28.2334 25.121 29.2859C26.1305 30.4039 26.9184 31.6895 26.9184 33.3337C26.9184 34.9779 26.1305 36.2636 25.121 37.3815C24.1706 38.434 22.7972 39.5784 21.1841 40.9225L20.4469 41.5368C19.5984 42.2439 18.3372 42.1293 17.6301 41.2807C16.923 40.4322 17.0376 39.1711 17.8862 38.4639L18.5113 37.943C20.2674 36.4796 21.4158 35.5163 22.1523 34.7007C22.8517 33.9261 22.9184 33.563 22.9184 33.3337C22.9184 33.1044 22.8517 32.7413 22.1523 31.9667C21.4158 31.1511 20.2674 30.1879 18.5113 28.7244L17.8862 28.2035C17.0376 27.4964 16.923 26.2352 17.6301 25.3867Z" fill="#339E75"/>
<path d="M47.8332 40.0004C47.8332 41.1049 46.9378 42.0004 45.8332 42.0004H32.4999C31.3953 42.0004 30.4999 41.1049 30.4999 40.0004C30.4999 38.8958 31.3953 38.0004 32.4999 38.0004H45.8332C46.9378 38.0004 47.8332 38.8958 47.8332 40.0004Z" fill="#339E75"/>
</svg>
