<svg width="65" height="64" viewBox="0 0 65 64" fill="none" xmlns="http://www.w3.org/2000/svg">
<path opacity="0.5" d="M5.83337 32C5.83337 19.4293 5.83337 13.1439 9.73862 9.23862C13.6439 5.33337 19.9293 5.33337 32.5 5.33337C45.0708 5.33337 51.3562 5.33337 55.2615 9.23862C59.1667 13.1439 59.1667 19.4293 59.1667 32C59.1667 44.5708 59.1667 50.8562 55.2615 54.7615C51.3562 58.6667 45.0708 58.6667 32.5 58.6667C19.9293 58.6667 13.6439 58.6667 9.73862 54.7615C5.83337 50.8562 5.83337 44.5708 5.83337 32Z" fill="#47B881"/>
<path d="M17.6302 25.3863C18.3374 24.5378 19.5985 24.4231 20.447 25.1302L21.1842 25.7445L21.1843 25.7446C22.7974 27.0887 24.1707 28.233 25.1212 29.2856C26.1307 30.4035 26.9185 31.6891 26.9185 33.3333C26.9185 34.9776 26.1307 36.2632 25.1212 37.3811C24.1707 38.4337 22.7974 39.578 21.1842 40.9222L20.447 41.5365C19.5985 42.2436 18.3374 42.1289 17.6302 41.2804C16.9231 40.4318 17.0378 39.1707 17.8863 38.4636L18.5114 37.9427C20.2676 36.4792 21.4159 35.516 22.1524 34.7003C22.8518 33.9258 22.9185 33.5626 22.9185 33.3333C22.9185 33.1041 22.8518 32.7409 22.1524 31.9664C21.4159 31.1507 20.2676 30.1875 18.5114 28.724L17.8863 28.2031C17.0378 27.496 16.9231 26.2349 17.6302 25.3863Z" fill="#47B881"/>
<path d="M47.8333 40C47.8333 41.1046 46.9379 42 45.8333 42H32.5C31.3954 42 30.5 41.1046 30.5 40C30.5 38.8954 31.3954 38 32.5 38H45.8333C46.9379 38 47.8333 38.8954 47.8333 40Z" fill="#47B881"/>
</svg>
