<svg width="350" height="200" viewBox="0 0 350 200" fill="none" xmlns="http://www.w3.org/2000/svg">
<rect x="1" y="1" width="348" height="198" rx="11" fill="#F3F3F3"/>
<rect x="1" y="1" width="348" height="198" rx="11" stroke="#8E8E8E" stroke-width="2" stroke-dasharray="10 10"/>
<path d="M144.318 94.3636V106H142.909V94.3636H144.318ZM151.143 94.3636H152.825L156.78 104.023H156.916L160.871 94.3636H162.553V106H161.234V97.1591H161.121L157.484 106H156.212L152.575 97.1591H152.462V106H151.143V94.3636ZM169.855 106H168.378L172.651 94.3636H174.105L178.378 106H176.901L173.423 96.2045H173.332L169.855 106ZM170.401 101.455H176.355V102.705H170.401V101.455ZM191.598 98C191.473 97.6174 191.308 97.2746 191.104 96.9716C190.903 96.6648 190.662 96.4034 190.382 96.1875C190.106 95.9716 189.791 95.8068 189.439 95.6932C189.087 95.5795 188.7 95.5227 188.28 95.5227C187.59 95.5227 186.964 95.7008 186.399 96.0568C185.835 96.4129 185.386 96.9375 185.053 97.6307C184.719 98.3239 184.553 99.1742 184.553 100.182C184.553 101.189 184.721 102.04 185.058 102.733C185.395 103.426 185.852 103.951 186.428 104.307C187.003 104.663 187.651 104.841 188.371 104.841C189.037 104.841 189.625 104.699 190.132 104.415C190.643 104.127 191.041 103.722 191.325 103.199C191.613 102.672 191.757 102.053 191.757 101.341L192.189 101.432H188.689V100.182H193.121V101.432C193.121 102.39 192.916 103.223 192.507 103.932C192.102 104.64 191.541 105.189 190.825 105.58C190.113 105.966 189.295 106.159 188.371 106.159C187.34 106.159 186.435 105.917 185.655 105.432C184.878 104.947 184.272 104.258 183.837 103.364C183.405 102.47 183.189 101.409 183.189 100.182C183.189 99.2614 183.312 98.4337 183.558 97.6989C183.808 96.9602 184.161 96.3314 184.615 95.8125C185.07 95.2936 185.607 94.8958 186.229 94.6193C186.85 94.3428 187.534 94.2045 188.28 94.2045C188.893 94.2045 189.465 94.2973 189.996 94.483C190.53 94.6648 191.005 94.9242 191.422 95.2614C191.842 95.5947 192.193 95.9943 192.473 96.4602C192.753 96.9223 192.946 97.4356 193.053 98H191.598ZM199.534 106V94.3636H206.557V95.6136H200.943V99.5455H206.193V100.795H200.943V104.75H206.648V106H199.534Z" fill="#8E8E8E"/>
</svg>
