<svg width="73" height="72" viewBox="0 0 73 72" fill="none" xmlns="http://www.w3.org/2000/svg">
<path d="M0.666672 36C0.666672 16.1178 16.7844 0 36.6667 0C56.5489 0 72.6667 16.1178 72.6667 36C72.6667 55.8823 56.5489 72 36.6667 72C16.7844 72 0.666672 55.8823 0.666672 36Z" fill="white" fill-opacity="0.4"/>
<rect x="4.66667" y="4" width="64" height="64" rx="32" fill="white"/>
<path d="M42 25.3335C44.9001 25.3496 46.4706 25.4782 47.4951 26.5028C48.6667 27.6743 48.6667 29.5599 48.6667 33.3312V41.3312C48.6667 45.1024 48.6667 46.988 47.4951 48.1596C46.3235 49.3312 44.4379 49.3312 40.6667 49.3312H32.6667C28.8955 49.3312 27.0098 49.3312 25.8383 48.1596C24.6667 46.988 24.6667 45.1024 24.6667 41.3312V33.3312C24.6667 29.5599 24.6667 27.6743 25.8383 26.5028C26.8628 25.4782 28.4333 25.3496 31.3334 25.3335" stroke="#166A5B" stroke-width="2"/>
<path d="M32.6667 37.8665L34.9524 39.9998L40.6667 34.6665" stroke="#166A5B" stroke-width="2" stroke-linecap="round" stroke-linejoin="round"/>
<path d="M31.3333 24.6665C31.3333 23.5619 32.2288 22.6665 33.3333 22.6665H40C41.1046 22.6665 42 23.5619 42 24.6665V25.9998C42 27.1044 41.1046 27.9998 40 27.9998H33.3333C32.2288 27.9998 31.3333 27.1044 31.3333 25.9998V24.6665Z" stroke="#166A5B" stroke-width="2"/>
</svg>
