<svg width="72" height="72" viewBox="0 0 72 72" fill="none" xmlns="http://www.w3.org/2000/svg">
<path d="M0 36C0 16.1178 16.1178 0 36 0C55.8823 0 72 16.1178 72 36C72 55.8823 55.8823 72 36 72C16.1178 72 0 55.8823 0 36Z" fill="white" fill-opacity="0.4"/>
<rect x="4" y="4" width="64" height="64" rx="32" fill="white"/>
<path d="M22.6667 27.0096C22.6667 24.611 24.756 22.6665 27.3334 22.6665C29.9107 22.6665 32 24.611 32 27.0096C32 29.3894 30.5106 32.1665 28.1867 33.1595C27.645 33.391 27.0217 33.391 26.48 33.1595C24.1561 32.1665 22.6667 29.3894 22.6667 27.0096Z" stroke="#166A5B" stroke-width="2"/>
<path d="M40 43.0096C40 40.611 42.0893 38.6665 44.6667 38.6665C47.244 38.6665 49.3333 40.611 49.3333 43.0096C49.3333 45.3894 47.8439 48.1665 45.52 49.1595C44.9783 49.391 44.355 49.391 43.8133 49.1595C41.4894 48.1665 40 45.3894 40 43.0096Z" stroke="#166A5B" stroke-width="2"/>
<path d="M44.6665 43.3335H44.6785" stroke="#166A5B" stroke-width="2" stroke-linecap="round" stroke-linejoin="round"/>
<path d="M27.321 27.3335H27.333" stroke="#166A5B" stroke-width="2" stroke-linecap="round" stroke-linejoin="round"/>
<path d="M36 25.6665C35.4477 25.6665 35 26.1142 35 26.6665C35 27.2188 35.4477 27.6665 36 27.6665V26.6665V25.6665ZM36 45.3332L36.7071 46.0403C36.8947 45.8527 37 45.5984 37 45.3332C37 45.068 36.8947 44.8136 36.7071 44.6261L36 45.3332ZM42.9409 31.5829L43.4777 32.4266L42.9409 31.5829ZM29.0592 40.4167L29.5961 41.2604H29.5961L29.0592 40.4167ZM34.7071 42.6261C34.3166 42.2355 33.6834 42.2355 33.2929 42.6261C32.9024 43.0166 32.9024 43.6498 33.2929 44.0403L34 43.3332L34.7071 42.6261ZM33.2929 46.6261C32.9024 47.0166 32.9024 47.6498 33.2929 48.0403C33.6834 48.4308 34.3166 48.4308 34.7071 48.0403L34 47.3332L33.2929 46.6261ZM41.5092 26.6665V25.6665H36V26.6665V27.6665H41.5092V26.6665ZM36 45.3332V44.3332H30.4908V45.3332V46.3332H36V45.3332ZM42.9409 31.5829L42.404 30.7393L28.5223 39.5731L29.0592 40.4167L29.5961 41.2604L43.4777 32.4266L42.9409 31.5829ZM36 45.3332L36.7071 44.6261L34.7071 42.6261L34 43.3332L33.2929 44.0403L35.2929 46.0403L36 45.3332ZM36 45.3332L35.2929 44.6261L33.2929 46.6261L34 47.3332L34.7071 48.0403L36.7071 46.0403L36 45.3332ZM30.4908 45.3332V44.3332C28.8234 44.3332 28.1893 42.1556 29.5961 41.2604L29.0592 40.4167L28.5223 39.5731C25.4275 41.5425 26.8225 46.3332 30.4908 46.3332V45.3332ZM41.5092 26.6665V27.6665C43.1766 27.6665 43.8107 29.8441 42.404 30.7393L42.9409 31.5829L43.4777 32.4266C46.5726 30.4572 45.1775 25.6665 41.5092 25.6665V26.6665Z" fill="#166A5B"/>
</svg>
