<svg width="73" height="72" viewBox="0 0 73 72" fill="none" xmlns="http://www.w3.org/2000/svg">
<path d="M0.333252 36C0.333252 16.1178 16.451 0 36.3333 0C56.2155 0 72.3333 16.1178 72.3333 36C72.3333 55.8823 56.2155 72 36.3333 72C16.451 72 0.333252 55.8823 0.333252 36Z" fill="white" fill-opacity="0.4"/>
<rect x="4.33325" y="4" width="64" height="64" rx="32" fill="white"/>
<path d="M41.1035 24.5091L43.7702 25.9085C46.639 27.4141 48.0735 28.1668 48.87 29.5195C49.6665 30.8722 49.6665 32.5554 49.6665 35.9219V36.0778C49.6665 39.4443 49.6665 41.1275 48.87 42.4802C48.0735 43.8329 46.639 44.5856 43.7702 46.0911L41.1035 47.4905C38.7627 48.719 37.5922 49.3332 36.3332 49.3332C35.0742 49.3332 33.9038 48.719 31.5629 47.4905L28.8963 46.0911C26.0274 44.5856 24.5929 43.8329 23.7964 42.4802C22.9999 41.1275 22.9999 39.4443 22.9999 36.0778V35.9219C22.9999 32.5554 22.9999 30.8722 23.7964 29.5195C24.5929 28.1668 26.0274 27.4141 28.8963 25.9085L31.5629 24.5091C33.9038 23.2807 35.0742 22.6665 36.3332 22.6665C37.5922 22.6665 38.7627 23.2807 41.1035 24.5091Z" stroke="#166A5B" stroke-width="2" stroke-linecap="round"/>
<path d="M48.3333 30L36.3333 36M36.3333 36L24.3333 30M36.3333 36V48.6667" stroke="#166A5B" stroke-width="2" stroke-linecap="round"/>
</svg>
