<svg width="842" height="207" viewBox="0 0 842 207" fill="none" xmlns="http://www.w3.org/2000/svg">
<rect width="4.40838" height="207" transform="matrix(1 0 0 -1 0 207)" fill="url(#paint0_linear_121_22216)"/>
<rect width="4.40838" height="36.2832" transform="matrix(1 0 0 -1 279.198 36.283)" fill="url(#paint1_linear_121_22216)"/>
<rect width="4.40838" height="19.3045" transform="matrix(1 0 0 -1 558.395 19.3034)" fill="url(#paint2_linear_121_22216)"/>
<rect width="4.40838" height="67.9147" transform="matrix(1 0 0 -1 139.599 67.9144)" fill="url(#paint3_linear_121_22216)"/>
<rect width="4.40838" height="27.2124" transform="matrix(1 0 0 -1 418.796 27.2119)" fill="url(#paint4_linear_121_22216)"/>
<rect width="4.40838" height="85.5912" transform="matrix(1 0 0 -1 697.994 85.5904)" fill="url(#paint5_linear_121_22216)"/>
<rect width="4.40838" height="160.109" transform="matrix(1 0 0 -1 69.7993 160.109)" fill="url(#paint6_linear_121_22216)"/>
<rect width="4.40838" height="27.1476" transform="matrix(1 0 0 -1 139.599 45.0399)" fill="url(#paint7_linear_121_22216)"/>
<rect width="4.40838" height="27.6776" transform="matrix(1 0 0 -1 348.997 27.6774)" fill="url(#paint8_linear_121_22216)"/>
<rect width="4.40838" height="52.099" transform="matrix(1 0 0 -1 628.194 52.0983)" fill="url(#paint9_linear_121_22216)"/>
<rect width="4.40838" height="73.4968" transform="matrix(1 0 0 -1 209.398 73.4965)" fill="url(#paint10_linear_121_22216)"/>
<rect width="4.40838" height="36.2832" transform="matrix(1 0 0 -1 488.595 36.283)" fill="url(#paint11_linear_121_22216)"/>
<rect width="4.40838" height="93.7316" transform="matrix(1 0 0 -1 767.793 93.7314)" fill="url(#paint12_linear_121_22216)"/>
<rect width="4.40838" height="173.991" transform="matrix(1 0 0 -1 837.592 173.991)" fill="url(#paint13_linear_121_22216)"/>
<rect width="4.40838" height="27.1476" transform="matrix(1 0 0 -1 767.793 31.3336)" fill="url(#paint14_linear_121_22216)"/>
<defs>
<linearGradient id="paint0_linear_121_22216" x1="2.20419" y1="0" x2="2.20419" y2="207" gradientUnits="userSpaceOnUse">
<stop stop-color="#339E75" stop-opacity="0"/>
<stop offset="1" stop-color="#339E75"/>
</linearGradient>
<linearGradient id="paint1_linear_121_22216" x1="2.20419" y1="0" x2="2.20419" y2="36.2832" gradientUnits="userSpaceOnUse">
<stop stop-color="#339E75" stop-opacity="0"/>
<stop offset="1" stop-color="#339E75"/>
</linearGradient>
<linearGradient id="paint2_linear_121_22216" x1="2.20419" y1="0" x2="2.20419" y2="19.3045" gradientUnits="userSpaceOnUse">
<stop stop-color="#339E75" stop-opacity="0"/>
<stop offset="1" stop-color="#339E75"/>
</linearGradient>
<linearGradient id="paint3_linear_121_22216" x1="2.20419" y1="0" x2="2.20419" y2="67.9147" gradientUnits="userSpaceOnUse">
<stop stop-color="#339E75" stop-opacity="0"/>
<stop offset="1" stop-color="#339E75"/>
</linearGradient>
<linearGradient id="paint4_linear_121_22216" x1="2.20419" y1="0" x2="2.20419" y2="27.2124" gradientUnits="userSpaceOnUse">
<stop stop-color="#339E75" stop-opacity="0"/>
<stop offset="1" stop-color="#339E75"/>
</linearGradient>
<linearGradient id="paint5_linear_121_22216" x1="2.20419" y1="0" x2="2.20419" y2="85.5912" gradientUnits="userSpaceOnUse">
<stop stop-color="#339E75" stop-opacity="0"/>
<stop offset="1" stop-color="#339E75"/>
</linearGradient>
<linearGradient id="paint6_linear_121_22216" x1="2.20419" y1="0" x2="2.20419" y2="160.109" gradientUnits="userSpaceOnUse">
<stop stop-color="#339E75" stop-opacity="0"/>
<stop offset="1" stop-color="#339E75"/>
</linearGradient>
<linearGradient id="paint7_linear_121_22216" x1="2.20419" y1="0" x2="2.20419" y2="27.1476" gradientUnits="userSpaceOnUse">
<stop stop-color="white" stop-opacity="0"/>
<stop offset="0.510417" stop-color="white"/>
<stop offset="1" stop-color="white" stop-opacity="0"/>
</linearGradient>
<linearGradient id="paint8_linear_121_22216" x1="2.20419" y1="0" x2="2.20419" y2="27.6776" gradientUnits="userSpaceOnUse">
<stop stop-color="#339E75" stop-opacity="0"/>
<stop offset="1" stop-color="#339E75"/>
</linearGradient>
<linearGradient id="paint9_linear_121_22216" x1="2.20419" y1="0" x2="2.20419" y2="52.099" gradientUnits="userSpaceOnUse">
<stop stop-color="#339E75" stop-opacity="0"/>
<stop offset="1" stop-color="#339E75"/>
</linearGradient>
<linearGradient id="paint10_linear_121_22216" x1="2.20419" y1="0" x2="2.20419" y2="73.4968" gradientUnits="userSpaceOnUse">
<stop stop-color="#339E75" stop-opacity="0"/>
<stop offset="1" stop-color="#339E75"/>
</linearGradient>
<linearGradient id="paint11_linear_121_22216" x1="2.20419" y1="0" x2="2.20419" y2="36.2832" gradientUnits="userSpaceOnUse">
<stop stop-color="#339E75" stop-opacity="0"/>
<stop offset="1" stop-color="#339E75"/>
</linearGradient>
<linearGradient id="paint12_linear_121_22216" x1="2.20419" y1="0" x2="2.20419" y2="93.7316" gradientUnits="userSpaceOnUse">
<stop stop-color="#339E75" stop-opacity="0"/>
<stop offset="1" stop-color="#339E75"/>
</linearGradient>
<linearGradient id="paint13_linear_121_22216" x1="2.20419" y1="0" x2="2.20419" y2="173.991" gradientUnits="userSpaceOnUse">
<stop stop-color="#339E75" stop-opacity="0"/>
<stop offset="1" stop-color="#339E75"/>
</linearGradient>
<linearGradient id="paint14_linear_121_22216" x1="2.20419" y1="0" x2="2.20419" y2="27.1476" gradientUnits="userSpaceOnUse">
<stop stop-color="white" stop-opacity="0"/>
<stop offset="0.510417" stop-color="white"/>
<stop offset="1" stop-color="white" stop-opacity="0"/>
</linearGradient>
</defs>
</svg>
