<svg width="73" height="72" viewBox="0 0 73 72" fill="none" xmlns="http://www.w3.org/2000/svg">
<path d="M0.5 36C0.5 16.1178 16.6178 0 36.5 0C56.3823 0 72.5 16.1178 72.5 36C72.5 55.8823 56.3823 72 36.5 72C16.6178 72 0.5 55.8823 0.5 36Z" fill="#339E75" fill-opacity="0.4"/>
<rect x="4.5" y="4" width="64" height="64" rx="32" fill="#339E75"/>
<path d="M28.7961 26.1347C29.3889 25.7387 30.0112 25.3951 30.6561 25.1063C32.4853 24.2872 33.3999 23.8776 34.6166 24.6659C35.8333 25.4541 35.8333 26.7472 35.8333 29.3333V31.3333C35.8333 33.8475 35.8333 35.1046 36.6144 35.8856C37.3954 36.6667 38.6525 36.6667 41.1667 36.6667H43.1667C45.7528 36.6667 47.0459 36.6667 47.8341 37.8834C48.6224 39.1001 48.2128 40.0147 47.3937 41.8439C47.1049 42.4887 46.7613 43.1111 46.3653 43.7039C44.9734 45.7869 42.9952 47.4104 40.6807 48.3691C38.3661 49.3278 35.8193 49.5787 33.3622 49.0899C30.9051 48.6012 28.6481 47.3948 26.8766 45.6234C25.1052 43.8519 23.8988 41.5949 23.41 39.1378C22.9213 36.6807 23.1721 34.1339 24.1309 31.8193C25.0896 29.5048 26.7131 27.5265 28.7961 26.1347Z" stroke="white" stroke-width="2"/>
<path d="M49.0947 29.4253C48.0123 26.6777 45.8223 24.4877 43.0747 23.4053C41.0193 22.5956 39.1667 24.4575 39.1667 26.6667V32C39.1667 32.7364 39.7636 33.3333 40.5 33.3333H45.8333C48.0425 33.3333 49.9044 31.4807 49.0947 29.4253Z" stroke="white" stroke-width="2"/>
</svg>
