<svg width="73" height="72" viewBox="0 0 73 72" fill="none" xmlns="http://www.w3.org/2000/svg">
<path d="M0.5 36C0.5 16.1178 16.6178 0 36.5 0C56.3823 0 72.5 16.1178 72.5 36C72.5 55.8823 56.3823 72 36.5 72C16.6178 72 0.5 55.8823 0.5 36Z" fill="#339E75" fill-opacity="0.4"/>
<rect x="4.5" y="4" width="64" height="64" rx="32" fill="#339E75"/>
<path d="M49.8334 49.3333H36.5C30.2146 49.3333 27.0719 49.3333 25.1193 47.3807C23.1667 45.4281 23.1667 42.2854 23.1667 36V22.6667" stroke="white" stroke-width="2" stroke-linecap="round"/>
<path d="M48.5 26.6667L41.1203 35.5572C40.1227 36.7591 39.6238 37.3601 39.0051 37.36C38.3864 37.3599 37.8876 36.7588 36.8902 35.5566L36.6509 35.2681C35.6525 34.0648 35.1534 33.4632 34.5342 33.4635C33.9151 33.4637 33.4163 34.0658 32.4187 35.27L28.5 40M48.5 26.6667V33.3889M48.5 26.6667H42.9179" stroke="white" stroke-width="2" stroke-linecap="round" stroke-linejoin="round"/>
</svg>
