<svg width="73" height="72" viewBox="0 0 73 72" fill="none" xmlns="http://www.w3.org/2000/svg">
<path d="M0.5 36C0.5 16.1178 16.6178 0 36.5 0C56.3823 0 72.5 16.1178 72.5 36C72.5 55.8823 56.3823 72 36.5 72C16.6178 72 0.5 55.8823 0.5 36Z" fill="#339E75" fill-opacity="0.4"/>
<rect x="4.5" y="4" width="64" height="64" rx="32" fill="#339E75"/>
<path d="M33.8333 49.3333C28.805 49.3333 26.2908 49.3333 24.7287 47.7712C23.1666 46.2091 23.1666 45.0283 23.1666 40" stroke="white" stroke-width="2" stroke-linecap="round"/>
<path d="M49.8333 40C49.8333 45.0283 49.8333 46.2091 48.2712 47.7712C46.7091 49.3333 44.1949 49.3333 39.1666 49.3333" stroke="white" stroke-width="2" stroke-linecap="round"/>
<path d="M39.1666 22.6667C44.1949 22.6667 46.7091 22.6667 48.2712 24.2288C49.8333 25.7909 49.8333 26.9717 49.8333 32" stroke="white" stroke-width="2" stroke-linecap="round"/>
<path d="M33.8333 22.6667C28.805 22.6667 26.2908 22.6667 24.7287 24.2288C23.1666 25.7909 23.1666 26.9717 23.1666 32" stroke="white" stroke-width="2" stroke-linecap="round"/>
<path d="M28.3565 38.7464C27.5633 37.8262 27.1666 37.3661 27.1666 36C27.1666 34.6339 27.5633 34.1738 28.3565 33.2536C29.9405 31.4163 32.5969 29.3333 36.5 29.3333C40.4031 29.3333 43.0595 31.4163 44.6434 33.2536C45.4367 34.1738 45.8333 34.6339 45.8333 36C45.8333 37.3661 45.4367 37.8262 44.6434 38.7464C43.0595 40.5837 40.4031 42.6667 36.5 42.6667C32.5969 42.6667 29.9405 40.5837 28.3565 38.7464Z" stroke="white" stroke-width="2"/>
<circle cx="36.5" cy="36" r="2.66667" stroke="white" stroke-width="2"/>
</svg>
