<svg width="73" height="72" viewBox="0 0 73 72" fill="none" xmlns="http://www.w3.org/2000/svg">
<path d="M0.5 36C0.5 16.1178 16.6178 0 36.5 0C56.3823 0 72.5 16.1178 72.5 36C72.5 55.8823 56.3823 72 36.5 72C16.6178 72 0.5 55.8823 0.5 36Z" fill="#339E75" fill-opacity="0.4"/>
<rect x="4.5" y="4" width="64" height="64" rx="32" fill="#339E75"/>
<path d="M23.1667 43.3333C23.1667 42.0872 23.1667 41.4641 23.4346 41C23.6102 40.696 23.8626 40.4435 24.1667 40.2679C24.6308 40 25.2539 40 26.5 40C27.7462 40 28.3692 40 28.8333 40.2679C29.1374 40.4435 29.3899 40.696 29.5654 41C29.8333 41.4641 29.8333 42.0872 29.8333 43.3333C29.8333 44.5795 29.8333 45.2026 29.5654 45.6667C29.3899 45.9707 29.1374 46.2232 28.8333 46.3987C28.3692 46.6667 27.7462 46.6667 26.5 46.6667C25.2539 46.6667 24.6308 46.6667 24.1667 46.3987C23.8626 46.2232 23.6102 45.9707 23.4346 45.6667C23.1667 45.2026 23.1667 44.5795 23.1667 43.3333Z" stroke="white" stroke-width="2"/>
<path d="M33.1667 43.3333C33.1667 42.0872 33.1667 41.4641 33.4346 41C33.6102 40.696 33.8626 40.4435 34.1667 40.2679C34.6308 40 35.2539 40 36.5 40C37.7462 40 38.3692 40 38.8333 40.2679C39.1374 40.4435 39.3899 40.696 39.5654 41C39.8333 41.4641 39.8333 42.0872 39.8333 43.3333C39.8333 44.5795 39.8333 45.2026 39.5654 45.6667C39.3899 45.9707 39.1374 46.2232 38.8333 46.3987C38.3692 46.6667 37.7462 46.6667 36.5 46.6667C35.2539 46.6667 34.6308 46.6667 34.1667 46.3987C33.8626 46.2232 33.6102 45.9707 33.4346 45.6667C33.1667 45.2026 33.1667 44.5795 33.1667 43.3333Z" stroke="white" stroke-width="2"/>
<path d="M43.1667 43.3333C43.1667 42.0872 43.1667 41.4641 43.4346 41C43.6102 40.696 43.8626 40.4435 44.1667 40.2679C44.6308 40 45.2539 40 46.5 40C47.7462 40 48.3692 40 48.8333 40.2679C49.1374 40.4435 49.3899 40.696 49.5654 41C49.8333 41.4641 49.8333 42.0872 49.8333 43.3333C49.8333 44.5795 49.8333 45.2026 49.5654 45.6667C49.3899 45.9707 49.1374 46.2232 48.8333 46.3987C48.3692 46.6667 47.7462 46.6667 46.5 46.6667C45.2539 46.6667 44.6308 46.6667 44.1667 46.3987C43.8626 46.2232 43.6102 45.9707 43.4346 45.6667C43.1667 45.2026 43.1667 44.5795 43.1667 43.3333Z" stroke="white" stroke-width="2"/>
<path d="M26.5 40V32C26.5 28.8573 26.5 27.286 27.4763 26.3097C28.4526 25.3334 30.024 25.3334 33.1667 25.3334H39.8333C42.976 25.3334 44.5474 25.3334 45.5237 26.3097C46.5 27.286 46.5 28.8573 46.5 32V36M46.5 36L49.1667 33.3334M46.5 36L43.8333 33.3334" stroke="white" stroke-width="2" stroke-linecap="round" stroke-linejoin="round"/>
</svg>
