<svg width="73" height="72" viewBox="0 0 73 72" fill="none" xmlns="http://www.w3.org/2000/svg">
<path d="M0.5 36C0.5 16.1178 16.6178 0 36.5 0C56.3823 0 72.5 16.1178 72.5 36C72.5 55.8823 56.3823 72 36.5 72C16.6178 72 0.5 55.8823 0.5 36Z" fill="#339E75" fill-opacity="0.4"/>
<rect x="4.5" y="4" width="64" height="64" rx="32" fill="#339E75"/>
<path d="M49.8334 49.3334L23.1667 49.3334" stroke="white" stroke-width="2" stroke-linecap="round"/>
<path d="M43.1666 49.3333V28C43.1666 25.4858 43.1666 24.2287 42.3856 23.4477C41.6045 22.6666 40.3475 22.6666 37.8333 22.6666H35.1666C32.6525 22.6666 31.3954 22.6666 30.6144 23.4477C29.8333 24.2287 29.8333 25.4858 29.8333 28V49.3333" stroke="white" stroke-width="2"/>
<path d="M48.5 49.3333V31.3333C48.5 29.4607 48.5 28.5244 48.0506 27.8518C47.856 27.5606 47.606 27.3106 47.3148 27.116C46.6422 26.6666 45.7059 26.6666 43.8333 26.6666" stroke="white" stroke-width="2"/>
<path d="M24.5 49.3333V31.3333C24.5 29.4607 24.5 28.5244 24.9494 27.8518C25.144 27.5606 25.394 27.3106 25.6851 27.116C26.3577 26.6666 27.2941 26.6666 29.1667 26.6666" stroke="white" stroke-width="2"/>
<path d="M36.5 49.3334V45.3334" stroke="white" stroke-width="2" stroke-linecap="round"/>
<path d="M33.8333 36H39.1666" stroke="white" stroke-width="2" stroke-linecap="round"/>
<path d="M27.8333 34.6666H29.8333" stroke="white" stroke-width="2" stroke-linecap="round"/>
<path d="M27.8333 38.6666H29.8333" stroke="white" stroke-width="2" stroke-linecap="round"/>
<path d="M43.1667 34.6666H45.1667" stroke="white" stroke-width="2" stroke-linecap="round"/>
<path d="M43.1667 38.6666H45.1667" stroke="white" stroke-width="2" stroke-linecap="round"/>
<path d="M27.8333 30.6666H29.8333" stroke="white" stroke-width="2" stroke-linecap="round"/>
<path d="M43.1667 30.6666H45.1667" stroke="white" stroke-width="2" stroke-linecap="round"/>
<path d="M33.8333 40H39.1666" stroke="white" stroke-width="2" stroke-linecap="round"/>
<ellipse cx="36.5" cy="29.3333" rx="2.66667" ry="2.66667" stroke="white" stroke-width="2"/>
</svg>
