<svg width="73" height="72" viewBox="0 0 73 72" fill="none" xmlns="http://www.w3.org/2000/svg">
<path d="M0.5 36C0.5 16.1178 16.6178 0 36.5 0C56.3823 0 72.5 16.1178 72.5 36C72.5 55.8823 56.3823 72 36.5 72C16.6178 72 0.5 55.8823 0.5 36Z" fill="#339E75" fill-opacity="0.4"/>
<rect x="4.5" y="4" width="64" height="64" rx="32" fill="#339E75"/>
<path d="M29.8334 43.9976C26.9333 43.9815 25.3628 43.8529 24.3383 42.8284C23.1667 41.6568 23.1667 39.7712 23.1667 36L23.1667 30.6666C23.1667 26.8954 23.1667 25.0098 24.3383 23.8382C25.5098 22.6666 27.3955 22.6666 31.1667 22.6666L41.8334 22.6666C45.6046 22.6666 47.4902 22.6666 48.6618 23.8382C49.8334 25.0098 49.8334 26.8954 49.8334 30.6666V36C49.8334 39.7712 49.8334 41.6568 48.6618 42.8284C47.6886 43.8015 46.2228 43.9664 43.5929 43.9943L42.5 43.9976" stroke="white" stroke-width="2"/>
<path d="M32.5 28H40.5" stroke="white" stroke-width="2" stroke-linecap="round"/>
<path d="M29.8333 32.6666H43.1666" stroke="white" stroke-width="2" stroke-linecap="round"/>
<path d="M35.0209 38.5938C35.8732 37.8675 37.1268 37.8675 37.9791 38.5938C38.3444 38.9051 38.7985 39.0932 39.2768 39.1314C40.3931 39.2204 41.2796 40.1069 41.3686 41.2232C41.4068 41.7015 41.5949 42.1556 41.9062 42.5209C42.6325 43.3732 42.6325 44.6268 41.9062 45.4791C41.5949 45.8444 41.4068 46.2985 41.3686 46.7768C41.2796 47.8931 40.3931 48.7796 39.2768 48.8686C38.7985 48.9068 38.3444 49.0949 37.9791 49.4062C37.1268 50.1325 35.8732 50.1325 35.0209 49.4062C34.6556 49.0949 34.2015 48.9068 33.7232 48.8686C32.6069 48.7796 31.7204 47.8931 31.6314 46.7768C31.5932 46.2985 31.4051 45.8444 31.0938 45.4791C30.3675 44.6268 30.3675 43.3732 31.0938 42.5209C31.4051 42.1556 31.5932 41.7015 31.6314 41.2232C31.7204 40.1069 32.6069 39.2204 33.7232 39.1314C34.2015 39.0932 34.6556 38.9051 35.0209 38.5938Z" stroke="white" stroke-width="2"/>
<path d="M34.5 44.2666L35.6429 45.3333L38.5 42.6666" stroke="white" stroke-width="2" stroke-linecap="round" stroke-linejoin="round"/>
</svg>
