<svg width="73" height="72" viewBox="0 0 73 72" fill="none" xmlns="http://www.w3.org/2000/svg">
<path d="M0.5 36C0.5 16.1178 16.6178 0 36.5 0C56.3823 0 72.5 16.1178 72.5 36C72.5 55.8823 56.3823 72 36.5 72C16.6178 72 0.5 55.8823 0.5 36Z" fill="#339E75" fill-opacity="0.4"/>
<rect x="4.5" y="4" width="64" height="64" rx="32" fill="#339E75"/>
<path d="M23.1666 36C23.1666 29.7146 23.1666 26.5719 25.1192 24.6192C27.0719 22.6666 30.2146 22.6666 36.5 22.6666C42.7854 22.6666 45.928 22.6666 47.8807 24.6192C49.8333 26.5719 49.8333 29.7146 49.8333 36C49.8333 42.2854 49.8333 45.428 47.8807 47.3807C45.928 49.3333 42.7854 49.3333 36.5 49.3333C30.2146 49.3333 27.0719 49.3333 25.1192 47.3807C23.1666 45.428 23.1666 42.2854 23.1666 36Z" stroke="white" stroke-width="2"/>
<path d="M29.8334 38.6667L32.8906 35.6095C33.4113 35.0888 34.2555 35.0888 34.7762 35.6095L36.8906 37.7239C37.4113 38.2446 38.2555 38.2446 38.7762 37.7239L43.1667 33.3334M43.1667 33.3334V36.6667M43.1667 33.3334H39.8334" stroke="white" stroke-width="2" stroke-linecap="round" stroke-linejoin="round"/>
</svg>
